<svg width="592" height="607" viewBox="0 0 592 607" fill="none" xmlns="http://www.w3.org/2000/svg">
<g clip-path="url(#clip0_166_2865)">
<path d="M524.534 175.263C561.794 175.263 592 145.038 592 107.753C592 70.4687 561.794 40.2437 524.534 40.2437C487.273 40.2437 457.067 70.4687 457.067 107.753C457.067 145.038 487.273 175.263 524.534 175.263Z" fill="#F6F6F6"/>
<path d="M549.031 106.442C546.935 110.899 547.983 115.75 551.389 117.323C554.795 118.896 559.249 116.536 561.214 112.079C563.311 107.622 562.263 102.772 558.856 101.199C555.581 99.6259 551.127 101.985 549.031 106.442Z" fill="#D9D9D9"/>
<path d="M498.202 82.8469C496.106 87.3039 497.154 92.1541 500.56 93.7271C503.966 95.3001 508.42 92.9406 510.385 88.4836C512.481 84.0267 511.433 79.1765 508.027 77.6035C504.621 76.0304 500.167 78.39 498.202 82.8469Z" fill="#D9D9D9"/>
<path d="M502.656 99.4949C496.892 111.948 501.739 126.368 513.398 131.742C525.058 137.117 539.206 131.48 544.97 119.027L502.656 99.4949Z" fill="#D9D9D9"/>
<path d="M503.966 123.353C503.966 123.353 510.647 119.944 517.46 123.09C524.272 126.237 525.975 133.577 525.975 133.577C525.975 133.577 512.612 135.675 503.966 123.353Z" fill="#D9D9D9"/>
<path d="M153.928 166.742H10.0871C4.84701 166.742 0.523926 162.416 0.523926 157.173V117.585C0.523926 112.341 4.84701 108.015 10.0871 108.015H153.928C159.168 108.015 163.491 112.341 163.491 117.585V157.173C163.491 162.547 159.168 166.742 153.928 166.742Z" fill="#F6F6F6"/>
<path d="M28.2964 147.866C34.2292 147.866 39.0386 143.053 39.0386 137.117C39.0386 131.18 34.2292 126.367 28.2964 126.367C22.3636 126.367 17.5542 131.18 17.5542 137.117C17.5542 143.053 22.3636 147.866 28.2964 147.866Z" fill="#D9D9D9"/>
<path d="M131.264 132.135H46.5059V137.117H131.264V132.135Z" fill="#D9D9D9"/>
<path d="M80.6975 140.918H46.5059V145.9H80.6975V140.918Z" fill="#D9D9D9"/>
<path d="M553.878 346.2H410.169C404.929 346.2 400.605 341.874 400.605 336.63V297.042C400.605 291.799 404.929 287.473 410.169 287.473H554.009C559.249 287.473 563.573 291.799 563.573 297.042V336.63C563.442 342.005 559.249 346.2 553.878 346.2Z" fill="#F6F6F6"/>
<path d="M428.378 327.323C434.311 327.323 439.12 322.511 439.12 316.574C439.12 310.638 434.311 305.825 428.378 305.825C422.445 305.825 417.636 310.638 417.636 316.574C417.636 322.511 422.445 327.323 428.378 327.323Z" fill="#D9D9D9"/>
<path d="M531.215 311.593H446.457V316.574H531.215V311.593Z" fill="#D9D9D9"/>
<path d="M480.648 320.376H446.457V325.357H480.648V320.376Z" fill="#D9D9D9"/>
<path d="M12.9694 319.589L21.0915 323.784C22.0085 324.308 23.0566 324.308 23.9736 323.784L31.9647 319.458C34.1918 318.278 36.9428 320.114 36.5498 322.735L35.1088 331.78C34.9778 332.829 35.2398 333.878 36.0258 334.533L42.5759 340.825C44.41 342.66 43.4929 345.806 40.8729 346.2L31.8337 347.642C30.7857 347.773 29.9997 348.428 29.4757 349.346L25.5456 357.604C24.3666 359.964 21.0915 359.964 19.9125 357.604L15.8514 349.477C15.3274 348.559 14.5414 347.904 13.4934 347.773L4.45421 346.593C1.83416 346.2 0.786142 343.054 2.62018 341.35L9.0393 334.926C9.82531 334.14 10.0873 333.222 9.95631 332.173L8.38428 323.26C7.99128 320.376 10.7423 318.409 12.9694 319.589Z" fill="#D9D9D9"/>
<path d="M402.046 162.941L405.846 166.611C406.239 167.004 406.894 167.267 407.418 167.135L412.658 166.087C414.099 165.825 415.278 167.267 414.623 168.708L412.265 173.559C412.003 174.083 412.003 174.738 412.265 175.263L414.885 179.982C415.671 181.293 414.492 182.866 413.051 182.735L407.811 181.948C407.156 181.817 406.632 182.079 406.239 182.473L402.57 186.405C401.522 187.585 399.688 186.93 399.426 185.488L398.509 180.244C398.378 179.589 397.985 179.195 397.461 178.933L392.614 176.705C391.173 176.049 391.173 174.083 392.483 173.428L397.199 170.937C397.723 170.675 398.116 170.15 398.116 169.495L398.771 164.12C399.164 162.547 400.867 161.892 402.046 162.941Z" fill="#D9D9D9"/>
<path d="M55.9382 28.4459L61.8333 34.0826C62.4883 34.7381 63.4053 35.0003 64.3224 34.8692L72.3135 33.2961C74.5406 32.9029 76.3746 35.1313 75.3266 37.2287L71.7895 44.5696C71.3965 45.3561 71.3965 46.4048 71.9205 47.1913L75.9816 54.27C77.1606 56.2363 75.4576 58.7269 73.2305 58.3337L65.1084 57.1539C64.1914 57.0228 63.2743 57.4161 62.6193 58.0715L57.1172 64.1015C55.5452 65.8056 52.6631 65.0191 52.2701 62.6595L50.8291 54.6632C50.6981 53.7456 50.0431 52.9591 49.2571 52.5659L41.7899 49.1576C39.6939 48.24 39.5629 45.225 41.6589 44.1763L48.8641 40.3748C49.6501 39.9815 50.1741 39.195 50.3051 38.2774L51.2221 30.15C51.4841 27.7905 54.2352 26.7418 55.9382 28.4459Z" fill="#D9D9D9"/>
<path d="M562.132 550.171C562.132 550.302 436.369 550.564 281.262 550.564C126.025 550.564 0.262207 550.433 0.262207 550.171C0.262207 549.908 126.025 549.777 281.262 549.777C436.369 549.777 562.132 549.908 562.132 550.171Z" fill="#100E21"/>
<path d="M323.969 31.9851L137.946 31.854C115.544 31.854 97.466 49.4196 97.466 71.18L97.335 523.691C97.335 545.451 115.413 563.017 137.815 563.017L323.838 563.148C346.24 563.148 364.318 545.582 364.318 523.822L364.449 71.3111C364.449 49.6818 346.371 31.9851 323.969 31.9851Z" fill="#100E21"/>
<path d="M323.838 47.9775H287.813H182.487H169.78H138.208C122.488 47.9775 109.78 60.4308 109.78 75.7679L109.649 522.249C109.649 537.586 122.357 550.039 137.946 550.039L323.576 550.17C339.297 550.17 352.004 537.717 352.004 522.38L352.135 75.899C352.135 60.4308 339.428 47.9775 323.838 47.9775Z" fill="#FEFEFE"/>
<path d="M323.838 47.9776C323.838 47.9776 324.1 47.9776 324.755 47.9776C325.017 47.9776 325.41 47.9776 325.934 47.9776C326.458 47.9776 326.982 47.9776 327.506 48.1087C328.161 48.2398 328.816 48.2398 329.602 48.3709C330.388 48.502 331.174 48.7641 332.091 49.0263C333.008 49.2885 333.925 49.6817 334.842 49.9439C335.759 50.3372 336.807 50.8615 337.855 51.3859C339.951 52.5656 342.179 54.1387 344.275 56.2361C346.371 58.3335 348.336 60.9552 349.777 64.2324C351.218 67.3784 352.266 71.1799 352.266 75.2436C352.266 79.3073 352.266 83.6332 352.266 88.0901C352.266 124.532 352.266 177.36 352.397 242.51C352.397 307.66 352.397 385.264 352.397 471.519C352.397 482.268 352.397 493.148 352.397 504.29C352.397 509.796 352.397 515.301 352.397 520.938C352.397 522.38 352.266 523.691 352.266 525.133C352.004 526.575 351.873 527.886 351.48 529.328C350.694 532.081 349.646 534.702 348.074 537.062C345.061 541.912 340.345 545.714 335.104 547.942C332.484 548.991 329.602 549.777 326.72 550.039C323.838 550.302 320.956 550.171 318.074 550.171C306.546 550.171 295.018 550.171 283.227 550.171C236.329 550.171 187.858 550.171 138.077 550.039C131.789 549.908 125.501 548.073 120.522 544.141C118.033 542.305 115.806 539.946 114.103 537.455C112.4 534.833 111.09 531.949 110.304 528.934C109.911 527.492 109.649 525.919 109.518 524.346L109.387 521.987V519.627C109.387 516.612 109.387 513.466 109.387 510.451C109.387 504.29 109.387 498.26 109.387 492.23C109.387 467.979 109.387 444.121 109.387 420.657C109.387 373.728 109.387 328.503 109.387 285.375C109.387 242.248 109.387 201.349 109.387 162.941C109.387 143.802 109.387 125.319 109.387 107.491C109.387 98.577 109.387 89.9253 109.387 81.4047C109.387 79.3073 109.387 77.2099 109.387 74.9815C109.387 72.8841 109.649 70.7867 110.173 68.6893C111.221 64.6256 113.055 60.8241 115.675 57.678C120.915 51.2548 128.776 47.5843 136.505 47.3222C144.234 47.1911 151.832 47.3222 159.168 47.3222C173.84 47.3222 187.727 47.3222 200.565 47.3222C226.503 47.3222 248.774 47.4533 266.983 47.4533C285.192 47.4533 299.341 47.5844 308.904 47.5844C313.751 47.5844 317.288 47.5844 319.777 47.5844C322.528 47.9776 323.838 47.9776 323.838 47.9776C323.838 47.9776 322.528 47.9776 320.17 47.9776C317.681 47.9776 314.013 47.9776 309.297 47.9776C299.734 47.9776 285.585 47.9776 267.376 47.9776C249.167 47.9776 226.896 47.9776 200.958 47.9776C187.989 47.9776 174.233 47.9776 159.561 47.9776C152.225 47.9776 144.627 47.8465 136.898 48.1087C129.3 48.3709 121.439 52.0413 116.33 58.3335C113.841 61.4795 111.876 65.15 110.959 69.2136C109.78 73.4084 110.042 77.6032 110.042 81.798C110.042 90.3186 110.042 99.1014 110.042 107.884C110.042 125.712 110.042 144.195 110.042 163.334C110.042 201.611 110.042 242.641 110.042 285.769C110.042 328.896 110.042 374.121 110.042 421.05C110.042 444.515 110.042 468.372 110.042 492.623C110.042 498.653 110.042 504.815 110.042 510.845C110.042 513.859 110.042 517.006 110.042 520.021V522.249L110.173 524.478C110.304 525.919 110.566 527.492 110.959 528.934C111.745 531.818 112.924 534.702 114.758 537.193C116.461 539.684 118.557 541.912 121.046 543.747C125.894 547.549 132.051 549.384 138.208 549.515C187.858 549.515 236.46 549.515 283.358 549.646C295.018 549.646 306.677 549.646 318.205 549.646C321.087 549.646 323.969 549.646 326.72 549.515C329.471 549.253 332.222 548.466 334.842 547.418C339.952 545.189 344.537 541.519 347.55 536.8C349.122 534.44 350.17 531.818 350.956 529.197C351.349 527.886 351.48 526.444 351.742 525.133C351.873 523.691 352.004 522.38 351.873 520.938C351.873 515.301 351.873 509.796 351.873 504.29C351.873 493.279 351.873 482.399 351.873 471.519C351.873 385.264 352.004 307.66 352.004 242.51C352.004 177.36 352.135 124.532 352.135 88.0901C352.135 83.5021 352.135 79.1762 352.135 75.2436C352.135 71.1799 351.087 67.5095 349.646 64.3634C348.205 61.2174 346.24 58.4645 344.144 56.4982C342.048 54.4009 339.951 52.8278 337.855 51.648C336.807 50.9926 335.759 50.5993 334.842 50.2061C333.794 49.8128 332.877 49.5506 332.091 49.2885C331.174 49.0263 330.388 48.8952 329.602 48.633C328.816 48.502 328.161 48.3709 327.506 48.3709C326.851 48.2398 326.327 48.2398 325.934 48.2398C325.41 48.2398 325.148 48.2398 324.755 48.1087C324.1 47.9776 323.838 47.9776 323.838 47.9776Z" fill="#100E21"/>
<path d="M100.61 154.158H94.06C93.143 154.158 92.3569 153.371 92.3569 152.454V97.0039C92.3569 96.0863 93.143 95.2998 94.06 95.2998H100.61C101.527 95.2998 102.313 96.0863 102.313 97.0039V152.322C102.313 153.371 101.527 154.158 100.61 154.158Z" fill="#100E21"/>
<path d="M100.61 223.503H94.06C93.143 223.503 92.3569 222.716 92.3569 221.799V166.48C92.3569 165.562 93.143 164.776 94.06 164.776H100.61C101.527 164.776 102.313 165.562 102.313 166.48V221.799C102.313 222.716 101.527 223.503 100.61 223.503Z" fill="#100E21"/>
<path d="M367.724 244.87H361.174C360.257 244.87 359.471 244.083 359.471 243.166V145.113C359.471 144.195 360.257 143.409 361.174 143.409H367.724C368.641 143.409 369.427 144.195 369.427 145.113V243.166C369.427 244.083 368.641 244.87 367.724 244.87Z" fill="#100E21"/>
<path d="M44.0171 336.237C56.0693 342.529 65.2395 353.147 71.9206 364.945C78.6017 376.743 82.7938 389.721 86.9859 402.567L90.654 468.897C76.6367 445.039 65.5015 417.118 62.3574 389.721C65.5015 389.458 68.5145 389.196 71.6586 388.934C65.3705 388.016 60.1304 383.428 56.8553 378.054C53.5803 372.679 51.7462 366.518 50.1742 360.357C53.9733 360.881 57.7723 361.537 61.5714 362.061C52.6633 356.162 46.2441 346.724 44.0171 336.237Z" fill="#FFBE33"/>
<g opacity="0.4">
<path d="M44.0171 336.237C56.0693 342.529 65.2395 353.147 71.9206 364.945C78.6017 376.743 82.7938 389.721 86.9859 402.567L90.654 468.897C76.6367 445.039 65.5015 417.118 62.3574 389.721C65.5015 389.458 68.5145 389.196 71.6586 388.934C65.3705 388.016 60.1304 383.428 56.8553 378.054C53.5803 372.679 51.7462 366.518 50.1742 360.357C53.9733 360.881 57.7723 361.537 61.5714 362.061C52.6633 356.162 46.2441 346.724 44.0171 336.237Z" fill="#100E21"/>
</g>
<path d="M92.7497 484.496C92.7497 484.496 123.142 448.185 122.749 413.447H110.435C110.435 413.447 123.797 404.664 122.749 399.814C121.701 394.964 121.308 376.35 121.308 376.35L110.042 379.103C110.042 379.103 118.426 374.908 119.474 368.222C120.522 361.537 116.985 330.732 116.985 330.732C116.985 330.732 103.361 345.151 99.1688 359.833C94.9768 374.514 83.9726 391.687 87.1166 436.65C90.5227 481.481 92.7497 484.496 92.7497 484.496Z" fill="#FFBE33"/>
<path d="M77.2916 487.904C77.2916 487.904 44.41 466.013 37.0738 437.96L46.899 435.339C46.899 435.339 34.3228 431.144 34.0608 427.08C33.7988 422.885 29.9997 407.942 29.9997 407.942L39.5629 407.679C39.5629 407.679 31.8337 406.106 29.6067 400.994C27.5106 395.882 23.5806 370.32 23.5806 370.32C23.5806 370.32 37.7288 378.84 44.2789 389.852C50.8291 400.732 63.5363 412.136 70.7414 448.972C77.9466 485.676 77.2916 487.904 77.2916 487.904Z" fill="#FFBE33"/>
<path d="M108.863 362.454C108.863 362.454 108.863 362.586 108.732 362.848C108.601 363.11 108.601 363.503 108.47 364.028C108.208 365.076 107.946 366.518 107.553 368.353C107.16 370.189 106.636 372.548 106.112 375.17C105.588 377.792 104.933 380.938 104.278 384.215C102.968 390.9 101.658 399.028 100.217 407.942C98.9071 416.855 97.466 426.818 96.287 437.174C95.108 447.53 94.191 457.492 93.405 466.537C92.75 475.582 92.2259 483.71 91.9639 490.657C91.8329 494.065 91.7019 497.212 91.5709 499.964C91.4399 502.717 91.4399 505.077 91.4399 506.912C91.4399 508.747 91.4399 510.32 91.4399 511.369C91.4399 510.32 91.5709 508.878 91.5709 506.912C91.5709 504.946 91.7019 502.586 91.8329 499.964C91.9639 497.212 92.095 494.197 92.226 490.657C92.488 483.841 93.143 475.713 93.798 466.668C94.584 457.623 95.501 447.661 96.68 437.305C97.8591 426.949 99.3001 416.986 100.61 408.073C102.051 399.159 103.361 391.031 104.54 384.346C105.195 380.938 105.719 377.923 106.243 375.301C106.767 372.679 107.16 370.32 107.553 368.484C107.946 366.649 108.208 365.207 108.47 364.159C108.601 363.634 108.601 363.372 108.732 362.979C108.863 362.586 108.863 362.454 108.863 362.454Z" fill="#100E21"/>
<path d="M96.9419 506.781C96.9419 506.781 124.714 475.189 133.361 456.182L126.81 453.429C131.527 454.215 136.374 452.118 140.042 449.103C143.71 445.957 146.33 442.024 149.081 437.96L140.566 436.519C148.426 434.29 155.238 429.047 159.299 421.968C149.212 423.672 140.042 429.178 132.444 436.125C126.286 441.762 121.177 448.316 116.199 455.002C113.71 458.279 111.614 461.687 109.911 465.358C105.064 475.058 96.9419 495.245 96.9419 506.781Z" fill="#FFBE33"/>
<path d="M36.6808 388.672C36.6808 388.672 36.6808 388.803 36.8118 388.934C36.9428 389.196 37.0738 389.458 37.2048 389.852C37.5978 390.638 38.1218 391.818 38.9079 393.391C40.3489 396.406 42.4449 400.863 45.065 406.237C47.685 411.743 50.5671 418.297 53.7111 425.507C56.8552 432.848 60.1302 440.975 63.5363 449.496C66.8114 458.148 69.8244 466.275 72.4445 473.878C75.0645 481.481 77.2916 488.298 78.9946 494.066C80.8286 499.833 82.1387 504.552 83.0557 507.699C83.5797 509.272 83.8417 510.582 84.1037 511.369C84.2347 511.762 84.3657 512.024 84.3657 512.287C84.4967 512.549 84.4967 512.549 84.4967 512.549C84.4967 512.549 84.4967 512.418 84.3657 512.155C84.3657 511.893 84.2347 511.631 84.1037 511.238C83.8417 510.32 83.5797 509.14 83.0557 507.436C82.1387 504.159 80.8286 499.44 79.1256 493.672C77.4226 487.904 75.1955 481.088 72.7065 473.485C70.0864 465.882 67.2044 457.623 63.7983 449.103C60.5233 440.451 57.1172 432.455 53.9731 425.114C50.8291 417.773 47.816 411.219 45.196 405.844C42.5759 400.339 40.4799 396.013 38.9079 392.998C38.1218 391.556 37.5978 390.376 37.0738 389.589C36.8118 389.196 36.6808 388.934 36.5498 388.672C36.8118 388.803 36.6808 388.672 36.6808 388.672Z" fill="#100E21"/>
<path d="M94.584 520.283C94.584 520.283 94.584 520.021 94.715 519.759C94.846 519.365 94.846 518.71 94.977 518.054C95.108 517.268 95.239 516.481 95.37 515.433C95.501 514.384 95.763 513.204 96.025 511.893C96.549 509.272 97.204 506.257 98.1211 502.848C99.0381 499.44 100.217 495.901 101.658 492.099C103.099 488.298 104.671 484.889 106.112 481.743C107.684 478.597 109.125 475.844 110.435 473.616C111.09 472.436 111.745 471.519 112.269 470.601C112.793 469.683 113.317 468.897 113.71 468.373C114.103 467.848 114.365 467.324 114.627 466.931C114.889 466.537 114.889 466.406 114.889 466.406C114.889 466.406 114.758 466.537 114.496 466.8C114.234 467.193 113.841 467.586 113.448 468.241C113.055 468.897 112.531 469.552 112.007 470.47C111.483 471.388 110.828 472.305 110.173 473.485C108.732 475.713 107.291 478.466 105.719 481.612C104.147 484.758 102.575 488.298 101.134 491.968C99.6931 495.77 98.6451 499.44 97.728 502.717C96.811 506.126 96.156 509.141 95.763 511.762C95.501 513.073 95.37 514.253 95.239 515.302C95.108 516.35 94.977 517.268 94.846 517.923C94.715 518.579 94.715 519.103 94.715 519.627C94.584 520.152 94.584 520.283 94.584 520.283Z" fill="#100E21"/>
<path d="M118.688 512.942H57.9033V525.395H118.688V512.942Z" fill="#1D60A6"/>
<path d="M112.924 525.264L106.374 567.081H69.5622L63.5361 525.264H112.924Z" fill="#1D60A6"/>
<path d="M61.7021 525.264C61.7021 525.395 73.2304 525.526 87.3786 525.526C101.527 525.526 113.055 525.395 113.055 525.264C113.055 525.133 101.527 525.002 87.3786 525.002C73.0994 525.002 61.7021 525.133 61.7021 525.264Z" fill="#100E21"/>
<g opacity="0.3">
<path d="M308.904 31.854V135.806C308.904 142.622 314.406 148.128 321.349 148.128H336.414C335.628 152.323 333.794 156.386 331.174 159.795C330.257 161.105 331.305 162.81 332.877 162.416C336.807 161.499 340.737 160.319 344.274 158.353C348.598 155.993 352.528 152.454 354.493 148.128H369.427V143.409H364.449V71.8354C364.449 49.8129 346.633 31.9851 324.624 31.9851H308.904V31.854Z" fill="#100E21"/>
</g>
<g opacity="0.3">
<path d="M97.0728 222.978H150.784C160.871 222.978 168.993 231.106 168.993 241.199V284.458C168.993 294.552 160.871 302.679 150.784 302.679H128.644C129.823 308.971 132.443 314.87 136.373 319.982C137.815 321.818 136.111 324.439 133.753 323.915C127.989 322.604 122.225 320.769 116.985 318.016C110.566 314.608 104.933 309.364 101.92 302.81H97.2038L97.0728 222.978Z" fill="#100E21"/>
</g>
<path d="M230.957 339.908C252.879 339.908 270.651 322.125 270.651 300.188C270.651 278.252 252.879 260.469 230.957 260.469C209.035 260.469 191.263 278.252 191.263 300.188C191.263 322.125 209.035 339.908 230.957 339.908Z" fill="#D9D9D9"/>
<path d="M244.057 293.503C244.057 296.387 245.891 298.746 247.987 298.746C250.214 298.746 251.917 296.387 251.917 293.503C251.917 290.619 250.083 288.26 247.987 288.26C245.891 288.26 244.057 290.619 244.057 293.503Z" fill="#100E21"/>
<path d="M215.106 298.746C217.276 298.746 219.036 296.399 219.036 293.503C219.036 290.607 217.276 288.26 215.106 288.26C212.935 288.26 211.176 290.607 211.176 293.503C211.176 296.399 212.935 298.746 215.106 298.746Z" fill="#100E21"/>
<path d="M246.153 305.694C236.328 305.694 226.503 305.694 216.809 305.694C215.237 305.694 215.237 303.203 216.809 303.203C226.634 303.203 236.459 303.203 246.153 303.203C247.725 303.203 247.725 305.694 246.153 305.694Z" fill="#100E21"/>
<path d="M266.779 410.017C276.181 390.2 267.749 366.508 247.944 357.099C228.14 347.691 204.463 356.129 195.06 375.946C185.658 395.764 194.09 419.456 213.895 428.864C233.7 438.273 257.376 429.835 266.779 410.017Z" fill="#D9D9D9"/>
<path d="M244.057 386.312C244.057 389.196 245.891 391.556 247.987 391.556C250.214 391.556 251.917 389.196 251.917 386.312C251.917 383.428 250.083 381.069 247.987 381.069C245.891 381.069 244.057 383.428 244.057 386.312Z" fill="#100E21"/>
<path d="M211.045 386.312C211.045 389.196 212.879 391.556 214.975 391.556C217.202 391.556 218.905 389.196 218.905 386.312C218.905 383.428 217.071 381.069 214.975 381.069C212.879 381.069 211.045 383.428 211.045 386.312Z" fill="#100E21"/>
<path d="M237.694 521.416C259.299 517.691 273.795 497.146 270.073 475.528C266.35 453.91 245.819 439.404 224.214 443.129C202.61 446.854 188.114 467.398 191.836 489.017C195.559 510.635 216.09 525.14 237.694 521.416Z" fill="#D9D9D9"/>
<path d="M242.485 475.582C242.485 478.466 244.319 480.826 246.415 480.826C248.642 480.826 250.345 478.466 250.345 475.582C250.345 472.698 248.511 470.339 246.415 470.339C244.319 470.339 242.485 472.698 242.485 475.582Z" fill="#100E21"/>
<path d="M215.106 481.088C217.276 481.088 219.036 478.74 219.036 475.844C219.036 472.949 217.276 470.601 215.106 470.601C212.935 470.601 211.176 472.949 211.176 475.844C211.176 478.74 212.935 481.088 215.106 481.088Z" fill="#100E21"/>
<path d="M219.691 487.642C221.132 482.661 225.979 478.86 231.219 478.991C236.459 479.253 241.175 483.185 242.092 488.298C242.354 489.871 239.996 490.526 239.734 488.953C238.948 484.89 235.28 481.612 231.219 481.35C227.027 481.219 223.097 484.103 222.049 488.167C221.656 489.871 219.298 489.215 219.691 487.642Z" fill="#100E21"/>
<path d="M232.791 248.278C255.726 248.278 274.319 229.674 274.319 206.724C274.319 183.774 255.726 165.169 232.791 165.169C209.856 165.169 191.263 183.774 191.263 206.724C191.263 229.674 209.856 248.278 232.791 248.278Z" fill="#1D60A6"/>
<path d="M246.546 199.776C246.546 202.791 248.38 205.282 250.738 205.282C252.966 205.282 254.931 202.791 254.931 199.776C254.931 196.761 253.097 194.271 250.738 194.271C248.38 194.271 246.546 196.63 246.546 199.776Z" fill="#100E21"/>
<path d="M212.093 199.776C212.093 202.791 213.927 205.282 216.285 205.282C218.512 205.282 220.477 202.791 220.477 199.776C220.477 196.761 218.643 194.271 216.285 194.271C213.927 194.271 212.093 196.63 212.093 199.776Z" fill="#100E21"/>
<path d="M245.236 206.724C244.057 211.967 239.079 216.162 233.577 216.162C228.075 216.162 223.097 212.098 221.787 206.855C221.394 205.282 223.883 204.495 224.145 206.068C225.193 210.263 228.992 213.671 233.446 213.54C237.769 213.54 241.699 210.263 242.747 206.068C243.14 204.495 245.629 205.151 245.236 206.724Z" fill="#100E21"/>
<path d="M261.361 143.236C277.118 127.469 277.118 101.905 261.361 86.1381C245.604 70.3709 220.057 70.3709 204.3 86.1381C188.543 101.905 188.543 127.469 204.3 143.236C220.057 159.003 245.604 159.003 261.361 143.236Z" fill="#D9D9D9"/>
<path d="M245.76 107.753C245.76 110.637 247.594 113.128 249.821 113.128C252.048 113.128 253.882 110.768 253.882 107.753C253.882 104.869 252.048 102.379 249.821 102.379C247.594 102.379 245.76 104.869 245.76 107.753Z" fill="#100E21"/>
<path d="M212.224 107.753C212.224 110.637 214.058 113.128 216.285 113.128C218.512 113.128 220.346 110.768 220.346 107.753C220.346 104.869 218.512 102.379 216.285 102.379C214.058 102.379 212.224 104.869 212.224 107.753Z" fill="#100E21"/>
<path d="M218.905 115.618C218.905 123.746 225.193 130.431 232.791 130.431C240.52 130.431 246.677 123.746 246.677 115.618H218.905Z" fill="#100E21"/>
<path d="M225.586 128.334C225.586 128.334 228.337 124.794 232.791 124.794C237.245 124.794 239.996 128.334 239.996 128.334C239.996 128.334 233.315 132.791 225.586 128.334Z" fill="#1D60A6"/>
<path d="M240.651 398.11C240.258 398.11 239.996 397.979 239.734 397.717C237.376 395.357 233.315 394.44 228.861 395.226C226.765 395.619 224.669 396.275 222.704 397.324C222.049 397.717 221.263 397.455 221.001 396.799C220.608 396.144 220.87 395.357 221.525 395.095C223.621 394.046 225.979 393.26 228.337 392.735C233.708 391.818 238.424 392.867 241.437 395.882C241.961 396.406 241.961 397.192 241.437 397.717C241.437 397.979 241.044 398.11 240.651 398.11Z" fill="#100E21"/>
<path d="M303.27 165.825C303.401 165.956 298.816 170.413 292.921 175.656C287.157 181.031 282.31 185.225 282.179 185.094C282.048 184.963 286.633 180.506 292.528 175.263C298.423 169.888 303.139 165.693 303.27 165.825Z" fill="#1D60A6"/>
<path d="M319.384 201.087C319.384 201.218 312.179 201.611 303.271 201.742C294.362 202.004 287.157 202.004 287.157 201.742C287.157 201.611 294.362 201.218 303.271 201.087C312.179 200.956 319.384 200.956 319.384 201.087Z" fill="#1D60A6"/>
<path d="M300.127 228.353C300.127 228.484 299.21 227.96 297.769 227.173C296.328 226.387 294.494 225.076 292.398 223.634C290.433 222.192 288.599 220.75 287.42 219.701C286.241 218.653 285.455 217.866 285.586 217.866C285.717 217.735 288.861 220.226 292.922 223.11C296.852 225.993 300.258 228.222 300.127 228.353Z" fill="#1D60A6"/>
<path d="M179.997 168.315L180.914 170.019C181.045 170.15 181.176 170.413 181.438 170.413L183.403 170.675C183.927 170.806 184.189 171.461 183.796 171.854L182.355 173.165C182.224 173.296 182.093 173.559 182.224 173.69L182.486 175.656C182.617 176.18 181.962 176.574 181.569 176.311L179.866 175.394C179.735 175.263 179.473 175.263 179.211 175.394L177.508 176.311C176.984 176.574 176.46 176.18 176.591 175.656L176.853 173.69C176.853 173.428 176.853 173.296 176.722 173.165L175.281 171.854C174.888 171.461 175.15 170.806 175.674 170.675L177.639 170.413C177.901 170.413 178.032 170.281 178.163 170.019L179.08 168.315C179.08 167.791 179.735 167.791 179.997 168.315Z" fill="#1D60A6"/>
<path d="M168.862 202.529L169.517 203.709C169.648 203.84 169.648 203.971 169.91 203.971L171.22 204.102C171.613 204.102 171.744 204.626 171.482 204.888L170.565 205.806C170.434 205.937 170.434 206.068 170.434 206.199L170.696 207.51C170.696 207.903 170.303 208.166 170.041 208.034L168.862 207.379C168.731 207.248 168.6 207.248 168.469 207.379L167.29 208.034C166.897 208.166 166.504 207.903 166.635 207.51L166.897 206.199C166.897 206.068 166.897 205.937 166.766 205.806L165.849 204.888C165.587 204.626 165.718 204.102 166.111 204.102L167.421 203.971C167.552 203.971 167.683 203.84 167.814 203.709L168.469 202.529C168.207 202.136 168.731 202.136 168.862 202.529Z" fill="#1D60A6"/>
<path d="M300.127 185.488L300.913 186.93C301.044 187.061 301.175 187.192 301.306 187.192L302.878 187.454C303.402 187.585 303.533 188.109 303.14 188.371L301.961 189.551C301.83 189.682 301.83 189.813 301.83 190.076L302.092 191.649C302.223 192.173 301.699 192.435 301.306 192.304L299.865 191.518C299.734 191.386 299.472 191.386 299.341 191.518L297.9 192.304C297.507 192.566 296.983 192.173 297.114 191.649L297.376 190.076C297.376 189.945 297.376 189.682 297.245 189.551L296.066 188.371C295.672 188.109 295.934 187.454 296.328 187.454L297.9 187.192C298.031 187.192 298.293 187.061 298.293 186.93L299.079 185.488C299.21 185.094 299.865 185.094 300.127 185.488Z" fill="#1D60A6"/>
<path d="M277.594 170.806L277.987 171.593C277.987 171.724 278.118 171.724 278.249 171.724L279.166 171.855C279.428 171.855 279.559 172.248 279.297 172.379L278.642 173.034C278.511 173.166 278.511 173.166 278.511 173.297L278.642 174.214C278.642 174.476 278.38 174.739 278.118 174.608L277.332 174.214C277.201 174.214 277.07 174.214 277.07 174.214L276.284 174.608C276.022 174.739 275.76 174.476 275.76 174.214L275.891 173.297C275.891 173.166 275.891 173.034 275.76 173.034L275.105 172.379C274.974 172.248 274.974 171.855 275.236 171.855L276.153 171.724C276.284 171.724 276.284 171.593 276.415 171.593L276.808 170.806C277.201 170.544 277.463 170.544 277.594 170.806Z" fill="#1D60A6"/>
<path d="M174.364 189.027C174.364 189.158 173.054 188.896 171.089 188.372C169.124 187.847 166.373 187.192 163.36 186.274C160.347 185.357 157.596 184.57 155.631 184.046C153.666 183.39 152.487 182.997 152.487 182.866C152.487 182.735 153.797 182.997 155.762 183.521C157.727 184.046 160.478 184.701 163.491 185.619C166.504 186.536 169.255 187.323 171.22 187.847C173.185 188.503 174.364 188.896 174.364 189.027Z" fill="#1D60A6"/>
<path d="M177.508 219.963C177.639 220.094 175.674 221.799 173.185 223.896C170.696 225.862 168.6 227.435 168.469 227.304C168.338 227.173 170.303 225.469 172.792 223.372C175.281 221.274 177.377 219.832 177.508 219.963Z" fill="#1D60A6"/>
<path d="M492.7 207.903L501.085 207.248C505.146 210.918 510.255 213.278 516.15 214.065C529.381 215.638 542.088 206.986 545.363 194.008C549.686 177.754 538.42 161.63 521.783 159.926C508.421 158.615 495.844 167.529 492.7 180.637C491.128 187.323 492.045 194.008 495.058 199.514L492.7 207.903Z" fill="#FEFEFE"/>
<path d="M492.7 207.903C492.7 207.903 492.831 207.772 492.831 207.379C492.962 206.986 493.093 206.462 493.355 205.806C493.748 204.364 494.403 202.267 495.189 199.645H494.927H495.058V199.514C493.486 196.368 491.914 192.042 492.045 186.667C492.045 184.046 492.569 181.031 493.617 178.147C494.665 175.263 496.237 172.379 498.464 169.757C500.691 167.136 503.574 164.776 506.849 163.072C510.124 161.368 514.054 160.319 517.984 160.188C525.975 159.795 534.621 163.465 540.123 170.544L541.171 171.855L542.088 173.297C542.743 174.214 543.136 175.263 543.66 176.181C544.446 178.147 545.232 180.244 545.494 182.342C546.28 186.536 546.018 190.731 544.839 194.664C543.66 198.596 541.695 202.005 539.206 204.888C536.717 207.772 533.835 209.87 530.691 211.443C524.403 214.458 517.853 214.72 512.744 213.409C507.504 212.229 503.574 209.608 500.953 207.379C500.953 207.379 500.953 207.379 500.822 207.379C498.071 207.641 496.106 207.772 494.665 207.903C494.01 207.903 493.486 208.035 493.093 208.035C492.962 207.772 492.7 207.903 492.7 207.903C492.7 207.903 492.831 207.903 493.224 207.903C493.617 207.903 494.141 207.903 494.796 207.772C496.237 207.641 498.333 207.51 501.085 207.379H500.953C503.574 209.739 507.504 212.36 512.744 213.671C517.984 214.982 524.665 214.72 531.084 211.705C534.228 210.132 537.241 207.903 539.861 205.02C542.35 202.136 544.446 198.596 545.625 194.664C546.804 190.731 547.066 186.405 546.28 182.079C545.887 179.982 545.232 177.885 544.315 175.787C543.791 174.87 543.398 173.821 542.743 172.772L541.826 171.33L540.778 170.019C535.276 162.81 526.368 159.139 518.246 159.533C514.185 159.664 510.255 160.712 506.849 162.548C503.443 164.252 500.56 166.611 498.333 169.364C496.106 171.986 494.534 175.001 493.486 178.016C492.438 181.031 491.914 183.915 491.914 186.667C491.783 192.173 493.486 196.63 495.058 199.645L495.32 199.514H495.189C494.403 202.267 493.879 204.364 493.486 205.806C493.355 206.462 493.093 206.986 493.093 207.379C492.7 207.641 492.7 207.903 492.7 207.903Z" fill="#100E21"/>
<path d="M515.626 199.514L503.967 186.93L508.29 182.866L516.15 191.255L531.346 178.671L535.145 183.259L515.626 199.514Z" fill="#1D60A6"/>
<path d="M333.925 0.262207H477.504C484.316 0.262207 489.949 5.76785 489.949 12.7154V121.386C489.949 128.203 484.447 133.839 477.504 133.839H367.069C364.973 138.296 361.174 141.836 356.851 144.195C353.314 146.162 349.384 147.341 345.453 148.259C343.881 148.652 342.702 146.817 343.75 145.637C346.37 142.229 348.204 138.165 348.99 133.839H333.925C327.113 133.839 321.48 128.334 321.48 121.386V12.7154C321.48 5.89893 327.113 0.262207 333.925 0.262207Z" fill="#FEFEFE"/>
<path d="M333.925 0.26219C333.925 0.26219 333.663 0.26219 333.139 0.26219C332.615 0.26219 331.829 0.393277 330.912 0.65545C329.078 1.1798 326.196 2.35958 323.838 5.50565C322.659 7.07869 321.873 9.04499 321.611 11.4046C321.48 13.7641 321.611 16.3858 321.611 19.1387C321.611 24.6443 321.611 31.0675 321.611 38.2773C321.611 52.5658 321.611 69.8692 321.742 89.6633C321.742 99.6259 321.742 110.113 321.742 121.124C321.742 123.877 322.528 126.63 324.231 128.727C325.934 130.956 328.423 132.529 331.174 133.184C332.615 133.446 333.925 133.446 335.497 133.446C336.938 133.446 338.379 133.446 339.951 133.446C342.964 133.446 345.978 133.446 348.991 133.446H349.384L349.253 133.839C348.598 137.379 347.288 140.787 345.323 143.802C345.061 144.195 344.798 144.589 344.536 144.982C344.274 145.375 343.881 145.768 343.75 146.031C343.357 146.686 343.75 147.604 344.536 147.866C344.93 147.997 345.191 147.997 345.716 147.866L347.026 147.604C347.943 147.341 348.729 147.079 349.646 146.817C353.183 145.768 356.589 144.326 359.602 142.098C362.615 140.001 365.235 137.117 366.807 133.708L366.938 133.577H367.2C397.33 133.577 430.343 133.577 464.666 133.577C467.286 133.577 469.906 133.577 472.526 133.577H476.456C477.766 133.577 479.076 133.577 480.255 133.315C482.744 132.791 484.971 131.48 486.674 129.645C488.377 127.809 489.425 125.45 489.687 122.959C489.818 121.779 489.818 120.469 489.818 119.158C489.818 117.847 489.818 116.667 489.818 115.356C489.818 112.866 489.818 110.244 489.818 107.753C489.818 102.772 489.818 97.6596 489.818 92.8093C489.818 73.0153 489.818 53.8766 489.818 35.6556C489.818 31.0675 489.818 26.6106 489.818 22.1537C489.818 19.9252 489.818 17.6967 489.818 15.5993C489.818 13.3709 489.949 11.2735 489.163 9.30717C487.853 5.24348 484.316 2.22849 480.386 1.31088C478.421 0.786537 476.325 1.04871 474.229 1.04871C472.133 1.04871 470.168 1.04871 468.072 1.04871C451.958 1.04871 436.762 1.04871 423.007 1.04871C395.496 1.04871 373.226 0.917623 357.899 0.917623C350.17 0.917623 344.275 0.917623 340.213 0.917623C338.248 0.917623 336.676 0.917623 335.628 0.917623C334.449 0.26219 333.925 0.26219 333.925 0.26219C333.925 0.26219 334.449 0.26219 335.497 0.26219C336.545 0.26219 338.117 0.26219 340.082 0.26219C344.143 0.26219 350.17 0.26219 357.768 0.26219C373.226 0.26219 395.365 0.26219 422.876 0.131104C436.631 0.131104 451.697 0.131104 467.941 0.131104C469.906 0.131104 472.002 0.131104 474.098 0.131104C475.146 0.131104 476.194 0.131104 477.242 0.131104C477.766 0.131104 478.29 0.131104 478.814 0.131104C479.338 0.26219 479.862 0.26219 480.386 0.393277C484.578 1.31088 488.246 4.58805 489.556 8.78282C490.342 10.8802 490.211 13.1087 490.211 15.3372C490.211 17.5656 490.211 19.663 490.211 21.8915C490.211 26.3484 490.211 30.8054 490.211 35.3934C490.211 53.6144 490.211 72.7531 490.211 92.5472C490.211 97.5285 490.211 102.51 490.211 107.491C490.211 109.982 490.211 112.603 490.211 115.094C490.211 116.405 490.211 117.585 490.211 118.896C490.211 120.206 490.211 121.386 490.08 122.697C489.818 125.319 488.639 127.809 486.936 129.776C485.233 131.742 482.744 133.184 480.124 133.708C478.814 133.971 477.504 133.971 476.194 133.971H472.264C469.644 133.971 467.024 133.971 464.404 133.971C430.081 133.971 397.199 133.971 366.938 133.971L367.2 133.839C365.497 137.379 362.877 140.263 359.733 142.491C356.589 144.72 353.183 146.162 349.646 147.341C348.729 147.604 347.812 147.866 347.026 148.128L345.716 148.521C345.323 148.652 344.668 148.783 344.144 148.521C343.095 148.128 342.571 146.817 343.095 145.899C343.357 145.375 343.619 145.113 343.881 144.72C344.143 144.326 344.405 143.933 344.668 143.671C346.633 140.656 347.943 137.379 348.598 133.971L348.86 134.364C345.847 134.364 342.833 134.364 339.82 134.364C338.379 134.364 336.807 134.364 335.366 134.364C333.925 134.364 332.353 134.364 330.912 134.102C328.03 133.446 325.41 131.742 323.576 129.514C321.742 127.285 320.956 124.27 320.956 121.517C320.956 110.506 320.956 99.888 320.956 90.0565C320.956 70.2624 320.956 52.959 321.087 38.6706C321.087 31.5919 321.087 25.1686 321.087 19.5319C321.087 16.7791 321.087 14.1574 321.218 11.7978C321.48 9.43825 322.397 7.34087 323.445 5.76783C325.803 2.62175 328.685 1.44197 330.65 0.917623C331.567 0.65545 332.353 0.65545 332.877 0.65545C333.663 0.26219 333.925 0.26219 333.925 0.26219Z" fill="#100E21"/>
<path d="M355.148 40.2437C360.863 40.2437 365.497 35.6072 365.497 29.8878C365.497 24.1685 360.863 19.532 355.148 19.532C349.432 19.532 344.798 24.1685 344.798 29.8878C344.798 35.6072 349.432 40.2437 355.148 40.2437Z" fill="#FFBE33"/>
<path d="M350.824 51.5171L352.396 54.7942C352.527 55.1875 352.92 55.4497 353.313 55.4497L356.851 55.974C357.899 56.1051 358.292 57.416 357.506 58.0714L354.885 60.562C354.623 60.8242 354.492 61.2175 354.492 61.6107L355.147 65.1501C355.278 66.1988 354.23 66.9853 353.313 66.4609L350.169 64.7568C349.776 64.6257 349.383 64.6257 348.99 64.7568L345.846 66.4609C344.929 66.9853 343.881 66.1988 344.012 65.1501L344.667 61.6107C344.798 61.2175 344.667 60.8242 344.274 60.562L341.654 58.0714C340.868 57.416 341.261 56.1051 342.309 55.974L345.846 55.4497C346.239 55.4497 346.632 55.1875 346.763 54.7942L348.335 51.5171C348.99 50.5995 350.3 50.5995 350.824 51.5171Z" fill="#1D60A6"/>
<path d="M377.025 51.5171L378.597 54.7942C378.728 55.1875 379.121 55.4497 379.514 55.4497L383.051 55.974C384.099 56.1051 384.492 57.416 383.706 58.0714L381.086 60.562C380.824 60.8242 380.693 61.2175 380.693 61.6107L381.348 65.1501C381.479 66.1988 380.431 66.9853 379.514 66.4609L376.37 64.7568C375.977 64.6257 375.584 64.6257 375.191 64.7568L372.047 66.4609C371.13 66.9853 370.082 66.1988 370.213 65.1501L370.868 61.6107C370.999 61.2175 370.868 60.8242 370.475 60.562L367.855 58.0714C367.069 57.416 367.462 56.1051 368.51 55.974L372.047 55.4497C372.44 55.4497 372.833 55.1875 372.964 54.7942L374.536 51.5171C375.191 50.5995 376.501 50.5995 377.025 51.5171Z" fill="#1D60A6"/>
<path d="M403.226 51.5171L404.798 54.7942C404.929 55.1875 405.322 55.4497 405.715 55.4497L409.252 55.974C410.3 56.1051 410.693 57.416 409.907 58.0714L407.287 60.562C407.025 60.8242 406.894 61.2175 406.894 61.6107L407.549 65.1501C407.68 66.1988 406.632 66.9853 405.715 66.4609L402.571 64.7568C402.178 64.6257 401.785 64.6257 401.392 64.7568L398.248 66.4609C397.331 66.9853 396.283 66.1988 396.414 65.1501L397.069 61.6107C397.2 61.2175 397.069 60.8242 396.676 60.562L394.056 58.0714C393.27 57.416 393.663 56.1051 394.711 55.974L398.248 55.4497C398.641 55.4497 399.034 55.1875 399.165 54.7942L400.737 51.5171C401.523 50.5995 402.833 50.5995 403.226 51.5171Z" fill="#1D60A6"/>
<path d="M429.426 51.5171L430.998 54.7942C431.129 55.1875 431.522 55.4497 431.915 55.4497L435.452 55.974C436.5 56.1051 436.893 57.416 436.107 58.0714L433.487 60.562C433.225 60.8242 433.094 61.2175 433.094 61.6107L433.749 65.1501C433.88 66.1988 432.832 66.9853 431.915 66.4609L428.771 64.7568C428.378 64.6257 427.985 64.6257 427.592 64.7568L424.448 66.4609C423.531 66.9853 422.483 66.1988 422.614 65.1501L423.269 61.6107C423.4 61.2175 423.269 60.8242 422.876 60.562L420.256 58.0714C419.47 57.416 419.994 56.1051 420.911 55.974L424.448 55.4497C424.841 55.4497 425.234 55.1875 425.365 54.7942L426.937 51.5171C427.723 50.5995 429.033 50.5995 429.426 51.5171Z" fill="#1D60A6"/>
<path d="M455.626 51.5171L457.198 54.7942C457.329 55.1875 457.722 55.4497 458.115 55.4497L461.653 55.974C462.701 56.1051 463.094 57.416 462.308 58.0714L459.687 60.562C459.425 60.8242 459.294 61.2175 459.294 61.6107L459.949 65.1501C460.08 66.1988 459.032 66.9853 458.115 66.4609L454.971 64.7568C454.578 64.6257 454.185 64.6257 453.792 64.7568L450.648 66.4609C449.731 66.9853 448.683 66.1988 448.814 65.1501L449.469 61.6107C449.6 61.2175 449.469 60.8242 449.076 60.562L446.456 58.0714C445.67 57.416 446.194 56.1051 447.111 55.974L450.648 55.4497C451.041 55.4497 451.434 55.1875 451.565 54.7942L453.137 51.5171C453.923 50.5995 455.233 50.5995 455.626 51.5171Z" fill="#D9D9D9"/>
<path d="M461.784 113.914H348.466C344.274 113.914 340.737 110.506 340.737 106.18V81.5359C340.737 77.3411 344.143 73.8018 348.466 73.8018H461.784C465.976 73.8018 469.513 77.21 469.513 81.5359V106.311C469.513 110.506 466.107 113.914 461.784 113.914Z" fill="#F6F6F6"/>
<path d="M454.579 25.0376H372.702V29.8878H454.579V25.0376Z" fill="#D9D9D9"/>
<path d="M405.715 33.5581H372.702V38.4083H405.715V33.5581Z" fill="#D9D9D9"/>
<path d="M455.888 85.7307H352.92V90.5809H455.888V85.7307Z" fill="#D9D9D9"/>
<path d="M428.378 95.3H352.92V100.15H428.378V95.3Z" fill="#D9D9D9"/>
<path d="M133.885 208.428H18.6024C8.51522 208.428 0.393066 216.555 0.393066 226.649V269.907C0.393066 280.001 8.51522 288.128 18.6024 288.128H85.1516C88.1647 294.683 93.7978 299.926 100.217 303.334C105.457 306.218 111.09 307.922 116.985 309.233C119.212 309.758 120.915 307.136 119.605 305.301C115.675 300.319 113.055 294.289 111.876 287.997H134.016C144.103 287.997 152.225 279.87 152.225 269.776V226.518C152.094 216.555 143.841 208.428 133.885 208.428Z" fill="#FEFEFE"/>
<path d="M133.884 208.428C133.884 208.428 134.671 208.428 136.112 208.559C137.553 208.69 139.78 209.214 142.4 210.525C144.889 211.836 147.902 214.195 149.998 217.866C151.046 219.701 151.832 221.93 152.094 224.289C152.356 226.649 152.225 229.27 152.225 231.892C152.225 242.641 152.225 255.75 152.225 270.694C152.094 274.495 150.784 278.297 148.295 281.443C145.806 284.589 142.138 287.08 138.077 287.997C135.981 288.522 133.884 288.522 131.657 288.522C129.561 288.522 127.334 288.522 125.107 288.522C120.784 288.522 116.199 288.522 111.614 288.522L111.876 288.128C112.793 292.979 114.627 297.698 117.378 302.155C118.033 303.203 118.819 304.252 119.605 305.301C119.998 305.825 120.26 306.612 120.129 307.398C119.998 308.185 119.605 308.84 118.95 309.233C118.295 309.627 117.509 309.889 116.854 309.758C116.199 309.627 115.544 309.495 114.889 309.233C113.579 308.971 112.269 308.578 110.959 308.185C105.719 306.612 100.61 304.514 95.8938 301.237C91.3087 297.96 87.1166 293.634 84.7586 288.391H85.1516C69.8243 288.391 53.973 288.391 37.7287 288.391C33.6676 288.391 29.6065 288.391 25.6765 288.391C23.7114 288.391 21.6154 288.391 19.6504 288.391C18.6023 288.391 17.6853 288.391 16.6373 288.259C15.5893 288.128 14.6723 287.997 13.6243 287.735C11.6592 287.211 9.82518 286.293 8.12215 285.244C6.41912 284.065 4.97809 282.754 3.79907 281.181C1.31002 278.035 0 274.102 0 270.301C0 254.963 0 240.282 0 226.124C0 224.289 0.393007 222.585 0.917017 220.881C1.44103 219.177 2.22704 217.604 3.27506 216.162C4.32308 214.72 5.5021 213.409 6.81213 212.36C8.12215 211.312 9.56318 210.394 11.1352 209.739C12.7072 209.083 14.2793 208.559 15.9823 208.428C17.6853 208.166 19.2574 208.166 20.8294 208.166C24.1044 208.166 27.2485 208.166 30.3926 208.166C42.8378 208.166 54.497 208.166 65.1082 208.166C86.3306 208.166 103.492 208.297 115.413 208.297C121.308 208.297 125.893 208.297 129.037 208.297C130.609 208.297 131.788 208.297 132.574 208.297C133.491 208.297 133.884 208.428 133.884 208.428C133.884 208.428 133.491 208.428 132.705 208.428C131.919 208.428 130.74 208.428 129.168 208.428C126.024 208.428 121.439 208.428 115.544 208.428C103.623 208.428 86.4616 208.428 65.2392 208.559C54.628 208.559 42.9688 208.559 30.5236 208.559C27.3795 208.559 24.2354 208.559 20.9604 208.559C19.3884 208.559 17.6853 208.559 16.1133 208.821C14.5413 208.952 12.9692 209.476 11.3972 210.132C9.95618 210.787 8.51516 211.705 7.20513 212.754C5.89511 213.802 4.84709 215.113 3.79907 216.424C2.88205 217.866 2.09604 219.308 1.57203 221.012C1.04802 222.585 0.786015 224.289 0.655012 226.124C0.655012 240.151 0.655012 254.963 0.655012 270.169C0.786015 273.971 1.96504 277.641 4.32308 280.656C5.5021 282.229 6.94313 283.54 8.51516 284.589C10.0872 285.638 11.9212 286.424 13.7553 286.949C14.6723 287.211 15.5893 287.342 16.6373 287.473C17.5543 287.473 18.6023 287.604 19.5194 287.604C21.4844 287.604 23.4494 287.604 25.5455 287.604C29.6065 287.604 33.5366 287.604 37.5977 287.604C53.842 287.604 69.6933 287.604 85.0206 287.604H85.2826L85.4136 287.735C87.7716 292.979 91.8327 297.173 96.4178 300.319C101.003 303.465 106.112 305.694 111.221 307.136C112.531 307.529 113.841 307.922 115.151 308.185C115.806 308.316 116.461 308.578 117.116 308.578C117.64 308.709 118.295 308.578 118.819 308.185C119.343 307.791 119.605 307.267 119.736 306.743C119.867 306.218 119.605 305.563 119.343 305.17C118.557 304.121 117.771 303.072 117.116 301.892C114.365 297.436 112.531 292.585 111.614 287.735L111.483 287.342H111.876C116.461 287.342 120.915 287.342 125.369 287.342C127.596 287.342 129.692 287.342 131.919 287.342C134.015 287.342 136.112 287.342 138.208 286.817C142.269 285.9 145.806 283.54 148.164 280.525C150.653 277.51 151.963 273.709 152.094 270.038C152.094 255.095 152.225 242.117 152.225 231.368C152.225 228.746 152.356 226.124 152.094 223.765C151.832 221.405 151.046 219.308 150.129 217.473C148.164 213.802 145.282 211.443 142.793 210.132C140.304 208.821 138.077 208.297 136.636 208.166C135.85 208.034 135.326 208.034 134.932 208.034C134.015 208.428 133.884 208.428 133.884 208.428Z" fill="#100E21"/>
<path d="M40.7419 235.956L43.0999 240.806C43.362 241.331 43.886 241.724 44.541 241.855L49.9121 242.641C51.4841 242.904 52.0081 244.739 50.9601 245.787L47.03 249.589C46.637 249.982 46.375 250.638 46.506 251.293L47.423 256.668C47.685 258.241 46.113 259.42 44.672 258.634L39.8249 256.143C39.3009 255.881 38.6459 255.881 38.1219 256.143L33.2748 258.634C31.9647 259.289 30.2617 258.241 30.5237 256.668L31.4407 251.293C31.5717 250.638 31.3097 250.113 30.9167 249.589L26.9866 245.787C25.9386 244.739 26.4626 242.772 28.0347 242.641L33.4058 241.855C34.0608 241.724 34.5848 241.331 34.8468 240.806L37.2048 235.956C38.1219 234.514 40.0869 234.514 40.7419 235.956Z" fill="#1D60A6"/>
<path d="M80.4353 235.956L82.7933 240.806C83.0553 241.331 83.5793 241.724 84.2343 241.855L89.6054 242.641C91.1775 242.904 91.7015 244.739 90.6534 245.787L86.7234 249.589C86.3304 249.982 86.0684 250.638 86.1994 251.293L87.1164 256.668C87.3784 258.241 85.8064 259.42 84.3653 258.634L79.5182 256.143C78.9942 255.881 78.3392 255.881 77.8152 256.143L72.9681 258.634C71.6581 259.289 69.9551 258.241 70.2171 256.668L71.1341 251.293C71.2651 250.638 71.0031 250.113 70.6101 249.589L66.68 245.787C65.632 244.739 66.156 242.772 67.728 242.641L73.0991 241.855C73.7541 241.724 74.2781 241.331 74.5402 240.806L76.8982 235.956C77.8152 234.514 79.7803 234.514 80.4353 235.956Z" fill="#1D60A6"/>
<path d="M120.26 235.956L122.618 240.806C122.881 241.331 123.405 241.724 124.06 241.855L129.431 242.641C131.003 242.904 131.527 244.739 130.479 245.787L126.549 249.589C126.156 249.982 125.894 250.638 126.025 251.293L126.942 256.668C127.204 258.241 125.632 259.42 124.191 258.634L119.343 256.143C118.819 255.881 118.164 255.881 117.64 256.143L112.793 258.634C111.483 259.289 109.78 258.241 110.042 256.668L110.959 251.293C111.09 250.638 110.828 250.113 110.435 249.589L106.505 245.787C105.457 244.739 105.981 242.772 107.553 242.641L112.924 241.855C113.579 241.724 114.103 241.331 114.365 240.806L116.723 235.956C117.509 234.514 119.605 234.514 120.26 235.956Z" fill="#1D60A6"/>
<path d="M537.765 507.568V460.507C537.765 442.286 522.961 427.605 504.883 427.605H344.798C326.589 427.605 311.917 442.417 311.917 460.507V542.568C311.917 560.789 326.72 575.47 344.798 575.47H504.883C523.092 575.47 537.765 560.658 537.765 542.568V531.556C542.219 532.605 546.935 532.212 551.127 530.508C556.891 528.017 561.345 522.905 563.179 517.006C554.009 520.414 542.612 516.219 537.765 507.568Z" fill="#FEFEFE"/>
<path d="M537.765 507.568C537.765 507.568 538.158 508.092 538.813 509.141C539.599 510.189 540.778 511.631 542.743 513.204C544.708 514.777 547.328 516.35 550.865 517.268C554.402 518.186 558.725 518.448 563.179 516.744L563.441 516.613L563.31 516.875C562.131 521.069 559.249 525.526 554.664 528.541C550.21 531.687 543.922 532.998 537.634 531.556L537.896 531.425C537.896 533.523 537.896 535.489 537.896 537.717C537.896 539.815 538.027 542.043 537.765 544.272C537.503 548.729 536.455 553.317 534.228 557.643C532.132 561.968 528.856 565.901 524.795 568.916C520.734 572.062 515.756 574.291 510.385 575.208C509.73 575.339 509.075 575.47 508.42 575.47C507.765 575.601 507.11 575.601 506.324 575.601C504.883 575.733 503.573 575.733 502.132 575.733C499.381 575.733 496.499 575.733 493.748 575.733C488.115 575.733 482.22 575.733 476.324 575.733C464.403 575.733 451.958 575.733 438.989 575.733C413.181 575.733 385.409 575.733 356.195 575.733C352.527 575.733 348.859 575.733 345.191 575.733C341.523 575.733 337.724 575.208 334.187 574.028C326.982 571.669 320.694 566.688 316.633 560.133C314.536 556.856 313.095 553.317 312.309 549.384C311.523 545.583 311.523 541.65 311.523 537.717C311.523 529.983 311.523 522.118 311.523 514.253C311.523 501.669 311.523 489.215 311.523 477.024C311.523 474.009 311.523 470.863 311.523 467.848C311.523 466.275 311.523 464.833 311.523 463.26C311.523 461.687 311.523 460.245 311.654 458.672C311.916 452.511 314.012 446.612 317.288 441.631C318.991 439.14 320.956 436.912 323.314 434.946C325.541 433.11 328.03 431.406 330.781 430.226C332.091 429.571 333.532 429.178 334.842 428.653C335.497 428.391 336.283 428.26 336.938 428.129C337.593 427.998 338.379 427.736 339.034 427.736L341.13 427.343C341.785 427.211 342.571 427.211 343.357 427.211C344.798 427.08 346.239 427.08 347.68 427.08C359.077 427.08 370.213 427.08 381.217 427.08C424.841 427.08 464.01 427.08 497.023 427.211C501.084 427.211 505.145 427.08 509.075 427.474C513.005 427.867 516.673 429.178 520.079 430.882C523.354 432.586 526.367 434.814 528.725 437.305C531.215 439.796 533.049 442.68 534.621 445.564C536.193 448.447 536.979 451.594 537.634 454.609C537.765 455.395 537.896 456.05 538.027 456.837C538.027 457.624 538.158 458.279 538.158 459.065C538.289 460.507 538.158 461.949 538.158 463.391C538.158 469.028 538.158 474.14 538.158 478.728C538.158 487.905 538.158 495.114 538.158 499.964C538.158 502.324 538.158 504.29 538.158 505.47C537.765 507.043 537.765 507.568 537.765 507.568C537.765 507.568 537.765 506.912 537.765 505.732C537.765 504.421 537.765 502.586 537.765 500.227C537.765 495.376 537.765 488.167 537.765 478.991C537.765 474.403 537.765 469.29 537.765 463.654C537.765 462.212 537.765 460.77 537.634 459.328C537.634 458.541 537.503 457.886 537.503 457.099C537.372 456.313 537.241 455.657 537.11 454.871C536.586 451.856 535.669 448.841 534.228 445.957C532.787 443.073 530.821 440.189 528.463 437.698C525.974 435.208 523.092 432.979 519.817 431.406C516.542 429.702 512.874 428.522 508.944 428.129C505.145 427.736 501.084 427.867 496.892 427.867C463.879 427.867 424.71 427.867 381.086 427.998C370.213 427.998 359.077 427.998 347.549 427.998C346.108 427.998 344.667 427.998 343.226 428.129C342.571 428.129 341.785 428.129 341.13 428.26L339.034 428.522C338.379 428.653 337.593 428.784 336.938 428.916C336.283 429.047 335.497 429.309 334.842 429.44C333.532 429.964 332.091 430.357 330.781 431.013C328.161 432.193 325.803 433.897 323.445 435.732C321.218 437.567 319.253 439.796 317.55 442.286C314.274 447.137 312.309 452.904 312.047 458.934C311.916 460.376 311.916 461.949 311.916 463.391C311.916 464.964 311.916 466.406 311.916 467.979C311.916 470.994 311.916 474.009 311.916 477.155C311.916 489.478 311.916 501.8 311.916 514.384C311.916 522.249 311.916 530.114 311.916 537.849C311.916 541.781 311.785 545.583 312.702 549.384C313.488 553.055 314.929 556.725 317.026 559.871C321.087 566.294 327.244 571.145 334.318 573.504C341.392 575.995 348.859 575.077 356.195 575.208C385.409 575.208 413.181 575.208 438.989 575.208C451.958 575.208 464.403 575.208 476.324 575.208C482.351 575.208 488.115 575.208 493.748 575.208C496.63 575.208 499.381 575.208 502.132 575.208C503.573 575.208 504.883 575.208 506.193 575.077C506.848 575.077 507.503 575.077 508.158 574.946C508.813 574.815 509.468 574.684 510.123 574.684C515.363 573.897 520.21 571.538 524.271 568.523C528.332 565.508 531.476 561.575 533.573 557.38C535.669 553.186 536.848 548.598 537.11 544.272C537.241 542.043 537.11 539.946 537.241 537.717C537.241 535.62 537.241 533.523 537.241 531.425V531.163H537.503C543.66 532.605 549.817 531.294 554.271 528.279C558.725 525.264 561.607 520.938 562.786 516.744L562.917 516.875C558.463 518.579 554.009 518.186 550.472 517.268C546.935 516.35 544.184 514.646 542.35 513.204C540.385 511.631 539.206 510.058 538.551 509.141C538.158 508.223 537.765 507.568 537.765 507.568Z" fill="#100E21"/>
<path d="M500.167 478.991H349.514V497.212H500.167V478.991Z" fill="#D9D9D9"/>
<path d="M466.63 509.796H349.514V528.017H466.63V509.796Z" fill="#D9D9D9"/>
<path d="M328.423 275.937C328.423 275.937 323.445 255.75 319.777 249.327C316.109 242.903 307.724 233.859 305.366 235.432C303.008 237.005 305.89 239.757 307.2 242.248L310.738 246.574L311.917 250.244C311.917 250.244 307.331 250.769 307.462 254.832C307.462 254.832 304.449 254.57 304.449 258.372C304.449 258.372 301.436 259.551 302.353 263.484C303.27 267.286 304.973 267.941 306.021 267.286C306.545 266.892 307.069 265.581 307.069 265.581C307.069 265.581 311 272.922 313.227 274.364C314.799 275.282 316.109 276.068 316.109 276.068L316.371 281.836C316.371 281.836 318.336 284.851 323.576 279.608C328.816 274.233 328.423 275.937 328.423 275.937Z" fill="#FFDF99"/>
<path d="M322.921 260.338C322.921 260.338 322.659 259.814 322.266 258.765C321.873 257.847 321.349 256.405 320.563 254.701C320.17 253.915 319.646 252.997 319.122 252.08C318.467 251.162 317.812 250.244 317.026 249.196C316.24 248.278 315.323 247.229 314.144 247.098C313.62 247.098 312.965 247.36 312.703 247.885C312.441 248.409 312.572 249.065 312.703 249.72C312.965 251.031 313.62 252.342 314.144 253.653C314.406 254.308 314.799 254.832 314.93 255.619C315.061 256.274 315.061 256.93 315.061 257.585C315.061 258.896 314.93 260.076 315.192 260.993C315.454 262.042 316.109 262.829 316.764 263.484C318.074 264.795 319.515 265.45 320.432 265.844C321.349 266.237 322.004 266.499 321.873 266.499C321.873 266.499 321.218 266.499 320.301 266.106C319.253 265.713 317.812 265.188 316.371 263.877C315.716 263.222 314.93 262.304 314.668 261.256C314.275 260.076 314.537 258.896 314.406 257.716C314.406 257.061 314.406 256.405 314.275 255.881C314.144 255.357 313.882 254.701 313.489 254.046C312.965 252.735 312.31 251.555 312.048 249.982C311.916 249.196 311.786 248.409 312.179 247.623C312.31 247.229 312.703 246.967 313.096 246.705C313.489 246.574 313.882 246.443 314.275 246.443C315.061 246.443 315.716 246.836 316.24 247.36C316.764 247.754 317.157 248.278 317.55 248.802C318.336 249.851 318.991 250.769 319.646 251.686C320.17 252.604 320.694 253.653 321.087 254.439C321.873 256.143 322.266 257.585 322.659 258.634C322.921 259.683 323.052 260.338 322.921 260.338Z" fill="#FFBE33"/>
<path d="M307.855 255.095C307.855 255.095 308.772 255.881 309.689 257.585C310.082 258.372 310.606 259.42 310.868 260.731C310.999 262.042 310.868 263.484 309.951 264.795C309.427 265.45 308.772 265.844 307.986 265.975C307.462 265.975 307.069 265.713 306.938 265.45C306.676 265.188 306.545 264.795 306.414 264.533C305.89 263.353 305.497 262.304 305.235 261.387C304.711 259.552 304.58 258.372 304.711 258.372C304.842 258.372 305.104 259.552 305.759 261.256C306.021 262.173 306.545 263.222 307.069 264.271C307.331 264.795 307.593 265.319 308.117 265.319C308.641 265.319 309.165 264.926 309.558 264.402C310.344 263.353 310.475 261.911 310.475 260.862C310.344 259.683 309.951 258.634 309.558 257.847C308.379 256.012 307.724 255.095 307.855 255.095Z" fill="#FFBE33"/>
<path d="M314.668 260.207C314.799 260.207 314.799 260.6 314.406 261.256C314.275 261.518 314.013 261.911 313.751 262.173C313.62 262.304 313.358 262.435 313.096 262.567C312.965 262.567 312.703 262.698 312.572 262.567C312.572 262.567 312.572 262.567 312.441 262.567C312.048 262.698 311.786 262.435 311.524 262.304C311.262 262.173 311.262 261.911 311.131 261.78C310.869 261.387 310.738 261.125 310.607 260.731C310.345 260.076 310.345 259.683 310.476 259.683C310.607 259.683 310.738 259.945 311 260.469C311.131 260.731 311.393 260.993 311.655 261.256C311.917 261.518 312.179 261.911 312.31 261.78C312.441 261.78 312.572 261.649 312.834 261.78V261.911C312.834 261.911 312.834 261.911 312.965 261.911C313.096 261.911 313.227 261.78 313.358 261.649C313.62 261.387 313.882 261.125 314.013 260.993C314.406 260.469 314.537 260.076 314.668 260.207Z" fill="#FFBE33"/>
<path d="M384.361 536.276L377.549 573.373L363.663 601.163C362.614 603.13 363.531 605.62 365.628 606.407C366.807 606.931 368.117 606.8 369.165 606.145C375.977 601.95 400.736 586.22 400.998 583.467C401.391 580.321 410.692 544.796 410.692 544.796L384.361 536.276Z" fill="#100E21"/>
<path d="M365.627 606.538L401.522 581.107L401.26 582.68C400.998 583.991 400.212 585.302 399.164 586.088C396.282 588.317 388.029 594.478 369.295 606.276C368.247 606.931 366.806 607.062 365.627 606.538Z" fill="#D9D9D9"/>
<g opacity="0.6">
<path d="M396.282 571.538C395.234 571.931 394.579 573.373 394.972 574.422C395.496 575.864 397.723 576.519 398.771 574.815C399.688 573.373 398.771 571.407 397.068 571.276C396.675 571.276 396.282 571.276 396.02 571.538" fill="#FEFEFE"/>
</g>
<path d="M378.728 590.283C378.466 590.414 377.68 588.448 375.452 587.399C373.225 586.219 371.129 586.744 371.129 586.613C371.129 586.482 371.522 586.219 372.439 586.088C373.356 585.957 374.535 586.088 375.845 586.744C377.025 587.399 377.942 588.317 378.335 589.103C378.859 589.759 378.859 590.283 378.728 590.283Z" fill="#FEFEFE"/>
<path d="M374.798 595.396C374.536 595.527 373.619 594.085 371.916 593.167C370.082 592.25 368.379 592.25 368.379 591.987C368.248 591.725 370.213 591.332 372.309 592.512C374.274 593.429 375.06 595.265 374.798 595.396Z" fill="#FEFEFE"/>
<path d="M384.23 585.302C384.099 585.433 382.265 583.598 379.252 582.418C376.37 581.238 373.75 581.238 373.75 580.976C373.75 580.714 376.501 580.321 379.645 581.631C382.789 582.811 384.492 585.171 384.23 585.302Z" fill="#FEFEFE"/>
<path d="M386.195 578.354C386.064 578.616 384.23 577.306 381.61 576.65C378.99 575.995 376.763 576.257 376.763 575.995C376.763 575.733 378.99 575.208 381.872 575.864C384.623 576.519 386.457 578.223 386.195 578.354Z" fill="#FEFEFE"/>
<path d="M397.985 543.879L409.382 570.227C409.382 570.227 386.457 590.676 388.029 595.789L440.037 575.47L423.924 533.654L397.985 543.879Z" fill="#100E21"/>
<path d="M440.037 575.47L438.465 571.407L389.077 592.381C389.077 592.381 387.112 594.347 388.029 595.789L440.037 575.47Z" fill="#D9D9D9"/>
<path d="M408.465 570.358C408.596 570.62 409.906 570.227 411.478 570.62C413.05 570.882 414.098 571.8 414.36 571.538C414.622 571.407 413.574 569.965 411.74 569.703C409.775 569.178 408.334 570.096 408.465 570.358Z" fill="#FEFEFE"/>
<path d="M403.88 574.684C403.88 574.946 405.19 574.946 406.5 575.733C407.81 576.388 408.465 577.568 408.727 577.437C408.989 577.437 408.596 575.864 407.024 574.946C405.321 574.028 403.88 574.422 403.88 574.684Z" fill="#FEFEFE"/>
<path d="M403.356 582.418C403.618 582.418 403.487 580.976 402.308 579.796C401.129 578.616 399.688 578.616 399.688 578.879C399.688 579.141 400.736 579.534 401.653 580.583C402.57 581.5 403.094 582.549 403.356 582.418Z" fill="#FEFEFE"/>
<path d="M479.862 423.803C479.862 423.803 477.241 440.582 464.927 443.728C452.482 447.006 428.771 461.294 428.771 461.294C428.771 461.294 426.806 495.245 421.827 512.287C416.849 529.328 405.845 566.425 405.845 566.425L377.287 560.002C377.287 560.002 392.614 460.901 395.365 442.286C398.116 423.672 424.316 407.024 424.316 407.024L431.653 376.35L465.058 375.301C465.058 375.432 482.351 408.335 479.862 423.803Z" fill="#100E21"/>
<path d="M396.675 373.073C396.937 374.383 385.54 390.376 383.837 395.62C383.837 395.62 352.92 416.856 359.077 455.657C366.806 503.766 400.998 559.609 401.26 557.643L430.736 545.32C430.736 545.32 408.465 462.212 409.251 461.294C410.037 460.376 424.84 408.597 424.84 408.597L431.653 376.219L396.675 373.073Z" fill="#100E21"/>
<path d="M446.325 398.241C446.325 398.241 446.063 398.372 445.408 398.503C444.753 398.634 443.836 398.897 442.657 399.159C440.299 399.945 436.762 401.256 432.438 403.223C430.342 404.271 427.853 405.451 425.364 406.762C424.054 407.417 422.875 408.335 421.565 409.253C420.255 410.17 418.945 411.219 417.635 412.267C415.015 414.365 412.264 416.724 409.513 419.477C406.762 422.23 404.011 425.245 401.653 428.653C399.295 432.193 397.068 436.125 396.02 440.713C395.889 441.238 395.758 441.893 395.627 442.417C395.496 442.942 395.496 443.597 395.365 444.122C395.234 445.301 394.972 446.481 394.841 447.661C394.448 450.02 394.055 452.511 393.662 455.002C392.09 464.964 390.518 475.582 388.815 486.856C385.409 509.272 381.61 534.047 377.548 560.133L377.286 559.74C379.513 560.264 381.741 560.789 384.099 561.313C391.435 562.886 398.64 564.59 405.714 566.163L405.321 566.425C411.216 546.631 416.849 527.755 421.827 510.32C424.054 501.537 425.102 492.886 426.15 484.758C427.067 476.631 427.722 468.766 428.246 461.556V461.425L428.377 461.294C437.286 456.05 445.408 451.725 452.875 448.316C456.543 446.612 460.08 445.17 463.486 444.122C464.403 443.859 465.189 443.597 465.975 443.335C466.761 443.073 467.547 442.68 468.202 442.417C469.643 441.631 470.822 440.713 471.87 439.796C473.966 437.829 475.276 435.601 476.324 433.635C477.372 431.668 478.027 429.964 478.551 428.522C479.075 427.08 479.337 425.9 479.468 425.245C479.599 424.459 479.73 424.065 479.73 424.065C479.73 424.065 479.599 425.638 478.682 428.522C478.289 429.964 477.503 431.799 476.586 433.766C475.538 435.732 474.228 437.96 472.132 439.927C471.084 440.975 469.905 441.893 468.464 442.68C467.809 443.073 467.023 443.466 466.237 443.728C465.451 443.99 464.665 444.253 463.748 444.515C460.473 445.564 456.936 447.005 453.137 448.71C445.801 452.118 437.548 456.575 428.77 461.818L428.901 461.556C428.508 468.766 427.853 476.631 426.936 484.758C426.019 492.886 424.84 501.669 422.613 510.451C417.635 527.886 412.002 546.762 406.107 566.688L405.976 566.95L405.714 566.819C398.64 565.246 391.435 563.673 384.099 561.968C381.741 561.444 379.382 560.92 377.286 560.395L377.024 560.264V560.002C381.085 533.916 384.885 509.141 388.291 486.725C389.994 475.451 391.697 464.833 393.269 454.871C393.662 452.38 394.055 449.889 394.448 447.53C394.579 446.35 394.841 445.17 394.972 443.99C395.103 443.466 395.103 442.811 395.234 442.286C395.365 441.762 395.496 441.107 395.627 440.582C396.675 435.994 398.902 431.93 401.391 428.391C403.88 424.852 406.631 421.837 409.382 419.084C412.133 416.331 414.884 413.972 417.635 411.874C418.945 410.826 420.255 409.777 421.565 408.99C422.875 408.073 424.054 407.155 425.364 406.5C427.984 405.189 430.342 404.009 432.438 402.96C436.762 400.994 440.299 399.683 442.657 399.028C444.884 398.241 446.325 398.241 446.325 398.241Z" fill="#FFBE33"/>
<path d="M405.714 401.649C405.845 401.518 409.12 403.091 412.919 405.582C416.718 408.073 419.469 410.563 419.338 410.694C419.207 410.826 416.325 408.728 412.526 406.237C408.727 403.616 405.583 401.781 405.714 401.649Z" fill="#FFBE33"/>
<path d="M429.425 448.841C429.556 448.841 430.08 451.987 429.556 455.788C429.163 459.59 427.984 462.605 427.853 462.474C427.722 462.474 428.508 459.459 428.901 455.657C429.294 451.987 429.163 448.841 429.425 448.841Z" fill="#FFBE33"/>
<path d="M458.508 253.653C461.129 245.525 463.749 237.398 466.5 229.271L472.395 218.128C476.587 215.638 485.495 221.012 488.508 224.814C491.521 228.746 492.045 233.99 491.39 238.84C490.866 242.117 489.949 245.525 491.39 248.409C492.962 251.818 497.285 253.26 498.595 256.799C499.381 259.027 498.595 261.649 497.154 263.615C495.713 265.582 493.617 267.024 491.652 268.335C489.818 269.514 487.984 270.694 485.757 271.218C483.53 271.743 481.172 271.612 479.469 270.301C479.338 273.578 476.456 276.331 473.312 276.593C470.168 276.855 466.893 274.889 465.321 272.136C463.749 269.383 463.618 265.844 464.666 262.829C463.749 264.402 461.391 264.795 459.818 263.746C458.246 262.698 457.46 260.731 457.46 258.896C457.46 257.192 457.984 255.357 458.508 253.653Z" fill="#100E21"/>
<path d="M471.346 218.39C467.416 208.69 460.342 201.611 450.386 198.334C444.753 196.499 442.133 196.892 437.679 196.761C433.225 196.63 428.902 197.679 425.496 200.3C421.304 203.447 417.504 207.248 415.408 212.098C413.312 217.08 411.085 221.93 409.906 227.173C408.727 232.417 408.465 237.922 410.168 243.035L422.483 249.327C429.557 251.817 436.762 254.308 444.229 254.832C451.696 255.357 459.687 253.784 465.32 248.802C473.312 241.986 475.277 228.091 471.346 218.39Z" fill="#100E21"/>
<path d="M440.037 201.48L444.753 202.398L459.949 214.72C462.438 215.637 463.748 218.259 463.093 220.75L444.36 274.758L416.063 275.806L419.862 262.435C419.862 262.435 408.596 257.716 409.906 243.166C410.561 235.956 413.836 224.682 416.718 215.506C419.207 207.379 429.819 198.334 440.037 201.48Z" fill="#FFDF99"/>
<path d="M431.129 246.443C431.26 245.656 430.998 245.001 430.736 244.345C429.95 243.166 428.509 242.641 427.199 243.035C425.889 243.428 424.841 244.739 424.579 246.312C424.972 247.36 425.627 248.147 426.675 248.671C426.806 248.671 426.937 248.802 427.199 248.802C427.985 249.065 428.902 249.065 429.688 248.671C430.343 248.147 430.998 247.36 431.129 246.443Z" fill="#FFBE33"/>
<path d="M417.504 228.484C417.242 229.402 417.766 230.45 418.814 230.713C419.731 230.975 420.779 230.45 421.041 229.533C421.303 228.615 420.779 227.566 419.731 227.304C418.814 227.042 417.766 227.566 417.504 228.484Z" fill="#100E21"/>
<path d="M418.29 221.143C418.421 221.405 420.124 220.75 421.958 221.274C423.923 221.799 425.102 223.11 425.364 222.847C425.495 222.716 425.364 222.323 424.84 221.668C424.316 221.012 423.399 220.357 422.22 220.095C421.041 219.832 419.862 219.963 419.207 220.226C418.552 220.619 418.159 221.012 418.29 221.143Z" fill="#100E21"/>
<path d="M425.758 239.758C425.758 239.627 424.71 239.102 422.745 238.447C422.221 238.316 421.828 238.053 421.828 237.66C421.828 237.267 422.09 236.743 422.483 236.349C423.269 235.301 424.055 234.121 424.841 232.941C428.247 228.091 430.736 224.158 430.605 224.027C430.474 223.896 427.461 227.698 424.186 232.548C423.4 233.728 422.614 234.907 421.828 235.956C421.566 236.48 421.042 237.005 421.042 237.791C421.042 238.185 421.435 238.578 421.697 238.709C421.959 238.84 422.221 238.971 422.483 238.971C424.579 239.495 425.758 239.889 425.758 239.758Z" fill="#100E21"/>
<path d="M419.732 262.436C419.732 262.436 428.902 265.451 439.644 262.173C439.644 262.173 432.308 270.956 418.684 266.106L419.732 262.436Z" fill="#FFBE33"/>
<path d="M431.129 242.51C430.867 242.379 430.343 244.477 428.116 245.525C426.02 246.574 423.793 245.787 423.662 246.05C423.662 246.181 424.055 246.574 424.972 246.836C425.889 247.098 427.33 247.098 428.64 246.574C429.95 245.919 430.736 244.87 430.998 243.952C431.391 243.166 431.26 242.51 431.129 242.51Z" fill="#100E21"/>
<path d="M421.041 214.72C421.303 215.244 422.744 215.375 424.447 215.9C426.151 216.424 427.461 217.342 427.985 216.948C428.247 216.817 428.116 216.293 427.592 215.638C427.068 214.982 426.282 214.327 425.103 213.933C423.923 213.54 422.744 213.54 422.089 213.802C421.303 214.065 420.91 214.458 421.041 214.72Z" fill="#100E21"/>
<path d="M437.81 233.859C437.548 234.776 436.631 235.432 435.583 235.169C434.535 234.907 434.011 233.99 434.273 233.072C434.535 232.154 435.452 231.499 436.5 231.761C437.417 232.023 438.072 232.941 437.81 233.859Z" fill="#100E21"/>
<path d="M444.098 228.353C443.836 228.484 442.788 227.173 440.823 226.518C438.989 225.993 437.286 226.518 437.155 226.256C437.024 226.125 437.417 225.731 438.203 225.469C438.989 225.207 440.037 225.076 441.216 225.469C442.395 225.862 443.312 226.518 443.705 227.173C444.098 227.829 444.229 228.353 444.098 228.353Z" fill="#100E21"/>
<path d="M444.884 221.93C444.36 222.192 443.05 221.405 441.347 220.881C439.644 220.226 437.941 220.226 437.81 219.701C437.679 219.439 438.072 219.046 438.858 218.915C439.644 218.652 440.823 218.652 442.002 219.046C443.181 219.439 444.098 220.094 444.622 220.75C445.015 221.274 445.015 221.799 444.884 221.93Z" fill="#100E21"/>
<path d="M453.399 243.035C453.661 241.986 455.495 239.889 456.543 239.889C459.425 240.151 464.272 241.593 462.569 248.54C460.211 258.11 451.172 253.784 451.172 253.522C451.172 253.391 452.482 246.574 453.399 243.035Z" fill="#FFDF99"/>
<path d="M454.709 250.769C454.709 250.769 454.84 250.9 455.102 251.162C455.364 251.293 455.757 251.555 456.281 251.555C457.329 251.424 458.639 249.982 459.032 248.278C459.294 247.361 459.294 246.574 459.163 245.788C459.032 245.001 458.77 244.477 458.246 244.214C457.722 243.952 457.329 244.214 457.198 244.477C457.067 244.739 457.067 244.87 456.936 244.87C456.936 244.87 456.805 244.608 456.936 244.346C457.067 244.214 457.198 243.952 457.46 243.821C457.722 243.69 458.115 243.69 458.377 243.821C459.163 244.083 459.556 244.87 459.687 245.788C459.818 246.574 459.818 247.623 459.556 248.54C459.032 250.507 457.591 251.949 456.15 252.08C455.495 252.08 454.971 251.686 454.709 251.424C454.578 251.031 454.578 250.769 454.709 250.769Z" fill="#FFBE33"/>
<path d="M456.936 240.151L453.792 241.855C446.587 228.877 434.273 198.072 434.928 199.907C434.928 199.907 442.788 199.252 449.993 202.922C457.198 206.593 470.43 214.982 467.417 223.896C464.403 232.679 456.936 240.151 456.936 240.151Z" fill="#100E21"/>
<path d="M473.573 219.046C473.442 219.046 474.359 220.881 474.883 224.158C475.538 227.304 475.669 231.892 474.097 236.611C472.525 241.331 469.774 245.001 467.416 247.23C465.058 249.458 463.224 250.376 463.355 250.507C463.355 250.507 463.879 250.376 464.665 249.851C465.451 249.327 466.499 248.671 467.809 247.492C470.298 245.394 473.311 241.593 474.883 236.743C476.455 231.892 476.193 227.173 475.538 223.896C475.145 222.323 474.752 221.012 474.359 220.226C473.835 219.439 473.573 219.046 473.573 219.046Z" fill="#FFBE33"/>
<path d="M497.547 421.706L511.695 425.507C511.695 425.507 522.962 424.59 524.927 426.556C526.892 428.522 531.739 434.29 531.739 434.29C531.739 434.29 534.752 435.077 533.966 436.125C533.18 437.043 530.691 437.305 528.726 436.912C526.892 436.387 514.446 432.455 514.446 432.455C514.446 432.455 513.136 436.125 510.254 435.208C507.372 434.29 501.739 431.931 500.036 431.537C498.333 431.144 486.281 429.833 485.495 428.916C484.84 427.998 482.613 415.545 482.613 415.545L494.141 413.054L497.547 421.706Z" fill="#FFDF99"/>
<path d="M517.198 428.391C517.329 428.26 520.604 429.44 524.665 431.275C528.726 432.979 532.001 434.552 531.87 434.683C531.739 434.814 528.464 433.635 524.403 431.799C520.342 430.095 517.067 428.522 517.198 428.391Z" fill="#FFBE33"/>
<path d="M503.049 426.687C503.049 426.556 505.931 427.211 509.075 428.784C510.647 429.571 512.089 430.357 513.137 431.013C514.185 431.668 514.578 432.324 514.447 432.455C514.316 432.455 513.923 431.931 512.874 431.406C511.826 430.882 510.385 430.226 508.813 429.44C505.669 427.998 503.049 426.949 503.049 426.687Z" fill="#FFBE33"/>
<path d="M407.548 273.053C407.548 273.053 392.614 272.529 384.492 277.904C376.501 283.278 348.466 305.039 348.466 305.039L329.733 270.432L311.917 281.574C311.917 281.574 329.995 331.125 343.357 334.664C361.173 339.514 386.064 316.574 386.064 316.574L407.548 273.053Z" fill="#1D60A6"/>
<path d="M397.461 273.84L418.29 270.301L444.753 269.252L460.997 274.627L440.168 305.17L411.085 309.364L397.461 273.84Z" fill="#FFDF99"/>
<path d="M463.486 319.065C463.486 320.638 462.7 351.312 465.976 361.275C469.251 371.237 483.268 417.642 483.268 417.642L498.857 415.414L488.639 350.132C488.639 350.132 484.185 294.683 482.482 288.784C479.469 278.428 470.561 277.117 470.561 277.117L463.486 319.065Z" fill="#1D60A6"/>
<path d="M471.871 277.773C470.823 277.51 450.779 271.349 450.779 271.349C450.779 271.349 439.12 292.323 422.876 289.964C408.989 287.997 408.072 272.267 408.072 272.267L394.186 274.495C392.876 273.709 379.645 325.488 388.422 338.204C395.758 348.69 395.758 351.181 395.758 351.181C397.723 351.05 386.85 380.676 388.815 384.215C405.19 415.545 471.871 383.428 471.871 383.428L465.321 345.807L471.871 277.773Z" fill="#1D60A6"/>
<path d="M470.298 294.945C470.298 294.945 470.298 295.207 470.298 295.863C470.167 296.518 470.167 297.436 470.036 298.484C469.774 300.844 469.381 303.99 468.857 307.923C468.333 311.986 467.678 316.705 467.154 321.949C466.499 327.192 465.975 333.091 465.713 339.252C465.451 345.413 465.713 351.312 466.368 356.556C467.023 361.799 467.94 366.518 468.988 370.451C469.905 374.383 470.691 377.53 471.215 379.758C471.477 380.807 471.608 381.593 471.87 382.249C472.001 382.773 472.001 383.166 472.001 383.166C472.001 383.166 471.87 382.904 471.739 382.249C471.608 381.593 471.346 380.807 470.953 379.758C470.298 377.53 469.512 374.383 468.464 370.451C467.416 366.518 466.499 361.799 465.713 356.556C465.058 351.181 464.796 345.282 464.927 339.121C465.189 332.96 465.713 327.061 466.368 321.818C467.023 316.443 467.678 311.724 468.202 307.791C468.726 303.728 469.25 300.582 469.643 298.353C469.774 297.305 469.905 296.387 470.036 295.731C470.298 295.207 470.298 294.945 470.298 294.945Z" fill="#100E21"/>
<path d="M388.029 301.106C388.029 301.106 388.029 301.761 387.767 302.941C387.505 304.121 387.243 305.825 386.981 308.054C386.719 310.151 386.326 312.773 386.195 315.657C385.933 318.54 385.933 321.687 386.195 324.964C386.457 328.241 386.981 331.387 387.898 334.14C388.815 336.893 389.732 339.252 390.78 341.218C392.745 345.02 394.448 347.248 394.317 347.248C394.317 347.248 393.793 346.724 393.138 345.806C392.745 345.282 392.352 344.758 391.828 343.971C391.304 343.185 390.78 342.398 390.256 341.481C389.208 339.514 388.16 337.155 387.243 334.402C386.326 331.649 385.802 328.503 385.54 325.095C385.278 321.818 385.278 318.54 385.54 315.657C385.802 312.773 386.195 310.151 386.457 308.054C386.85 305.956 387.243 304.121 387.505 302.941C387.767 301.761 388.029 301.106 388.029 301.106Z" fill="#100E21"/>
<path d="M449.207 354.851C449.207 354.851 448.945 354.983 448.421 355.114C447.897 355.245 447.111 355.507 446.194 355.769C444.229 356.425 441.347 357.211 437.679 358.129C434.142 359.046 429.819 359.964 424.971 361.013C422.613 361.537 419.993 361.93 417.373 362.455C416.063 362.717 414.753 362.848 413.312 363.11C412.002 363.241 410.561 363.634 408.989 363.241C408.203 363.11 407.417 362.455 407.286 361.668C407.155 360.75 407.548 359.964 408.072 359.571C409.12 358.522 410.561 358.129 411.609 357.473C413.967 356.293 416.325 355.245 418.683 354.327C423.137 352.361 427.33 350.919 430.867 349.739C434.404 348.559 437.286 347.773 439.251 347.248C440.299 346.986 441.085 346.855 441.609 346.724C442.133 346.593 442.395 346.593 442.395 346.593C442.395 346.593 442.133 346.724 441.609 346.855C440.954 346.986 440.299 347.248 439.382 347.511C437.417 348.166 434.535 348.953 430.998 350.263C427.461 351.443 423.399 353.016 418.945 354.983C416.718 355.9 414.36 357.08 412.002 358.129C410.823 358.784 409.513 359.177 408.596 360.095C408.203 360.488 407.81 361.144 407.941 361.668C408.072 362.192 408.465 362.586 409.12 362.717C410.43 363.11 411.74 362.717 413.181 362.586C414.491 362.323 415.932 362.192 417.242 361.93C419.862 361.537 422.351 361.013 424.84 360.619C429.688 359.702 434.011 358.784 437.548 357.866C441.216 357.08 444.098 356.293 446.063 355.769C446.98 355.507 447.766 355.376 448.421 355.245C448.945 354.851 449.207 354.851 449.207 354.851Z" fill="#100E21"/>
</g>
<defs>
<clipPath id="clip0_166_2865">
<rect width="592" height="606.8" fill="white"/>
</clipPath>
</defs>
</svg>
