<svg width="39" height="39" viewBox="0 0 39 39" fill="none" xmlns="http://www.w3.org/2000/svg">
<path d="M5.11111 38H33.8889C36.1594 38 38 36.1594 38 33.8889V5.11111C38 2.84061 36.1594 1 33.8889 1H5.11111C2.84061 1 1 2.84061 1 5.11111V33.8889C1 36.1594 2.84061 38 5.11111 38ZM5.11111 38L27.7222 15.3889L38 25.6667M15.3889 12.3056C15.3889 14.0084 14.0084 15.3889 12.3056 15.3889C10.6027 15.3889 9.22222 14.0084 9.22222 12.3056C9.22222 10.6027 10.6027 9.22222 12.3056 9.22222C14.0084 9.22222 15.3889 10.6027 15.3889 12.3056Z" stroke="#676767" stroke-width="2" stroke-linecap="round" stroke-linejoin="round"/>
</svg>
