<svg width="70" height="70" viewBox="0 0 70 70" fill="none" xmlns="http://www.w3.org/2000/svg">
<path d="M55.833 45.25V51.5C55.8353 52.0802 55.7165 52.6546 55.4841 53.1862C55.2516 53.7178 54.9107 54.195 54.4832 54.5873C54.0556 54.9795 53.5509 55.2781 53.0012 55.464C52.4516 55.6499 51.8692 55.7189 51.2913 55.6667C44.8806 54.9701 38.7226 52.7795 33.3122 49.2709C28.2785 46.0723 24.0108 41.8046 20.8122 36.7709C17.2913 31.3359 15.1002 25.1479 14.4163 18.7084C14.3643 18.1323 14.4327 17.5516 14.6174 17.0034C14.802 16.4552 15.0988 15.9515 15.4888 15.5242C15.8787 15.097 16.3534 14.7557 16.8826 14.522C17.4117 14.2882 17.9837 14.1673 18.5622 14.1667H24.8122C25.8232 14.1568 26.8034 14.5148 27.57 15.1741C28.3366 15.8333 28.8373 16.7489 28.9788 17.75C29.2426 19.7502 29.7318 21.7141 30.4372 23.6042C30.7175 24.3499 30.7781 25.1603 30.612 25.9394C30.4458 26.7185 30.0598 27.4336 29.4997 28L26.8538 30.6459C29.8196 35.8616 34.1381 40.1801 39.3538 43.1459L41.9997 40.5C42.5661 39.9399 43.2812 39.5539 44.0603 39.3877C44.8394 39.2216 45.6498 39.2822 46.3955 39.5625C48.2856 40.2679 50.2495 40.7571 52.2497 41.0209C53.2617 41.1636 54.1859 41.6734 54.8466 42.4532C55.5073 43.2329 55.8583 44.2283 55.833 45.25Z" stroke="#FEFEFE" stroke-width="2" stroke-linecap="round" stroke-linejoin="round"/>
</svg>
