<svg width="34" height="34" viewBox="0 0 34 34" fill="none" xmlns="http://www.w3.org/2000/svg">
<path d="M16.1582 6.11475C16.4685 5.37643 17.5325 5.37634 17.8428 6.11475V6.1167L20.5205 12.4351L20.6387 12.7124L20.9385 12.7378L27.7812 13.3188H27.7842C28.5356 13.3788 28.8761 14.2669 28.4082 14.8169L28.3037 14.9224L23.1045 19.4272L22.877 19.6245L22.9453 19.9185L24.5029 26.605C24.6751 27.3452 23.9372 27.9368 23.2705 27.6606L23.1387 27.5942L17.2588 24.0376L17.001 23.8813L16.7422 24.0376L10.8633 27.5796H10.8623C10.1662 28.0009 9.314 27.3806 9.49707 26.5913L11.0557 19.9048L11.124 19.6108L10.8965 19.4126L5.69727 14.9077H5.69629C5.08077 14.3745 5.41534 13.3689 6.2168 13.3052H6.21973L13.0615 12.7241L13.3623 12.6987L13.4795 12.4214L16.1572 6.1167L16.1582 6.11475Z" fill="#FFBE33" stroke="black"/>
</svg>
