<svg version="1.1" id="Layer_1" xmlns="http://www.w3.org/2000/svg" xmlns:xlink="http://www.w3.org/1999/xlink" x="0px" y="0px"
	 width="100%" viewBox="0 0 1024 1024" enable-background="new 0 0 1024 1024" xml:space="preserve">
<path fill="#F6F6F6" opacity="1.000000" stroke="none" 
	d="
M554.000000,1025.000000 
	C369.333344,1025.000000 185.166672,1025.000000 1.000000,1025.000000 
	C1.000000,683.666687 1.000000,342.333344 1.000000,1.000000 
	C342.333344,1.000000 683.666687,1.000000 1025.000000,1.000000 
	C1025.000000,342.333344 1025.000000,683.666687 1025.000000,1025.000000 
	C868.166687,1025.000000 711.333313,1025.000000 554.000000,1025.000000 
M604.979492,445.718048 
	C601.832947,445.443481 598.687134,444.946075 595.539734,444.935364 
	C585.350891,444.900696 577.864014,441.303955 575.001160,430.647675 
	C574.195068,427.647247 572.401672,424.924225 571.206665,422.014191 
	C555.838196,384.591187 540.525330,347.145264 525.113831,309.739990 
	C522.953918,304.497620 518.940857,301.778198 513.030945,301.834503 
	C507.241943,301.889709 503.917297,304.767914 501.813538,309.944824 
	C492.885498,331.914764 483.808990,353.824310 474.816467,375.768097 
	C466.829712,395.257477 458.913300,414.775787 450.897095,434.253021 
	C448.701111,439.588654 445.380981,443.503235 438.975159,444.105103 
	C412.376648,446.604279 385.813110,449.487549 359.202118,451.837830 
	C340.003082,453.533508 320.745178,454.554199 301.522369,455.993561 
	C294.792450,456.497498 290.842255,461.296265 290.837097,468.048737 
	C290.832947,473.461609 294.507721,476.412415 298.035553,479.418518 
	C331.236267,507.709473 364.432648,536.006042 397.759216,564.148315 
	C402.688629,568.310852 404.295898,572.886597 402.742035,579.077454 
	C395.484772,607.992432 388.342133,636.936157 381.201782,665.880249 
	C377.367828,681.421509 373.457886,696.946899 369.895508,712.551025 
	C367.717041,722.093384 375.065094,729.802795 384.435211,727.897766 
	C387.243774,727.326782 389.883545,725.527039 392.397064,723.963013 
	C430.647247,700.162964 468.890594,676.351501 507.049042,652.404907 
	C511.218811,649.788147 514.535828,649.552856 518.885620,652.257996 
	C550.931152,672.187805 583.136841,691.859741 615.264771,711.657288 
	C622.626465,716.193542 629.876343,720.911194 637.187622,725.529480 
	C646.019470,731.108337 656.355530,727.307312 657.695251,717.761108 
	C658.070618,715.086548 657.342957,712.150574 656.662354,709.450256 
	C646.327026,668.442627 636.214722,627.374512 625.326416,586.513367 
	C622.327698,575.259705 622.437805,566.314819 633.494934,559.990662 
	C634.770447,559.261108 635.766541,558.046936 636.903381,557.070496 
	C668.224365,530.168945 699.569519,503.295502 730.840576,476.336121 
	C734.828613,472.897980 736.898682,468.472687 735.055420,463.083801 
	C733.232910,457.755585 729.274231,455.296082 723.738831,454.912506 
	C715.171448,454.318787 706.619263,453.506531 698.052917,452.894897 
	C683.467041,451.853516 668.867249,450.999512 654.288025,449.875549 
	C638.152283,448.631622 622.033081,447.172974 604.979492,445.718048 
z"/>
<path fill="#F8C72A" opacity="1.000000" stroke="none" 
	d="
M605.443115,445.762939 
	C622.033081,447.172974 638.152283,448.631622 654.288025,449.875549 
	C668.867249,450.999512 683.467041,451.853516 698.052917,452.894897 
	C706.619263,453.506531 715.171448,454.318787 723.738831,454.912506 
	C729.274231,455.296082 733.232910,457.755585 735.055420,463.083801 
	C736.898682,468.472687 734.828613,472.897980 730.840576,476.336121 
	C699.569519,503.295502 668.224365,530.168945 636.903381,557.070496 
	C635.766541,558.046936 634.770447,559.261108 633.494934,559.990662 
	C622.437805,566.314819 622.327698,575.259705 625.326416,586.513367 
	C636.214722,627.374512 646.327026,668.442627 656.662354,709.450256 
	C657.342957,712.150574 658.070618,715.086548 657.695251,717.761108 
	C656.355530,727.307312 646.019470,731.108337 637.187622,725.529480 
	C629.876343,720.911194 622.626465,716.193542 615.264771,711.657288 
	C583.136841,691.859741 550.931152,672.187805 518.885620,652.257996 
	C514.535828,649.552856 511.218811,649.788147 507.049042,652.404907 
	C468.890594,676.351501 430.647247,700.162964 392.397064,723.963013 
	C389.883545,725.527039 387.243774,727.326782 384.435211,727.897766 
	C375.065094,729.802795 367.717041,722.093384 369.895508,712.551025 
	C373.457886,696.946899 377.367828,681.421509 381.201782,665.880249 
	C388.342133,636.936157 395.484772,607.992432 402.742035,579.077454 
	C404.295898,572.886597 402.688629,568.310852 397.759216,564.148315 
	C364.432648,536.006042 331.236267,507.709473 298.035553,479.418518 
	C294.507721,476.412415 290.832947,473.461609 290.837097,468.048737 
	C290.842255,461.296265 294.792450,456.497498 301.522369,455.993561 
	C320.745178,454.554199 340.003082,453.533508 359.202118,451.837830 
	C385.813110,449.487549 412.376648,446.604279 438.975159,444.105103 
	C445.380981,443.503235 448.701111,439.588654 450.897095,434.253021 
	C458.913300,414.775787 466.829712,395.257477 474.816467,375.768097 
	C483.808990,353.824310 492.885498,331.914764 501.813538,309.944824 
	C503.917297,304.767914 507.241943,301.889709 513.030945,301.834503 
	C518.940857,301.778198 522.953918,304.497620 525.113831,309.739990 
	C540.525330,347.145264 555.838196,384.591187 571.206665,422.014191 
	C572.401672,424.924225 574.195068,427.647247 575.001160,430.647675 
	C577.864014,441.303955 585.350891,444.900696 595.539734,444.935364 
	C598.687134,444.946075 601.832947,445.443481 605.443115,445.762939 
z"/>
</svg>