<svg width="285" height="49" viewBox="0 0 285 49" fill="none" xmlns="http://www.w3.org/2000/svg">
<path d="M17.5318 16.8151L22.8361 6.13313C22.9905 5.82399 23.228 5.56398 23.5219 5.38224C23.8158 5.20051 24.1545 5.10425 24.5 5.10425C24.8456 5.10425 25.1843 5.20051 25.4782 5.38224C25.7721 5.56398 26.0096 5.82399 26.164 6.13313L31.4682 16.8151L43.3262 18.5383C43.6683 18.5857 43.9901 18.7284 44.2549 18.9499C44.5198 19.1715 44.717 19.463 44.8241 19.7913C44.9312 20.1196 44.9438 20.4714 44.8605 20.8065C44.7773 21.1416 44.6015 21.4466 44.3532 21.6865L35.7741 29.9961L37.7995 41.7357C38.0587 43.2425 36.4662 44.3899 35.1045 43.6794L24.5 38.1342L13.8936 43.6794C12.5338 44.3919 10.9413 43.2425 11.2006 41.7337L13.226 29.9941L4.64687 21.6845C4.3998 21.4444 4.22506 21.1397 4.14251 20.8052C4.05995 20.4707 4.0729 20.1197 4.17988 19.7922C4.28686 19.4647 4.48357 19.1737 4.74767 18.9524C5.01176 18.7311 5.33264 18.5884 5.67383 18.5403L17.5318 16.8151Z" stroke="#FFBE33" stroke-width="1.5" stroke-linecap="round" stroke-linejoin="round"/>
<path d="M76.5318 16.8151L81.8361 6.13313C81.9905 5.82399 82.228 5.56398 82.5219 5.38224C82.8158 5.20051 83.1545 5.10425 83.5 5.10425C83.8456 5.10425 84.1843 5.20051 84.4782 5.38224C84.7721 5.56398 85.0096 5.82399 85.164 6.13313L90.4682 16.8151L102.326 18.5383C102.668 18.5857 102.99 18.7284 103.255 18.9499C103.52 19.1715 103.717 19.463 103.824 19.7913C103.931 20.1196 103.944 20.4714 103.861 20.8065C103.777 21.1416 103.601 21.4466 103.353 21.6865L94.7741 29.9961L96.7995 41.7357C97.0587 43.2425 95.4662 44.3899 94.1045 43.6794L83.5 38.1342L72.8936 43.6794C71.5338 44.3919 69.9413 43.2425 70.2006 41.7337L72.226 29.9941L63.6469 21.6845C63.3998 21.4444 63.2251 21.1397 63.1425 20.8052C63.06 20.4707 63.0729 20.1197 63.1799 19.7922C63.2869 19.4647 63.4836 19.1737 63.7477 18.9524C64.0118 18.7311 64.3326 18.5884 64.6738 18.5403L76.5318 16.8151Z" stroke="#FFBE33" stroke-width="1.5" stroke-linecap="round" stroke-linejoin="round"/>
<path d="M135.532 16.8151L140.836 6.13313C140.99 5.82399 141.228 5.56398 141.522 5.38224C141.816 5.20051 142.154 5.10425 142.5 5.10425C142.846 5.10425 143.184 5.20051 143.478 5.38224C143.772 5.56398 144.01 5.82399 144.164 6.13313L149.468 16.8151L161.326 18.5383C161.668 18.5857 161.99 18.7284 162.255 18.9499C162.52 19.1715 162.717 19.463 162.824 19.7913C162.931 20.1196 162.944 20.4714 162.861 20.8065C162.777 21.1416 162.601 21.4466 162.353 21.6865L153.774 29.9961L155.799 41.7357C156.059 43.2425 154.466 44.3899 153.104 43.6794L142.5 38.1342L131.894 43.6794C130.534 44.3919 128.941 43.2425 129.201 41.7337L131.226 29.9941L122.647 21.6845C122.4 21.4444 122.225 21.1397 122.143 20.8052C122.06 20.4707 122.073 20.1197 122.18 19.7922C122.287 19.4647 122.484 19.1737 122.748 18.9524C123.012 18.7311 123.333 18.5884 123.674 18.5403L135.532 16.8151Z" stroke="#FFBE33" stroke-width="1.5" stroke-linecap="round" stroke-linejoin="round"/>
<path d="M194.532 16.8151L199.836 6.13313C199.99 5.82399 200.228 5.56398 200.522 5.38224C200.816 5.20051 201.154 5.10425 201.5 5.10425C201.846 5.10425 202.184 5.20051 202.478 5.38224C202.772 5.56398 203.01 5.82399 203.164 6.13313L208.468 16.8151L220.326 18.5383C220.668 18.5857 220.99 18.7284 221.255 18.9499C221.52 19.1715 221.717 19.463 221.824 19.7913C221.931 20.1196 221.944 20.4714 221.861 20.8065C221.777 21.1416 221.601 21.4466 221.353 21.6865L212.774 29.9961L214.799 41.7357C215.059 43.2425 213.466 44.3899 212.104 43.6794L201.5 38.1342L190.894 43.6794C189.534 44.3919 187.941 43.2425 188.201 41.7337L190.226 29.9941L181.647 21.6845C181.4 21.4444 181.225 21.1397 181.143 20.8052C181.06 20.4707 181.073 20.1197 181.18 19.7922C181.287 19.4647 181.484 19.1737 181.748 18.9524C182.012 18.7311 182.333 18.5884 182.674 18.5403L194.532 16.8151Z" stroke="#FFBE33" stroke-width="1.5" stroke-linecap="round" stroke-linejoin="round"/>
<path d="M253.532 16.8151L258.836 6.13313C258.99 5.82399 259.228 5.56398 259.522 5.38224C259.816 5.20051 260.154 5.10425 260.5 5.10425C260.846 5.10425 261.184 5.20051 261.478 5.38224C261.772 5.56398 262.01 5.82399 262.164 6.13313L267.468 16.8151L279.326 18.5383C279.668 18.5857 279.99 18.7284 280.255 18.9499C280.52 19.1715 280.717 19.463 280.824 19.7913C280.931 20.1196 280.944 20.4714 280.861 20.8065C280.777 21.1416 280.601 21.4466 280.353 21.6865L271.774 29.9961L273.799 41.7357C274.059 43.2425 272.466 44.3899 271.104 43.6794L260.5 38.1342L249.894 43.6794C248.534 44.3919 246.941 43.2425 247.201 41.7337L249.226 29.9941L240.647 21.6845C240.4 21.4444 240.225 21.1397 240.143 20.8052C240.06 20.4707 240.073 20.1197 240.18 19.7922C240.287 19.4647 240.484 19.1737 240.748 18.9524C241.012 18.7311 241.333 18.5884 241.674 18.5403L253.532 16.8151Z" stroke="#FFBE33" stroke-width="1.5" stroke-linecap="round" stroke-linejoin="round"/>
</svg>
