<?xml version="1.0" standalone="no"?>
<!DOCTYPE svg PUBLIC "-//W3C//DTD SVG 20010904//EN"
 "http://www.w3.org/TR/2001/REC-SVG-20010904/DTD/svg10.dtd">
<svg version="1.0" xmlns="http://www.w3.org/2000/svg"
 width="1024.000000pt" height="1024.000000pt" viewBox="0 0 1024.000000 1024.000000"
 preserveAspectRatio="xMidYMid meet">

<g transform="translate(0.000000,1024.000000) scale(0.100000,-0.100000)"
fill="#000000" stroke="none">
<path d="M5062 7545 c-27 -22 -69 -112 -58 -122 2 -3 12 18 21 46 21 65 54 91
112 91 35 0 49 -6 70 -27 21 -23 24 -24 14 -6 -26 50 -110 59 -159 18z"/>
<path d="M5236 7480 c3 -14 11 -32 16 -40 6 -10 7 -7 2 10 -3 14 -11 32 -16
40 -6 10 -7 7 -2 -10z"/>
<path d="M5266 7400 c3 -14 11 -32 16 -40 6 -10 7 -7 2 10 -3 14 -11 32 -16
40 -6 10 -7 7 -2 -10z"/>
<path d="M4981 7379 c-6 -18 -9 -34 -7 -36 2 -2 9 10 15 28 6 18 9 34 7 36 -2
2 -9 -10 -15 -28z"/>
<path d="M5296 7320 c3 -14 11 -32 16 -40 6 -10 7 -7 2 10 -3 14 -11 32 -16
40 -6 10 -7 7 -2 -10z"/>
<path d="M4937 7259 c-15 -40 -25 -74 -23 -76 2 -2 15 29 30 68 15 39 25 73
23 76 -2 2 -16 -29 -30 -68z"/>
<path d="M5145 7313 c4 -10 16 -42 27 -71 12 -29 23 -51 25 -48 5 5 -47 136
-54 136 -3 0 -2 -8 2 -17z"/>
<path d="M5096 7280 c-22 -56 -19 -65 5 -11 11 24 18 46 15 48 -2 2 -11 -14
-20 -37z"/>
<path d="M5336 7210 c3 -14 11 -32 16 -40 6 -10 7 -7 2 10 -3 14 -11 32 -16
40 -6 10 -7 7 -2 -10z"/>
<path d="M5051 7164 c-12 -31 -20 -59 -18 -61 2 -2 14 22 26 53 12 31 20 59
18 61 -2 2 -14 -22 -26 -53z"/>
<path d="M5206 7160 c3 -14 11 -32 16 -40 6 -10 7 -7 2 10 -3 14 -11 32 -16
40 -6 10 -7 7 -2 -10z"/>
<path d="M4891 7139 c-6 -18 -9 -34 -7 -36 2 -2 9 10 15 28 6 18 9 34 7 36 -2
2 -9 -10 -15 -28z"/>
<path d="M5362 7138 c3 -7 13 -37 23 -66 9 -29 19 -52 21 -49 5 5 -36 127 -43
127 -3 0 -3 -6 -1 -12z"/>
<path d="M5236 7080 c3 -14 11 -32 16 -40 6 -10 7 -7 2 10 -3 14 -11 32 -16
40 -6 10 -7 7 -2 -10z"/>
<path d="M4861 7059 c-6 -18 -9 -34 -7 -36 2 -2 9 10 15 28 6 18 9 34 7 36 -2
2 -9 -10 -15 -28z"/>
<path d="M5011 7059 c-6 -18 -9 -34 -7 -36 2 -2 9 10 15 28 6 18 9 34 7 36 -2
2 -9 -10 -15 -28z"/>
<path d="M5266 7000 c3 -14 11 -32 16 -40 6 -10 7 -7 2 10 -3 14 -11 32 -16
40 -6 10 -7 7 -2 -10z"/>
<path d="M4826 6964 c-9 -26 -14 -49 -12 -51 2 -2 11 17 20 43 9 26 14 49 12
51 -2 2 -11 -17 -20 -43z"/>
<path d="M4981 6979 c-6 -18 -9 -34 -7 -36 2 -2 9 10 15 28 6 18 9 34 7 36 -2
2 -9 -10 -15 -28z"/>
<path d="M5416 6990 c3 -14 11 -32 16 -40 6 -10 7 -7 2 10 -3 14 -11 32 -16
40 -6 10 -7 7 -2 -10z"/>
<path d="M5290 6935 c0 -5 5 -17 10 -25 5 -8 10 -10 10 -5 0 6 -5 17 -10 25
-5 8 -10 11 -10 5z"/>
<path d="M4956 6915 c-9 -26 -7 -32 5 -12 6 10 9 21 6 23 -2 3 -7 -2 -11 -11z"/>
<path d="M5446 6910 c3 -14 11 -32 16 -40 6 -10 7 -7 2 10 -3 14 -11 32 -16
40 -6 10 -7 7 -2 -10z"/>
<path d="M4791 6869 c-6 -18 -9 -34 -7 -36 2 -2 9 10 15 28 6 18 9 34 7 36 -2
2 -9 -10 -15 -28z"/>
<path d="M4931 6849 c-6 -18 -9 -34 -7 -36 2 -2 9 10 15 28 6 18 9 34 7 36 -2
2 -9 -10 -15 -28z"/>
<path d="M5320 6855 c0 -5 5 -17 10 -25 5 -8 10 -10 10 -5 0 6 -5 17 -10 25
-5 8 -10 11 -10 5z"/>
<path d="M5476 6830 c3 -14 11 -32 16 -40 6 -10 7 -7 2 10 -3 14 -11 32 -16
40 -6 10 -7 7 -2 -10z"/>
<path d="M4761 6789 c-6 -18 -9 -34 -7 -36 2 -2 9 10 15 28 6 18 9 34 7 36 -2
2 -9 -10 -15 -28z"/>
<path d="M5346 6790 c3 -14 11 -32 16 -40 6 -10 7 -7 2 10 -3 14 -11 32 -16
40 -6 10 -7 7 -2 -10z"/>
<path d="M4891 6739 c-6 -18 -9 -34 -7 -36 2 -2 9 10 15 28 6 18 9 34 7 36 -2
2 -9 -10 -15 -28z"/>
<path d="M5506 6750 c4 -14 13 -38 20 -55 11 -24 13 -25 8 -5 -4 14 -13 39
-20 55 -11 24 -13 25 -8 5z"/>
<path d="M4731 6709 c-6 -18 -9 -34 -7 -36 2 -2 9 10 15 28 6 18 9 34 7 36 -2
2 -9 -10 -15 -28z"/>
<path d="M5386 6680 c4 -14 13 -38 20 -55 11 -24 13 -25 8 -5 -4 14 -13 39
-20 55 -11 24 -13 25 -8 5z"/>
<path d="M4861 6659 c-6 -18 -9 -34 -7 -36 2 -2 9 10 15 28 6 18 9 34 7 36 -2
2 -9 -10 -15 -28z"/>
<path d="M4701 6629 c-6 -18 -9 -34 -7 -36 2 -2 9 10 15 28 6 18 9 34 7 36 -2
2 -9 -10 -15 -28z"/>
<path d="M5546 6640 c4 -14 13 -38 20 -55 11 -24 13 -25 8 -5 -4 14 -13 39
-20 55 -11 24 -13 25 -8 5z"/>
<path d="M4795 6478 c-58 -161 -60 -169 -47 -148 14 22 103 272 99 277 -3 2
-26 -56 -52 -129z"/>
<path d="M4666 6534 c-9 -26 -14 -49 -12 -51 2 -2 11 17 20 43 9 26 14 49 12
51 -2 2 -11 -17 -20 -43z"/>
<path d="M5432 6548 c3 -7 13 -37 23 -66 9 -29 19 -52 21 -49 5 5 -36 127 -43
127 -3 0 -3 -6 -1 -12z"/>
<path d="M5580 6547 c0 -14 92 -258 96 -254 4 3 -84 248 -92 256 -2 2 -4 1 -4
-2z"/>
<path d="M4631 6439 c-6 -18 -9 -34 -7 -36 2 -2 9 10 15 28 6 18 9 34 7 36 -2
2 -9 -10 -15 -28z"/>
<path d="M5482 6410 c35 -101 142 -379 145 -376 5 4 -134 377 -144 385 -3 3
-4 -1 -1 -9z"/>
<path d="M4567 6263 c-26 -70 -45 -128 -43 -130 2 -2 25 53 50 123 26 69 45
128 43 130 -2 2 -25 -53 -50 -123z"/>
<path d="M4721 6279 c-6 -18 -9 -34 -7 -36 2 -2 9 10 15 28 6 18 9 34 7 36 -2
2 -9 -10 -15 -28z"/>
<path d="M5686 6260 c4 -14 15 -43 25 -65 11 -22 16 -29 13 -15 -4 14 -15 43
-25 65 -11 22 -16 29 -13 15z"/>
<path d="M4691 6199 c-6 -18 -9 -34 -7 -36 2 -2 9 10 15 28 6 18 9 34 7 36 -2
2 -9 -10 -15 -28z"/>
<path d="M4647 6079 c-15 -40 -25 -74 -23 -76 2 -2 15 29 30 68 15 39 25 73
23 76 -2 2 -16 -29 -30 -68z"/>
<path d="M5730 6147 c0 -13 53 -148 56 -144 3 2 -7 35 -22 73 -24 65 -34 85
-34 71z"/>
<path d="M4487 6049 c-15 -40 -25 -74 -23 -76 2 -2 15 29 30 68 15 39 25 73
23 76 -2 2 -16 -29 -30 -68z"/>
<path d="M5640 5985 c0 -5 5 -17 10 -25 5 -8 10 -10 10 -5 0 6 -5 17 -10 25
-5 8 -10 11 -10 5z"/>
<path d="M4446 5945 c-3 -9 -6 -22 -5 -28 0 -7 5 -1 10 12 5 13 8 26 5 28 -2
2 -6 -3 -10 -12z"/>
<path d="M4572 5878 c-17 -45 -30 -84 -28 -86 2 -2 18 34 35 79 17 45 30 84
28 86 -2 2 -18 -34 -35 -79z"/>
<path d="M5801 5958 c-1 -12 31 -89 35 -85 3 2 -4 24 -15 48 -11 24 -20 41
-20 37z"/>
<path d="M5661 5937 c-1 -4 13 -43 30 -87 30 -79 64 -120 98 -120 9 0 0 8 -19
18 -29 14 -40 30 -67 97 -41 101 -41 102 -42 92z"/>
<path d="M4411 5880 c-13 -11 -19 -20 -14 -20 6 0 18 9 28 20 23 25 17 25 -14
0z"/>
<path d="M5868 5863 c12 -2 32 -2 45 0 12 2 2 4 -23 4 -25 0 -35 -2 -22 -4z"/>
<path d="M3313 5853 c153 -2 401 -2 550 0 150 1 25 2 -278 2 -302 0 -425 -1
-272 -2z"/>
<path d="M6428 5853 c133 -2 351 -2 485 0 133 1 24 2 -243 2 -267 0 -376 -1
-242 -2z"/>
<path d="M2713 5843 c31 -2 83 -2 115 0 31 2 5 3 -58 3 -63 0 -89 -1 -57 -3z"/>
<path d="M7407 5840 c212 -5 223 -6 245 -27 12 -12 25 -41 29 -65 l6 -43 2 38
c1 32 -5 45 -33 73 l-34 34 -218 -2 -219 -2 222 -6z"/>
<path d="M2615 5815 c-14 -13 -24 -34 -24 -47 2 -22 2 -22 6 -1 2 12 16 33 30
47 14 14 23 26 19 26 -4 0 -18 -11 -31 -25z"/>
<path d="M4508 5758 c-15 -12 -50 -24 -85 -28 -53 -7 -55 -7 -15 -9 47 -1 100
17 121 42 18 22 12 21 -21 -5z"/>
<path d="M2591 5714 c0 -11 3 -14 6 -6 3 7 2 16 -1 19 -3 4 -6 -2 -5 -13z"/>
<path d="M3643 5723 c126 -2 328 -2 450 0 122 1 20 2 -228 2 -247 0 -347 -1
-222 -2z"/>
<path d="M5823 5723 c9 -2 23 -2 30 0 6 3 -1 5 -18 5 -16 0 -22 -2 -12 -5z"/>
<path d="M6203 5723 c86 -2 228 -2 315 0 86 1 15 3 -158 3 -173 0 -244 -2
-157 -3z"/>
<path d="M3018 5713 c68 -2 176 -2 240 0 64 1 9 3 -123 3 -132 0 -185 -2 -117
-3z"/>
<path d="M6913 5713 c97 -2 257 -2 355 0 97 1 17 2 -178 2 -195 0 -275 -1
-177 -2z"/>
<path d="M2828 5703 c12 -2 30 -2 40 0 9 3 -1 5 -23 4 -22 0 -30 -2 -17 -4z"/>
<path d="M7663 5681 c-7 -11 -63 -61 -126 -113 -176 -144 -614 -509 -776 -646
-80 -68 -214 -180 -298 -250 -84 -70 -155 -135 -159 -145 -6 -18 25 -151 33
-143 2 2 -4 34 -14 71 l-18 67 40 36 c36 33 275 237 484 412 43 36 149 124
236 195 88 72 220 182 295 245 74 64 167 141 205 172 76 60 121 105 114 113
-3 2 -10 -4 -16 -14z"/>
<path d="M2606 5679 c10 -18 255 -227 485 -415 181 -147 450 -372 674 -564
175 -149 237 -199 174 -139 -63 60 -414 355 -1040 874 -106 88 -217 183 -248
210 -30 28 -50 43 -45 34z"/>
<path d="M2810 5687 c0 -6 99 -90 335 -283 94 -77 328 -272 520 -434 193 -163
367 -309 389 -325 21 -17 44 -43 52 -60 8 -18 13 -23 14 -13 0 9 -10 28 -22
41 -26 29 -953 806 -1259 1056 -16 13 -29 21 -29 18z"/>
<path d="M7379 5622 c-36 -31 -161 -136 -279 -232 -117 -96 -306 -254 -420
-350 -114 -96 -273 -229 -353 -295 -80 -66 -152 -132 -161 -147 -9 -15 -15
-45 -15 -70 l2 -43 6 51 c3 28 13 59 21 69 8 10 105 94 215 186 110 91 252
210 315 264 63 53 250 208 415 345 264 217 338 281 324 280 -2 -1 -34 -27 -70
-58z"/>
<path d="M3956 4474 c-4 -14 -5 -28 -3 -31 3 -2 8 8 11 23 4 14 5 28 3 31 -3
2 -8 -8 -11 -23z"/>
<path d="M4111 4484 c0 -11 3 -14 6 -6 3 7 2 16 -1 19 -3 4 -6 -2 -5 -13z"/>
<path d="M6161 4470 c0 -8 4 -24 9 -35 5 -13 9 -14 9 -5 0 8 -4 24 -9 35 -5
13 -9 14 -9 5z"/>
<path d="M4071 4354 c-17 -59 -30 -108 -28 -110 2 -2 18 44 36 102 18 58 31
107 29 110 -2 2 -19 -44 -37 -102z"/>
<path d="M3926 4374 c-10 -31 -16 -58 -14 -60 3 -2 12 21 22 52 10 31 16 58
14 60 -3 2 -12 -21 -22 -52z"/>
<path d="M6181 4400 c0 -8 4 -24 9 -35 5 -13 9 -14 9 -5 0 8 -4 24 -9 35 -5
13 -9 14 -9 5z"/>
<path d="M6342 4360 c0 -8 6 -31 13 -50 7 -19 13 -28 13 -20 0 8 -6 31 -13 50
-7 19 -13 28 -13 20z"/>
<path d="M6202 4330 c0 -8 6 -31 13 -50 7 -19 13 -28 13 -20 0 8 -6 31 -13 50
-7 19 -13 28 -13 20z"/>
<path d="M3896 4274 c-4 -14 -5 -28 -3 -31 3 -2 8 8 11 23 4 14 5 28 3 31 -3
2 -8 -8 -11 -23z"/>
<path d="M6371 4260 c0 -8 4 -24 9 -35 5 -13 9 -14 9 -5 0 8 -4 24 -9 35 -5
13 -9 14 -9 5z"/>
<path d="M6232 4230 c0 -8 6 -31 13 -50 7 -19 13 -28 13 -20 0 8 -6 31 -13 50
-7 19 -13 28 -13 20z"/>
<path d="M3866 4169 c-10 -33 -16 -63 -13 -65 2 -2 11 24 21 57 9 34 15 63 13
66 -2 2 -12 -24 -21 -58z"/>
<path d="M4021 4189 c-7 -22 -11 -43 -8 -45 2 -2 9 14 16 37 7 22 11 43 8 45
-2 2 -9 -14 -16 -37z"/>
<path d="M6390 4196 c0 -17 74 -256 77 -252 3 2 -12 60 -32 128 -34 114 -45
143 -45 124z"/>
<path d="M3965 4005 c-20 -70 -35 -128 -33 -130 2 -2 21 52 41 122 21 69 36
127 34 129 -2 3 -21 -52 -42 -121z"/>
<path d="M6272 4100 c0 -8 6 -31 13 -50 7 -19 13 -28 13 -20 0 8 -6 31 -13 50
-7 19 -13 28 -13 20z"/>
<path d="M3826 4034 c-10 -31 -16 -58 -14 -60 3 -2 12 21 22 52 10 31 16 58
14 60 -3 2 -12 -21 -22 -52z"/>
<path d="M6306 3980 c4 -19 10 -42 15 -50 11 -18 1 34 -13 65 -5 13 -6 9 -2
-15z"/>
<path d="M3786 3899 c-10 -33 -16 -63 -13 -65 2 -2 11 24 21 57 9 34 15 63 13
66 -2 2 -12 -24 -21 -58z"/>
<path d="M6472 3920 c0 -8 6 -31 13 -50 7 -19 13 -28 13 -20 0 8 -6 31 -13 50
-7 19 -13 28 -13 20z"/>
<path d="M6331 3900 c0 -8 4 -24 9 -35 5 -13 9 -14 9 -5 0 8 -4 24 -9 35 -5
13 -9 14 -9 5z"/>
<path d="M3871 3684 c-29 -97 -51 -177 -49 -179 2 -2 28 75 57 171 29 96 52
177 50 179 -3 2 -28 -75 -58 -171z"/>
<path d="M6352 3830 c0 -8 6 -31 13 -50 7 -19 13 -28 13 -20 0 8 -6 31 -13 50
-7 19 -13 28 -13 20z"/>
<path d="M5082 3819 c-26 -10 -172 -109 -172 -116 0 -5 5 -2 97 61 101 68 142
72 226 20 84 -51 651 -429 1027 -684 308 -209 344 -232 325 -213 -20 22 -1147
778 -1324 890 -88 55 -126 64 -179 42z"/>
<path d="M6501 3820 c0 -8 4 -24 9 -35 5 -13 9 -14 9 -5 0 8 -4 24 -9 35 -5
13 -9 14 -9 5z"/>
<path d="M3751 3778 c-7 -24 -33 -110 -58 -191 -24 -82 -43 -150 -40 -153 2
-2 11 19 19 48 9 29 35 115 58 191 23 76 40 140 38 143 -3 2 -10 -15 -17 -38z"/>
<path d="M6522 3750 c0 -8 6 -31 13 -50 7 -19 13 -28 13 -20 0 8 -6 31 -13 50
-7 19 -13 28 -13 20z"/>
<path d="M6382 3730 c0 -8 6 -31 13 -50 7 -19 13 -28 13 -20 0 8 -6 31 -13 50
-7 19 -13 28 -13 20z"/>
<path d="M4305 3309 c-324 -215 -594 -396 -600 -401 -16 -18 -3 -9 525 340
649 429 683 452 670 452 -3 0 -270 -176 -595 -391z"/>
<path d="M5105 3668 c-11 -6 -337 -223 -725 -481 -388 -258 -723 -478 -744
-489 -71 -36 -136 -10 -158 64 -6 21 -13 36 -16 34 -2 -3 1 -20 7 -39 25 -75
97 -105 167 -69 21 11 364 236 762 501 398 265 728 481 733 481 22 0 105 -53
791 -511 395 -262 727 -480 738 -484 35 -11 86 3 114 32 14 14 26 30 26 35 0
5 -12 -4 -26 -21 -30 -35 -83 -49 -121 -32 -15 7 -353 230 -753 496 -400 266
-738 486 -751 489 -13 3 -33 1 -44 -6z"/>
<path d="M6557 3630 c6 -38 31 -111 32 -95 0 6 -8 37 -19 70 -11 33 -17 44
-13 25z"/>
<path d="M6421 3594 c0 -11 3 -14 6 -6 3 7 2 16 -1 19 -3 4 -6 -2 -5 -13z"/>
<path d="M6431 3565 c0 -5 10 -44 24 -85 14 -41 22 -60 19 -41 -7 38 -42 142
-43 126z"/>
<path d="M6592 3505 c25 -95 93 -314 96 -307 3 10 -87 314 -95 322 -3 3 -4 -4
-1 -15z"/>
<path d="M3792 3414 c-13 -42 -21 -78 -19 -80 2 -3 14 30 27 72 12 41 20 77
18 79 -2 3 -14 -30 -26 -71z"/>
<path d="M3636 3394 c-4 -14 -5 -28 -3 -31 3 -2 8 8 11 23 4 14 5 28 3 31 -3
2 -8 -8 -11 -23z"/>
<path d="M6481 3390 c0 -8 4 -24 9 -35 5 -13 9 -14 9 -5 0 8 -4 24 -9 35 -5
13 -9 14 -9 5z"/>
<path d="M3616 3324 c-4 -14 -5 -28 -3 -31 3 -2 8 8 11 23 4 14 5 28 3 31 -3
2 -8 -8 -11 -23z"/>
<path d="M6501 3320 c0 -8 4 -24 9 -35 5 -13 9 -14 9 -5 0 8 -4 24 -9 35 -5
13 -9 14 -9 5z"/>
<path d="M3756 3294 c-4 -14 -5 -28 -3 -31 3 -2 8 8 11 23 4 14 5 28 3 31 -3
2 -8 -8 -11 -23z"/>
<path d="M3596 3254 c-4 -14 -5 -28 -3 -31 3 -2 8 8 11 23 4 14 5 28 3 31 -3
2 -8 -8 -11 -23z"/>
<path d="M6522 3250 c0 -8 6 -31 13 -50 7 -19 13 -28 13 -20 0 8 -6 31 -13 50
-7 19 -13 28 -13 20z"/>
<path d="M3731 3209 c-7 -22 -11 -43 -8 -45 2 -2 9 14 16 37 7 22 11 43 8 45
-2 2 -9 -14 -16 -37z"/>
<path d="M3566 3154 c-4 -14 -5 -28 -3 -31 3 -2 8 8 11 23 4 14 5 28 3 31 -3
2 -8 -8 -11 -23z"/>
<path d="M6691 3170 c0 -8 4 -24 9 -35 5 -13 9 -14 9 -5 0 8 -4 24 -9 35 -5
13 -9 14 -9 5z"/>
<path d="M6552 3150 c0 -8 6 -31 13 -50 7 -19 13 -28 13 -20 0 8 -6 31 -13 50
-7 19 -13 28 -13 20z"/>
<path d="M3682 3046 c-33 -107 -38 -141 -23 -150 4 -3 6 5 4 18 -3 13 9 69 27
125 17 57 30 105 27 107 -2 2 -18 -43 -35 -100z"/>
<path d="M3531 3035 c-13 -42 -21 -78 -19 -80 2 -3 14 30 27 72 12 41 20 77
18 79 -2 3 -14 -30 -26 -71z"/>
<path d="M6712 3100 c0 -8 8 -37 18 -65 10 -27 18 -43 18 -35 0 8 -8 38 -18
65 -10 28 -18 43 -18 35z"/>
<path d="M6582 3050 c0 -8 6 -31 13 -50 7 -19 13 -28 13 -20 0 8 -6 31 -13 50
-7 19 -13 28 -13 20z"/>
<path d="M6752 2970 c0 -8 8 -37 18 -65 10 -27 18 -43 18 -35 0 8 -8 38 -18
65 -10 28 -18 43 -18 35z"/>
<path d="M6612 2945 c0 -11 3 -29 8 -40 11 -25 11 1 0 35 -6 20 -8 21 -8 5z"/>
<path d="M3487 2888 c-9 -30 -17 -61 -16 -69 0 -8 9 13 19 46 11 33 18 64 17
69 -1 4 -10 -16 -20 -46z"/>
<path d="M6797 2810 c3 -25 7 -47 9 -49 8 -9 2 55 -6 74 -6 13 -7 5 -3 -25z"/>
</g>
</svg>
