<svg width="231" height="228" viewBox="0 0 231 228" fill="none" xmlns="http://www.w3.org/2000/svg">
<g clip-path="url(#clip0_181_8026)">
<path d="M199.443 57.3406H167.624V65.4647H199.443V57.3406Z" fill="#F6F6F6"/>
<path d="M185.993 74.0605C185.993 74.0605 185.993 74.0081 185.993 73.9032C185.993 73.7984 185.993 73.6412 185.993 73.4839C185.993 73.117 185.993 72.5405 185.993 71.8591C185.993 70.4439 185.941 68.4522 185.941 65.8839L186.046 65.9888C178.771 65.9888 167.206 66.0412 154.227 66.0412C154.279 65.9888 154.07 66.1984 154.384 65.8839V65.9363V65.9888V66.0936V66.3557V66.8798C154.384 67.2467 154.384 67.5612 154.384 67.9281C154.384 68.6094 154.384 69.2908 154.384 69.9722C154.384 71.335 154.384 72.6453 154.384 73.9557L154.227 73.7984C163.281 73.8508 171.235 73.8508 176.887 73.8508C179.713 73.8508 182.016 73.9032 183.586 73.9032C184.371 73.9032 184.947 73.9032 185.418 73.9032C185.627 73.9032 185.784 73.9032 185.889 73.9032C185.941 74.0605 185.993 74.0605 185.993 74.0605C185.993 74.0605 185.941 74.0605 185.836 74.0605C185.732 74.0605 185.575 74.0605 185.365 74.0605C184.947 74.0605 184.371 74.0605 183.586 74.0605C182.016 74.0605 179.766 74.0605 176.94 74.1129C171.235 74.1129 163.281 74.1653 154.175 74.1653H154.018V74.0081C154.018 72.6977 154.018 71.335 154.018 70.0246C154.018 69.3432 154.018 68.6619 154.018 67.9805C154.018 67.6136 154.018 67.2991 154.018 66.9322V66.4081V66.146V66.0412V65.9888V65.9363C154.332 65.6219 154.122 65.8315 154.175 65.7791C167.153 65.7791 178.719 65.8315 185.993 65.8315H186.098V65.9363C186.098 68.5046 186.046 70.5488 186.046 71.9639C186.046 72.6453 186.046 73.1694 186.046 73.5363C186.046 73.6936 186.046 73.8508 186.046 73.9557C185.993 74.0081 185.993 74.0605 185.993 74.0605Z" fill="#D9D9D9"/>
<path d="M64.0033 91.9338H32.1846V100.058H64.0033V91.9338Z" fill="#F6F6F6"/>
<path d="M50.5539 108.654C50.5539 108.654 50.5539 108.601 50.5539 108.497C50.5539 108.392 50.5539 108.235 50.5539 108.077C50.5539 107.71 50.5539 107.134 50.5539 106.452C50.5539 105.037 50.5016 103.046 50.5016 100.477L50.6062 100.582C43.3319 100.582 31.7662 100.635 18.7875 100.635C18.8398 100.582 18.6305 100.792 18.9445 100.477V100.53V100.582V100.687V100.949V101.473C18.9445 101.84 18.9445 102.155 18.9445 102.521C18.9445 103.203 18.9445 103.884 18.9445 104.566C18.9445 105.928 18.9445 107.239 18.9445 108.549L18.7875 108.392C27.8412 108.444 35.7958 108.444 41.4479 108.444C44.2739 108.444 46.5765 108.497 48.1465 108.497C48.9315 108.497 49.5072 108.497 49.9782 108.497C50.1876 108.497 50.3446 108.497 50.4492 108.497C50.5016 108.654 50.5539 108.654 50.5539 108.654C50.5539 108.654 50.5016 108.654 50.3969 108.654C50.2922 108.654 50.1352 108.654 49.9259 108.654C49.5072 108.654 48.9315 108.654 48.1465 108.654C46.5765 108.654 44.3262 108.654 41.5002 108.706C35.7958 108.706 27.8412 108.759 18.7351 108.759H18.5781V108.601C18.5781 107.291 18.5781 105.928 18.5781 104.618C18.5781 103.937 18.5781 103.255 18.5781 102.574C18.5781 102.207 18.5781 101.892 18.5781 101.526V101.001V100.739V100.635V100.582V100.53C18.8921 100.215 18.6828 100.425 18.7351 100.372C31.7138 100.372 43.2795 100.425 50.5539 100.425H50.6586V100.53C50.6586 103.098 50.6062 105.142 50.6062 106.557C50.6062 107.239 50.6062 107.763 50.6062 108.13C50.6062 108.287 50.6062 108.444 50.6062 108.549C50.5539 108.601 50.5539 108.654 50.5539 108.654Z" fill="#D9D9D9"/>
<path d="M133.345 4.76978H99.6426V13.0512H133.345V4.76978Z" fill="#F6F6F6"/>
<path d="M121.152 177.421H87.4492V185.702H121.152V177.421Z" fill="#F6F6F6"/>
<path d="M61.1774 173.018H27.4746V181.299H61.1774V173.018Z" fill="#F6F6F6"/>
<path d="M39.2501 31.5009C39.2501 31.5009 39.2501 31.4485 39.2501 31.3436C39.2501 31.2388 39.2501 31.0816 39.2501 30.8719C39.2501 30.4526 39.2501 29.8761 39.2501 29.1423C39.2501 27.6223 39.1978 25.4209 39.1978 22.6429L39.3024 22.7478C31.7141 22.7478 19.625 22.8002 6.01833 22.8002C6.07066 22.7478 5.86133 22.9574 6.17533 22.6429V22.6954V22.7478V22.905V23.1671V23.7436C6.17533 24.1105 6.17533 24.4774 6.17533 24.8967C6.17533 25.6305 6.17533 26.4167 6.17533 27.1505C6.17533 28.6181 6.17533 30.0857 6.17533 31.5009L6.01833 31.3436C15.4907 31.3961 23.8117 31.3961 29.7254 31.3961C32.7084 31.3961 35.0634 31.4485 36.7381 31.4485C37.5231 31.4485 38.2034 31.4485 38.6221 31.4485C38.8314 31.4485 38.9884 31.4485 39.0931 31.4485C39.1454 31.4485 39.1978 31.5009 39.2501 31.5009C39.2501 31.5009 39.1978 31.5009 39.0931 31.5009C38.9884 31.5009 38.8314 31.5009 38.6221 31.5009C38.2034 31.5009 37.5754 31.5009 36.7904 31.5009C35.1157 31.5009 32.7607 31.5533 29.8301 31.5533C23.864 31.5533 15.543 31.6057 6.01833 31.6057H5.86133V31.4485C5.86133 30.0333 5.86133 28.5657 5.86133 27.0981C5.86133 26.3643 5.86133 25.6305 5.86133 24.8443C5.86133 24.4774 5.86133 24.1105 5.86133 23.6912V23.1147V22.8526V22.6954V22.6429V22.5905C6.17533 22.2236 5.966 22.4857 6.01833 22.4333C19.625 22.4857 31.7141 22.4857 39.3024 22.4857H39.4071V22.5905C39.4071 25.4209 39.3548 27.6223 39.3548 29.1423C39.3548 29.8761 39.3548 30.4526 39.3548 30.8719C39.3548 31.0292 39.3548 31.1864 39.3548 31.2912C39.2501 31.4485 39.2501 31.5009 39.2501 31.5009Z" fill="#D9D9D9"/>
<path d="M43.7512 22.5905C43.7512 22.5905 43.7512 22.538 43.7512 22.4332C43.7512 22.3284 43.7512 22.1711 43.7512 21.9615C43.7512 21.5422 43.7512 20.9132 43.6989 20.1794C43.6989 18.607 43.6465 16.4056 43.6465 13.7325L43.7512 13.8373C38.5702 13.8373 31.5052 13.8898 23.7598 13.8898C23.6028 14.047 23.9692 13.6801 23.9168 13.7325V13.7849V13.8373V13.9946V14.3091V14.8856C23.9168 15.2525 23.9168 15.6718 23.9168 16.0387C23.9168 16.8249 23.9168 17.5587 23.9168 18.2925C23.9168 19.7601 23.9168 21.2277 23.9168 22.5905L23.7598 22.4332C29.5165 22.4856 34.4882 22.4856 38.0469 22.4856C39.8262 22.4856 41.1869 22.538 42.2335 22.538C42.7045 22.538 43.0709 22.538 43.3325 22.538C43.5942 22.5905 43.7512 22.5905 43.7512 22.5905C43.7512 22.5905 43.6465 22.5905 43.3849 22.5905C43.1232 22.5905 42.7569 22.5905 42.2859 22.5905C41.2915 22.5905 39.8785 22.5905 38.1515 22.6429C34.5405 22.6429 29.5688 22.6953 23.7598 22.6953H23.6028V22.538C23.6028 21.1753 23.6028 19.7077 23.6028 18.2401C23.6028 17.5063 23.6028 16.7201 23.6028 15.9863C23.6028 15.6194 23.6028 15.2001 23.6028 14.8332V14.2567V13.9422V13.7849V13.7325V13.6801C23.5505 13.7325 23.9168 13.3656 23.7598 13.5229C31.5052 13.5229 38.5702 13.5753 43.7512 13.5753H43.8559V13.6801C43.8035 16.4056 43.8035 18.6594 43.8035 20.2318C43.8035 20.9656 43.8035 21.5422 43.7512 21.9615C43.7512 22.3808 43.7512 22.5905 43.7512 22.5905Z" fill="#D9D9D9"/>
<path d="M137.951 130.772C137.951 130.772 137.951 130.72 137.951 130.615C137.951 130.51 137.951 130.353 137.951 130.143C137.951 129.724 137.951 129.148 137.951 128.414C137.951 126.894 137.899 124.692 137.899 121.914L138.004 122.019C130.415 122.019 118.326 122.072 104.72 122.072C104.772 122.019 104.562 122.229 104.876 121.914V121.967V122.019V122.177V122.439V123.015C104.876 123.382 104.876 123.749 104.876 124.168C104.876 124.902 104.876 125.688 104.876 126.422C104.876 127.89 104.876 129.357 104.876 130.772L104.72 130.615C114.192 130.668 122.513 130.668 128.427 130.668C131.41 130.668 133.765 130.72 135.439 130.72C136.224 130.72 136.905 130.72 137.323 130.72C137.533 130.72 137.69 130.72 137.794 130.72C137.899 130.772 137.951 130.772 137.951 130.772C137.951 130.772 137.899 130.772 137.794 130.772C137.69 130.772 137.533 130.772 137.323 130.772C136.905 130.772 136.277 130.772 135.492 130.772C133.817 130.772 131.462 130.825 128.531 130.825C122.565 130.825 114.244 130.877 104.72 130.877H104.562V130.72C104.562 129.305 104.562 127.837 104.562 126.37C104.562 125.636 104.562 124.902 104.562 124.116C104.562 123.749 104.562 123.382 104.562 122.963V122.386V122.124V121.967V121.914V121.862C104.877 121.495 104.667 121.757 104.72 121.705C118.326 121.757 130.415 121.757 138.004 121.757H138.108V121.862C138.108 124.692 138.056 126.894 138.056 128.414C138.056 129.148 138.056 129.724 138.056 130.143C138.056 130.301 138.056 130.458 138.056 130.563C137.951 130.72 137.951 130.772 137.951 130.772Z" fill="#D9D9D9"/>
<path d="M142.452 121.914C142.452 121.914 142.452 121.862 142.452 121.757C142.452 121.652 142.452 121.495 142.452 121.285C142.452 120.866 142.452 120.237 142.4 119.503C142.4 117.931 142.348 115.73 142.348 113.056L142.452 113.161C137.271 113.161 130.206 113.214 122.461 113.214C122.304 113.371 122.67 113.004 122.618 113.056V113.109V113.161V113.319V113.633V114.21C122.618 114.576 122.618 114.996 122.618 115.363C122.618 116.149 122.618 116.883 122.618 117.616C122.618 119.084 122.618 120.552 122.618 121.914L122.461 121.757C128.218 121.81 133.189 121.81 136.748 121.81C138.527 121.81 139.888 121.862 140.935 121.862C141.406 121.862 141.772 121.862 142.034 121.862C142.348 121.914 142.452 121.914 142.452 121.914C142.452 121.914 142.348 121.914 142.086 121.914C141.824 121.914 141.458 121.914 140.987 121.914C139.993 121.914 138.58 121.914 136.853 121.967C133.242 121.967 128.27 122.019 122.461 122.019H122.304V121.862C122.304 120.499 122.304 119.032 122.304 117.564C122.304 116.83 122.304 116.044 122.304 115.31C122.304 114.943 122.304 114.524 122.304 114.157V113.581V113.266V113.109V113.056V113.004C122.252 113.056 122.618 112.69 122.461 112.847C130.206 112.847 137.271 112.899 142.452 112.899H142.557V113.004C142.505 115.73 142.505 117.983 142.505 119.556C142.505 120.29 142.505 120.866 142.452 121.285C142.505 121.705 142.505 121.914 142.452 121.914Z" fill="#D9D9D9"/>
<path d="M214.306 17.9779C214.306 17.9779 214.306 17.9255 214.306 17.8207C214.306 17.7159 214.306 17.5586 214.306 17.349C214.306 16.9297 214.306 16.3531 214.306 15.6193C214.306 14.0993 214.253 11.8979 214.253 9.12L214.358 9.22483C206.77 9.22483 194.681 9.27724 181.074 9.27724C181.126 9.22483 180.917 9.43448 181.231 9.12V9.17241V9.22483V9.38207V9.64414V10.2207C181.231 10.5876 181.231 10.9545 181.231 11.3738C181.231 12.1076 181.231 12.8938 181.231 13.6276C181.231 15.0952 181.231 16.5628 181.231 17.9779L181.074 17.8207C190.546 17.8731 198.867 17.8731 204.781 17.8731C207.764 17.8731 210.119 17.9255 211.794 17.9255C212.579 17.9255 213.259 17.9255 213.678 17.9255C213.887 17.9255 214.044 17.9255 214.149 17.9255C214.201 17.9779 214.253 17.9779 214.306 17.9779C214.306 17.9779 214.253 17.9779 214.149 17.9779C214.044 17.9779 213.887 17.9779 213.678 17.9779C213.259 17.9779 212.631 17.9779 211.846 17.9779C210.171 17.9779 207.816 18.0303 204.886 18.0303C198.92 18.0303 190.599 18.0828 181.074 18.0828H180.917V17.9255C180.917 16.5103 180.917 15.0428 180.917 13.5752C180.917 12.8414 180.917 12.1076 180.917 11.3214C180.917 10.9545 180.917 10.5876 180.917 10.1683V9.59172V9.32965V9.17241V9.12V9.06758C181.231 8.70069 181.022 8.96276 181.074 8.91034C194.681 8.96276 206.77 8.96276 214.358 8.96276H214.463V9.06758C214.463 11.8979 214.41 14.0993 214.41 15.6193C214.41 16.3531 214.41 16.9297 214.41 17.349C214.41 17.5062 214.41 17.6634 214.41 17.7683C214.306 17.9255 214.306 17.9779 214.306 17.9779Z" fill="#D9D9D9"/>
<path d="M218.807 9.06766C218.807 9.06766 218.807 9.01524 218.807 8.91041C218.807 8.80559 218.807 8.64835 218.807 8.43869C218.807 8.01938 218.807 7.39041 218.755 6.65662C218.755 5.08421 218.702 2.88283 218.702 0.209725L218.807 0.314553C213.626 0.314553 206.561 0.366967 198.815 0.366967C198.658 0.524208 199.025 0.157311 198.972 0.209725V0.262139V0.314553V0.524208V0.838691V1.41524C198.972 1.78214 198.972 2.20145 198.972 2.56835C198.972 3.35455 198.972 4.08835 198.972 4.82214C198.972 6.28972 198.972 7.75731 198.972 9.12007L198.815 8.96283C204.572 9.01524 209.544 9.01524 213.103 9.01524C214.882 9.01524 216.243 9.06766 217.289 9.06766C217.76 9.06766 218.127 9.06766 218.388 9.06766C218.65 9.06766 218.807 9.06766 218.807 9.06766C218.807 9.06766 218.702 9.06766 218.441 9.06766C218.179 9.06766 217.813 9.06766 217.342 9.06766C216.347 9.06766 214.934 9.06766 213.207 9.12007C209.596 9.12007 204.624 9.17248 198.815 9.17248H198.658V9.01524C198.658 7.65248 198.658 6.1849 198.658 4.71731C198.658 3.98352 198.658 3.19731 198.658 2.46352C198.658 2.09662 198.658 1.67731 198.658 1.31041V0.733863V0.524208V0.366967V0.262139C198.606 0.314553 198.972 -0.0523437 198.815 0.104898C206.561 0.104898 213.626 0.157311 218.807 0.157311H218.912V0.262139C218.859 2.98766 218.859 5.24145 218.859 6.81386C218.859 7.54766 218.859 8.12421 218.807 8.54352C218.807 8.91041 218.807 9.12007 218.807 9.06766Z" fill="#D9D9D9"/>
<path d="M221.527 172.965C221.527 172.965 221.527 172.913 221.527 172.808C221.527 172.703 221.527 172.546 221.527 172.337C221.527 171.917 221.527 171.341 221.527 170.607C221.527 169.087 221.475 166.885 221.475 164.108L221.58 164.212C213.991 164.212 201.902 164.265 188.296 164.265C188.348 164.212 188.139 164.422 188.453 164.108V164.16V164.212V164.37V164.632V165.208C188.453 165.575 188.453 165.942 188.453 166.361C188.453 167.095 188.453 167.881 188.453 168.615C188.453 170.083 188.453 171.55 188.453 172.965L188.296 172.808C197.768 172.861 206.089 172.861 212.003 172.861C214.986 172.861 217.341 172.913 219.015 172.913C219.8 172.913 220.481 172.913 220.899 172.913C221.109 172.913 221.266 172.913 221.37 172.913C221.475 172.965 221.527 172.965 221.527 172.965C221.527 172.965 221.475 172.965 221.37 172.965C221.266 172.965 221.109 172.965 220.899 172.965C220.481 172.965 219.853 172.965 219.068 172.965C217.393 172.965 215.038 173.018 212.107 173.018C206.141 173.018 197.82 173.07 188.296 173.07H188.139V172.913C188.139 171.498 188.139 170.03 188.139 168.563C188.139 167.829 188.139 167.095 188.139 166.309C188.139 165.942 188.139 165.575 188.139 165.156V164.579V164.317V164.16V164.108V164.055C188.453 163.688 188.243 163.95 188.296 163.898C201.902 163.95 213.991 163.95 221.58 163.95H221.684V164.055C221.684 166.885 221.632 169.087 221.632 170.607C221.632 171.341 221.632 171.917 221.632 172.337C221.632 172.494 221.632 172.651 221.632 172.756C221.527 172.913 221.527 172.965 221.527 172.965Z" fill="#D9D9D9"/>
<path d="M226.029 164.055C226.029 164.055 226.029 164.003 226.029 163.898C226.029 163.793 226.029 163.636 226.029 163.426C226.029 163.007 226.029 162.378 225.976 161.644C225.976 160.072 225.924 157.87 225.924 155.197L226.029 155.302C220.848 155.302 213.783 155.354 206.037 155.354C205.88 155.512 206.247 155.145 206.194 155.197V155.25V155.302V155.459V155.774V156.35C206.194 156.717 206.194 157.137 206.194 157.503C206.194 158.29 206.194 159.023 206.194 159.757C206.194 161.225 206.194 162.692 206.194 164.055L206.037 163.898C211.794 163.95 216.766 163.95 220.324 163.95C222.104 163.95 223.464 164.003 224.511 164.003C224.982 164.003 225.348 164.003 225.61 164.003C225.872 164.055 226.029 164.055 226.029 164.055C226.029 164.055 225.924 164.055 225.662 164.055C225.401 164.055 225.034 164.055 224.563 164.055C223.569 164.055 222.156 164.055 220.429 164.108C216.818 164.108 211.846 164.16 206.037 164.16H205.88V164.003C205.88 162.64 205.88 161.172 205.88 159.705C205.88 158.971 205.88 158.185 205.88 157.451C205.88 157.084 205.88 156.665 205.88 156.298V155.721V155.407V155.25V155.197V155.145C205.828 155.197 206.194 154.83 206.037 154.988C213.783 154.988 220.848 155.04 226.029 155.04H226.133V155.145C226.081 157.87 226.081 160.124 226.081 161.697C226.081 162.43 226.081 163.007 226.029 163.426C226.029 163.898 226.029 164.108 226.029 164.055Z" fill="#D9D9D9"/>
<path d="M78.8146 10.4827C78.5006 9.59168 77.8726 8.80548 77.0876 8.22893C76.3026 7.65237 75.4129 7.33789 74.4709 7.33789C73.4765 7.33789 72.4822 7.7572 71.8019 8.54341C71.3832 8.96272 71.1215 9.53927 70.9645 10.1158C70.5982 9.69651 70.1272 9.38203 69.6562 9.17237C68.7142 8.80548 67.6152 8.80548 66.7255 9.2772C65.8882 9.69651 65.2078 10.3779 64.7368 11.2165C64.2658 12.0551 64.0042 13.051 64.1088 13.9944C64.2135 15.2 64.7368 16.4055 65.5742 17.2965C66.4639 18.24 67.6675 18.8689 68.8712 19.2358C70.9122 19.9172 73.5812 20.7558 73.5812 20.7558C73.5812 20.7558 75.2559 18.8165 76.7735 17.3489C77.7156 16.4579 78.5529 15.3572 78.9192 14.1517C79.2856 12.9462 79.2332 11.6358 78.8146 10.4827Z" fill="#D9D9D9"/>
<path d="M228.069 51.7847C228.331 50.8413 228.226 49.8454 227.86 48.9544C227.546 48.0633 226.97 47.2247 226.185 46.7006C225.348 46.124 224.301 45.9668 223.307 46.1764C222.731 46.3337 222.156 46.5957 221.737 46.9626C221.632 46.4385 221.475 45.9144 221.161 45.4426C220.586 44.604 219.696 44.0275 218.702 43.8702C217.76 43.713 216.818 43.9226 215.98 44.3944C215.143 44.8137 214.358 45.4951 213.887 46.3337C213.311 47.382 213.05 48.6923 213.259 49.8978C213.468 51.1557 214.149 52.3613 214.934 53.3571C216.242 55.0344 217.969 57.2357 217.969 57.2357C217.969 57.2357 220.429 56.5544 222.522 56.1875C223.778 55.9778 225.086 55.5585 226.081 54.7723C227.075 54.0909 227.755 52.9378 228.069 51.7847Z" fill="#D9D9D9"/>
<path d="M16.0666 133.655C15.7003 132.764 15.0199 132.03 14.2349 131.454C13.4499 130.93 12.5079 130.615 11.5659 130.668C10.5716 130.72 9.57726 131.192 8.94926 131.925C8.58293 132.397 8.26893 132.921 8.16426 133.498C7.79793 133.131 7.32692 132.817 6.80359 132.607C5.86159 132.292 4.76258 132.345 3.87291 132.817C3.03558 133.236 2.35524 133.97 1.93658 134.861C1.51791 135.699 1.25624 136.695 1.41324 137.639C1.57024 138.844 2.14591 140.05 3.03558 140.888C3.92525 141.779 5.18125 142.356 6.43726 142.723C8.47826 143.352 11.1996 144.033 11.1996 144.033C11.1996 144.033 12.7696 142.041 14.2873 140.469C15.1769 139.578 15.962 138.425 16.3283 137.219C16.6423 136.119 16.4853 134.808 16.0666 133.655Z" fill="#D9D9D9"/>
<path d="M225.034 199.12C225.034 199.172 175.997 199.277 115.5 199.277C55.0023 199.277 5.96582 199.225 5.96582 199.12C5.96582 199.015 55.0023 198.963 115.5 198.963C175.945 199.015 225.034 199.068 225.034 199.12Z" fill="#263238"/>
<path d="M54.479 101.473H43.96V34.4358H54.479V63.1586H66.4634V34.4358H77.1917V101.473H66.4634V72.7503H54.5313V101.473H54.479Z" fill="#1D60A6"/>
<path d="M143.864 114.105V165.837C143.864 170.607 145.958 172.337 149.307 172.337C152.656 172.337 154.75 170.607 154.75 165.837V114.105H164.693V165.156C164.693 175.901 159.355 182.033 148.993 182.033C138.683 182.033 133.293 175.901 133.293 165.156V114.105H143.864Z" fill="#FFBE33"/>
<path d="M121.466 99.1669H110.843L109.011 87.0069H96.0847L94.253 99.1669H84.5713L95.2997 32.1296H110.686L121.466 99.1669ZM97.4977 77.8869H107.65L102.574 43.9752L97.4977 77.8869Z" fill="#1D60A6"/>
<path d="M135.596 50.5792V99.1144H126.124V32.0771H139.312L150.093 72.2261V32.0771H159.46V99.1144H148.68L135.596 50.5792Z" fill="#1D60A6"/>
<path d="M187.249 68.2952L185.103 74.5848L188.243 94.0827L178.3 95.6552L168.095 32.1821L178.038 30.6096L182.486 58.2841L191.121 28.5131L201.065 26.9407L191.749 57.4455L211.218 90.4138L200.96 92.0386L187.249 68.2952Z" fill="#1D60A6"/>
<path d="M96.5029 130.196C96.5029 119.451 102.155 113.319 112.465 113.319C122.774 113.319 128.426 119.451 128.426 130.196V165.103C128.426 175.848 122.774 181.981 112.465 181.981C102.155 181.981 96.5029 175.848 96.5029 165.103V130.196ZM107.022 165.732C107.022 170.502 109.115 172.337 112.465 172.337C115.814 172.337 117.907 170.502 117.907 165.732V129.514C117.907 124.745 115.814 122.91 112.465 122.91C109.115 122.91 107.022 124.745 107.022 129.514V165.732Z" fill="#FFBE33"/>
<path d="M72.1159 160.491L58.8232 115.677H69.8133L77.8726 146.234L85.932 115.677H95.98L82.6873 160.491V182.714H72.1683V160.491H72.1159Z" fill="#FFBE33"/>
<path d="M169.403 103.15L166.106 84.753C165.112 80.193 166.996 75.8427 171.549 75.0041L171.968 74.9517C176.259 74.4275 180.236 77.2579 181.126 81.5034C181.963 85.4344 182.801 89.8372 183.062 91.9861C183.586 96.4413 179.242 97.6468 179.242 97.6468C179.242 97.6468 179.661 100.32 179.87 101.63L181.388 104.461L177.62 104.199L169.403 103.15Z" fill="#FFDF99"/>
<path d="M179.19 97.6469C179.19 97.6469 176.416 98.171 173.224 96.651C173.224 96.651 175.003 99.7958 179.399 98.8524L179.19 97.6469Z" fill="#FFBE33"/>
<path d="M179.451 85.8013C179.504 86.1158 179.242 86.4303 178.928 86.5351C178.562 86.5875 178.248 86.3779 178.195 86.0634C178.143 85.7489 178.405 85.4344 178.719 85.3296C179.085 85.2248 179.399 85.4344 179.451 85.8013Z" fill="#263238"/>
<path d="M180.394 83.5475C180.341 83.6523 179.818 83.3378 179.138 83.4427C178.457 83.4951 177.986 83.9144 177.934 83.862C177.882 83.8096 177.934 83.6523 178.143 83.4951C178.353 83.2854 178.667 83.1282 179.085 83.0758C179.504 83.0234 179.87 83.1282 180.132 83.2854C180.341 83.3902 180.446 83.4951 180.394 83.5475Z" fill="#263238"/>
<path d="M173.224 86.5351C173.276 86.8495 173.014 87.164 172.7 87.2688C172.334 87.3213 172.02 87.1116 171.968 86.7971C171.915 86.4826 172.177 86.1682 172.491 86.0633C172.857 86.0109 173.171 86.2206 173.224 86.5351Z" fill="#263238"/>
<path d="M173.747 84.5433C173.695 84.6482 173.171 84.3337 172.491 84.4385C171.811 84.4909 171.34 84.9102 171.287 84.8578C171.235 84.8054 171.287 84.6482 171.497 84.4909C171.706 84.2813 172.02 84.124 172.439 84.0716C172.857 84.0192 173.224 84.124 173.485 84.2813C173.695 84.3337 173.799 84.4909 173.747 84.5433Z" fill="#263238"/>
<path d="M176.887 89.4703C176.887 89.4179 177.305 89.313 177.986 89.1558C178.143 89.1034 178.3 89.051 178.352 88.9461C178.352 88.8413 178.3 88.6317 178.195 88.422C177.986 88.0027 177.776 87.5834 177.515 87.1641C176.573 85.382 175.84 83.862 175.945 83.862C175.997 83.8096 176.834 85.2248 177.776 87.0593C177.986 87.4786 178.247 87.9503 178.457 88.3172C178.561 88.5268 178.666 88.7365 178.614 88.9986C178.561 89.1558 178.457 89.2606 178.352 89.313C178.247 89.3655 178.143 89.3655 178.038 89.3655C177.305 89.4703 176.887 89.5227 176.887 89.4703Z" fill="#263238"/>
<path d="M173.747 82.3944C173.695 82.6041 173.014 82.4992 172.177 82.5516C171.392 82.6041 170.712 82.8661 170.607 82.6565C170.554 82.5516 170.659 82.3944 170.921 82.2372C171.183 82.0799 171.601 81.9227 172.072 81.8703C172.543 81.8179 173.014 81.9227 173.276 82.0275C173.59 82.1323 173.747 82.2896 173.747 82.3944Z" fill="#263238"/>
<path d="M180.184 81.5558C180.079 81.713 179.503 81.6606 178.823 81.713C178.143 81.7654 177.619 81.9751 177.462 81.8703C177.41 81.8178 177.462 81.6082 177.672 81.4509C177.881 81.2937 178.3 81.0841 178.718 81.0316C179.189 80.9792 179.608 81.084 179.87 81.1889C180.131 81.2937 180.236 81.451 180.184 81.5558Z" fill="#263238"/>
<path d="M166.839 87.9502C166.734 87.9502 163.699 87.4261 164.17 90.4661C164.641 93.5061 167.571 92.4054 167.571 92.3006C167.571 92.1958 166.839 87.9502 166.839 87.9502Z" fill="#FFDF99"/>
<path d="M166.473 91.3048C166.473 91.3048 166.421 91.3572 166.368 91.4096C166.264 91.4621 166.159 91.5145 166.002 91.4621C165.688 91.4096 165.322 90.9379 165.217 90.4138C165.165 90.1517 165.165 89.8896 165.269 89.6276C165.322 89.4179 165.426 89.2083 165.583 89.1559C165.74 89.1034 165.845 89.1559 165.897 89.2607C165.95 89.3131 165.95 89.4179 165.95 89.4179C165.95 89.4179 166.002 89.3655 165.95 89.2607C165.95 89.2083 165.897 89.1559 165.793 89.1034C165.688 89.051 165.583 89.051 165.479 89.051C165.269 89.1034 165.06 89.3655 165.008 89.6276C164.903 89.8896 164.903 90.2041 164.955 90.5186C165.06 91.1476 165.479 91.6193 165.95 91.7241C166.159 91.7241 166.316 91.6717 166.421 91.5669C166.473 91.3572 166.473 91.3048 166.473 91.3048Z" fill="#FFBE33"/>
<path d="M174.793 90.2565C174.898 90.2565 175.002 90.9378 175.683 91.3047C176.363 91.6716 177.096 91.5144 177.096 91.5668C177.096 91.6192 176.939 91.7241 176.625 91.7765C176.311 91.8289 175.84 91.8289 175.421 91.5668C175.002 91.3047 174.793 90.9379 174.688 90.6758C174.688 90.4137 174.741 90.2565 174.793 90.2565Z" fill="#263238"/>
<path d="M186.516 76.4717C186.464 76.3144 186.307 76.1572 186.098 76.1048C185.731 75.9475 185.313 76.0524 184.946 76.1048C184.004 76.262 183.01 76.1572 182.068 75.8427C182.33 75.633 182.591 75.4234 182.801 75.1613C183.219 74.5848 183.376 73.7986 183.062 73.1696C183.01 73.0648 182.905 72.9599 182.801 72.9075C182.591 72.8551 182.434 73.1172 182.33 73.2744C181.963 73.851 181.597 74.113 180.917 74.1655C180.498 74.1655 180.079 74.1655 179.713 74.0082C179.713 74.0082 179.661 74.0082 179.661 73.9558C179.504 73.7986 179.294 73.6937 179.137 73.5365C177.829 72.593 176.73 71.9641 175.683 71.702C174.113 71.3351 171.601 71.4924 170.136 72.1213C168.671 72.7503 167.467 74.2179 167.519 75.8427C166.525 75.2661 165.269 75.4758 164.275 76.0524H164.222C163.123 76.6289 162.652 77.9917 162.495 79.2496C162.495 79.302 162.495 79.4068 162.495 79.4593C162.181 80.1406 161.763 80.7696 161.187 81.2413C161.082 81.3461 160.978 81.451 160.978 81.5558C160.978 81.6606 161.135 81.7655 161.239 81.8179C161.553 81.9751 161.92 82.0799 162.234 82.0799C162.181 82.3944 162.077 82.6565 161.972 82.971C161.867 83.233 161.763 83.4951 161.92 83.7048C162.024 83.862 162.286 83.9144 162.495 83.862C162.705 83.8096 162.862 83.6523 163.019 83.5475C162.914 83.862 162.862 84.2289 162.757 84.5434C163.176 84.5434 163.647 84.4386 164.013 84.2813C164.432 85.382 164.955 87.3737 165.321 88.1075C166.106 88.0027 166.316 87.8979 166.734 87.9503C167.258 88.0551 167.205 88.9986 167.886 88.6317C168.2 88.422 168.514 87.0592 168.618 86.6923C169.037 84.2289 168.88 81.6606 168.252 79.302C168.671 78.7255 169.194 78.2013 169.77 77.782L169.717 77.8344C170.869 77.2055 172.229 76.5765 173.485 76.9958C174.48 77.3103 175.16 78.1489 175.945 78.8303C177.463 80.0358 179.033 80.6124 180.969 80.3503C181.335 81.6606 181.754 83.8096 182.016 85.0675L182.696 82.3944C182.748 82.2372 182.801 82.0799 182.853 81.9227V81.8703C182.905 81.6082 183.01 81.3461 183.115 81.0841C183.9 81.5558 184.737 80.5075 184.109 79.8786C184.004 79.7737 183.847 79.6165 183.69 79.5641C184.057 79.8261 184.528 79.8786 184.894 79.6689C185.26 79.4592 185.522 79.0399 185.417 78.6206C185.365 78.3586 185.103 78.0965 184.842 78.0441C185.417 77.9917 185.941 77.782 186.359 77.4675C186.412 77.2055 186.673 76.891 186.516 76.4717Z" fill="#263238"/>
<path d="M168.984 76.2096C168.984 76.2096 168.827 76.3668 168.618 76.6813C168.408 76.9958 168.199 77.5724 168.147 78.2537C168.147 78.6206 168.147 78.9875 168.199 79.4068C168.251 79.8261 168.356 80.2455 168.461 80.7172C168.565 81.1889 168.67 81.6606 168.722 82.1848C168.722 82.4468 168.775 82.7089 168.722 82.971C168.722 83.233 168.67 83.4951 168.513 83.7572C168.408 83.9668 168.147 84.0717 167.937 84.0717C167.728 84.0717 167.519 83.9668 167.309 83.862C166.995 83.5999 166.838 83.1806 166.734 82.8137H166.838C166.734 83.1806 166.629 83.5475 166.42 83.8096C166.21 84.1241 165.949 84.3337 165.635 84.3861C165.478 84.4386 165.321 84.4386 165.164 84.3861C165.007 84.3337 164.902 84.2289 164.797 84.1241C164.693 84.0193 164.64 83.862 164.64 83.7572C164.64 83.5999 164.64 83.4951 164.745 83.3903L164.797 83.4427C164.536 83.862 164.169 84.1241 163.96 84.2813C164.169 84.1241 164.483 83.862 164.745 83.3903L164.797 83.4427C164.693 83.5999 164.693 83.9144 164.85 84.1241C164.954 84.2289 165.059 84.3337 165.164 84.3337C165.321 84.3861 165.425 84.3861 165.582 84.3337C165.896 84.2813 166.158 84.0717 166.315 83.7572C166.472 83.4951 166.577 83.1282 166.681 82.7613L166.734 82.6041L166.786 82.7613C166.891 83.1282 167.048 83.4951 167.362 83.7572C167.519 83.862 167.728 83.9668 167.885 83.9668C168.094 83.9668 168.304 83.862 168.408 83.7048C168.565 83.4951 168.565 83.233 168.565 82.971C168.565 82.7089 168.565 82.4468 168.565 82.1848C168.513 81.6606 168.408 81.1889 168.304 80.7696C168.199 80.2979 168.094 79.8786 168.042 79.4593C167.99 79.0399 167.99 78.673 167.99 78.3061C168.042 77.5724 168.251 77.0482 168.461 76.7337C168.775 76.3144 168.984 76.2096 168.984 76.2096Z" fill="#1D60A6"/>
<path d="M183.271 78.3586C183.219 78.411 183.167 78.4634 183.167 78.5158C183.114 78.5683 183.062 78.6207 183.01 78.6731C182.957 78.7255 182.853 78.7779 182.748 78.8303C182.382 79.0924 181.754 79.4069 180.916 79.4593C180.079 79.5641 179.085 79.4069 178.09 78.8827C177.096 78.3586 176.206 77.5724 175.369 76.5765C174.95 76.1048 174.636 75.5807 174.27 75.1089C173.904 74.6372 173.537 74.2179 173.066 73.9034C172.648 73.5889 172.124 73.3793 171.653 73.3269C171.392 73.2745 171.182 73.3269 170.973 73.3793C170.764 73.4317 170.554 73.4841 170.397 73.5889C170.031 73.7986 169.769 74.0083 169.56 74.2703C169.351 74.5324 169.246 74.7945 169.141 75.0041C168.984 75.4234 169.037 75.6855 169.037 75.6855C169.037 75.6855 169.037 75.6855 169.037 75.6331C169.037 75.5807 169.037 75.5283 169.037 75.4758C169.037 75.371 169.089 75.1614 169.141 74.9517C169.194 74.742 169.351 74.48 169.508 74.2179C169.717 73.9558 169.979 73.6938 170.345 73.4841C170.554 73.3793 170.711 73.3269 170.973 73.2745C171.182 73.222 171.444 73.222 171.706 73.222C172.177 73.2745 172.7 73.4841 173.119 73.7986C173.59 74.1131 173.956 74.5324 174.322 75.0041C174.689 75.4758 175.055 76 175.421 76.4717C176.206 77.4151 177.096 78.2538 178.09 78.7255C179.032 79.2496 180.027 79.3545 180.864 79.302C181.701 79.2496 182.277 78.9351 182.696 78.7255C183.114 78.5683 183.271 78.3586 183.271 78.3586Z" fill="#1D60A6"/>
<path d="M183.376 76.3668C183.376 76.3668 183.324 76.4192 183.219 76.5241C183.114 76.6289 182.957 76.7337 182.8 76.8386C182.591 76.9434 182.382 77.1006 182.12 77.2054C181.858 77.3103 181.544 77.4151 181.178 77.4675C180.864 77.5199 180.498 77.5723 180.236 77.5723C179.922 77.5723 179.66 77.5199 179.451 77.5199C179.242 77.4675 179.032 77.4151 178.928 77.3627C178.823 77.3103 178.771 77.3103 178.771 77.3103C178.771 77.3103 179.032 77.3627 179.503 77.4675C179.713 77.5199 179.974 77.5199 180.288 77.5199C180.602 77.5199 180.916 77.4675 181.23 77.4151C181.544 77.3627 181.858 77.2579 182.12 77.153C182.382 77.0482 182.643 76.9434 182.8 76.8386C183.167 76.5241 183.376 76.3668 183.376 76.3668Z" fill="#1D60A6"/>
<path d="M175.317 147.754L177.463 173.123L176.73 177.525C176.73 177.525 167.938 202.789 168.147 213.272L178.405 212.8C178.405 212.8 188.453 184.182 189.238 180.985C190.023 177.84 194.052 156.665 194.052 156.665L200.699 173.385L200.908 177.263L197.088 201.531L209.02 202.16C209.02 202.16 213.887 174.643 213.416 171.026C212.945 167.41 205.042 139.525 205.042 139.525L200.96 135.961L177.724 139.892L175.317 147.754Z" fill="#263238"/>
<path d="M207.973 194.822L207.606 204.99C207.606 204.99 217.288 208.816 217.393 210.703L198.71 210.651L198.657 194.77L207.973 194.822Z" fill="#263238"/>
<path d="M201.798 204.152C201.431 204.256 201.17 204.676 201.274 205.095C201.379 205.462 201.745 205.776 202.112 205.672C202.478 205.567 202.792 205.095 202.687 204.676C202.583 204.309 202.059 203.994 201.745 204.204" fill="#D9D9D9"/>
<path d="M198.657 210.651L198.71 209.026L216.608 209.708C216.608 209.708 217.445 210.074 217.34 210.703L198.657 210.651Z" fill="#1D60A6"/>
<path d="M207.868 204.938C207.868 205.043 207.397 205.095 206.978 205.409C206.507 205.724 206.298 206.143 206.193 206.091C206.089 206.091 206.246 205.514 206.821 205.147C207.345 204.728 207.92 204.833 207.868 204.938Z" fill="#FEFEFE"/>
<path d="M209.857 205.776C209.857 205.881 209.491 206.038 209.177 206.458C208.863 206.877 208.758 207.296 208.706 207.296C208.601 207.296 208.549 206.72 208.967 206.248C209.281 205.724 209.857 205.672 209.857 205.776Z" fill="#FEFEFE"/>
<path d="M210.956 208.292C210.851 208.292 210.746 207.821 211.008 207.296C211.217 206.772 211.688 206.563 211.688 206.615C211.741 206.72 211.479 206.982 211.27 207.401C211.06 207.873 211.06 208.24 210.956 208.292Z" fill="#FEFEFE"/>
<path d="M207.711 202.579C207.659 202.684 207.24 202.527 206.717 202.579C206.194 202.579 205.775 202.789 205.775 202.684C205.723 202.632 206.141 202.265 206.717 202.212C207.345 202.212 207.764 202.527 207.711 202.579Z" fill="#FEFEFE"/>
<path d="M177.463 205.567L177.515 217.255L180.237 226.48C180.446 227.161 180.027 227.843 179.347 228C178.981 228.105 178.562 228 178.3 227.738C176.469 226.061 169.77 219.928 169.822 219.09C169.875 218.094 168.933 206.772 168.933 206.772L177.463 205.567Z" fill="#263238"/>
<path d="M179.347 228L169.77 218.303V218.775C169.77 219.194 169.927 219.614 170.241 219.928C171.026 220.767 173.171 223.073 178.248 227.738C178.562 228 178.98 228.105 179.347 228Z" fill="#1D60A6"/>
<g opacity="0.6">
<path d="M172.072 214.425C172.386 214.634 172.491 215.054 172.282 215.368C172.125 215.683 171.653 215.788 171.339 215.578C171.025 215.368 170.868 214.844 171.13 214.582C171.339 214.32 171.863 214.215 172.124 214.425" fill="#FEFEFE"/>
</g>
<path d="M176.521 222.968C176.573 223.021 176.835 222.392 177.515 222.025C178.195 221.658 178.823 221.815 178.876 221.71C178.876 221.658 178.719 221.605 178.457 221.553C178.195 221.501 177.777 221.553 177.41 221.763C177.044 221.972 176.782 222.234 176.625 222.497C176.521 222.759 176.521 222.968 176.521 222.968Z" fill="#FEFEFE"/>
<path d="M177.411 224.488C177.463 224.541 177.83 224.121 178.405 223.964C178.981 223.755 179.504 223.859 179.557 223.807C179.609 223.755 179.033 223.492 178.353 223.755C177.673 223.964 177.359 224.488 177.411 224.488Z" fill="#FEFEFE"/>
<path d="M174.951 220.977C175.003 221.029 175.579 220.452 176.468 220.033C177.358 219.666 178.195 219.666 178.195 219.561C178.195 219.509 177.358 219.352 176.364 219.771C175.369 220.243 174.846 220.977 174.951 220.977Z" fill="#FEFEFE"/>
<path d="M174.585 217.465C174.637 217.517 175.265 217.255 176.103 217.203C176.94 217.15 177.62 217.308 177.62 217.255C177.673 217.203 176.992 216.888 176.05 216.941C175.213 216.993 174.585 217.412 174.585 217.465Z" fill="#FEFEFE"/>
<path d="M174.479 214.005C174.532 214.058 175.16 213.639 176.049 213.691C176.939 213.691 177.567 214.11 177.62 214.058C177.62 214.058 177.515 213.901 177.253 213.743C176.992 213.586 176.573 213.481 176.102 213.481C175.631 213.481 175.212 213.586 174.95 213.743C174.636 213.848 174.479 214.005 174.479 214.005Z" fill="#FEFEFE"/>
<path d="M163.908 103.727C163.908 103.727 157.628 107.501 162.181 116.516C167.729 127.575 173.014 143.142 174.794 144.19C175.526 144.61 178.98 142.88 178.98 142.88L181.754 137.743L174.427 118.612L169.665 107.553L163.908 103.727Z" fill="#263238"/>
<path d="M168.461 100.792L163.908 103.727L175.997 125.112L174.27 144.243L176.992 145.815L205.252 141.884L206.141 140.626L203.054 131.559L198.919 121.495C198.919 121.495 194.837 112.323 192.43 108.444C190.023 104.565 187.406 100.582 187.406 100.582L180.498 100.11L179.661 99.1669C179.661 99.1669 178.614 101.054 175.788 101.263C173.485 101.421 168.566 100.163 168.566 100.163L168.461 100.792Z" fill="#263238"/>
<path d="M224.877 132.397C224.877 132.397 208.287 119.084 206.927 117.564C205.566 115.992 194.052 103.884 194.052 103.884C194.052 103.884 189.813 99.8482 187.406 100.634C184.423 101.578 190.337 115.887 190.337 115.887C190.337 115.887 202.531 126.003 204.519 127.942C206.508 129.881 218.388 137.534 218.388 137.534L221.214 137.167L224.877 132.397Z" fill="#263238"/>
<path d="M171.13 112.27C171.13 112.27 171.182 112.375 171.235 112.532C171.339 112.742 171.444 112.952 171.549 113.266C171.81 113.895 172.177 114.839 172.7 115.992C173.694 118.298 175.107 121.443 176.625 124.902C178.195 128.361 179.556 131.559 180.445 133.917C180.916 135.07 181.23 136.014 181.44 136.695C181.544 137.01 181.649 137.272 181.701 137.481C181.754 137.639 181.806 137.743 181.754 137.743C181.754 137.743 181.701 137.639 181.649 137.481C181.597 137.272 181.492 137.062 181.335 136.748C181.073 136.119 180.707 135.175 180.236 134.022C179.294 131.716 177.933 128.519 176.363 125.059C174.793 121.6 173.433 118.403 172.491 116.096C172.02 114.943 171.653 114 171.444 113.319C171.339 113.004 171.235 112.742 171.182 112.585C171.13 112.323 171.13 112.27 171.13 112.27Z" fill="#263238"/>
<path d="M191.384 106.819C191.384 106.819 191.436 106.872 191.541 106.977C191.645 107.081 191.75 107.239 191.907 107.448C192.221 107.868 192.587 108.497 193.006 109.335C193.896 110.96 195.047 113.214 196.251 115.782C197.454 118.298 198.553 120.604 199.286 122.334C199.652 123.172 199.966 123.854 200.176 124.326C200.385 124.797 200.49 125.059 200.437 125.059C200.437 125.059 200.28 124.797 200.071 124.326C199.809 123.801 199.495 123.172 199.129 122.334C198.292 120.657 197.245 118.35 196.041 115.835C194.838 113.319 193.686 111.012 192.849 109.388C192.43 108.549 192.064 107.92 191.802 107.501C191.593 107.081 191.384 106.872 191.384 106.819Z" fill="#263238"/>
<path d="M230.895 114.943C230.529 111.117 228.697 107.501 226.185 104.566C223.726 101.683 220.481 99.429 216.818 98.5903C212.893 97.6469 208.654 98.4331 205.304 100.634C203.316 101.945 201.693 103.779 200.542 105.876C199.495 103.989 198.03 102.312 196.251 101.054C193.006 98.7476 188.767 97.8041 184.842 98.5903C181.126 99.3241 177.829 101.526 175.265 104.303C172.648 107.134 170.764 110.698 170.241 114.524C169.613 119.294 170.45 124.588 172.858 128.781C175.422 133.183 179.609 136.8 183.9 139.473C191.174 144.033 200.751 149.694 200.751 149.694C200.751 149.694 209.02 143.719 216.399 139.421C220.795 136.852 225.086 133.393 227.808 129.095C230.32 125.007 231.366 119.766 230.895 114.943Z" fill="#FFBE33"/>
<path d="M195.936 146.392L192.849 144.505C192.849 144.505 189.709 142.461 189.552 142.094C189.342 141.779 189.185 140.941 189.185 140.469C189.185 139.997 190.598 139.001 190.755 138.11C190.912 137.219 189.97 136.381 189.656 136.223C189.342 136.066 188.976 136.59 188.924 136.957C188.871 137.324 188.296 137.901 187.406 138.11C186.516 138.32 185.313 139.473 185.313 139.473L182.644 144.452C183.115 145.291 188.557 147.335 188.714 147.44C188.871 147.545 194.68 147.65 195.256 147.44C195.779 147.335 195.989 147.073 195.936 146.392Z" fill="#FFDF99"/>
<path d="M227.441 133.393C227.441 134.232 225.766 134.075 225.766 134.075C225.923 134.494 225.033 135.437 224.458 135.175C224.615 135.49 224.719 135.595 224.719 135.909C224.667 136.223 224.51 136.538 224.196 136.695C223.882 136.852 223.516 136.8 223.306 136.538C223.411 137.062 223.149 137.586 222.678 137.848C222.417 138.006 222.103 138.058 221.789 137.953C221.632 137.901 221.475 137.848 221.37 137.796C221.318 137.743 221.265 137.743 221.213 137.691C221.213 137.691 221.213 137.639 221.161 137.639C221.108 137.534 221.108 137.377 221.108 137.272C221.108 137.219 221.056 137.167 221.056 137.115C220.951 136.905 220.847 136.748 220.742 136.538C220.69 136.486 220.585 136.381 220.533 136.328C220.48 136.276 220.48 136.223 220.48 136.119C220.323 135.699 220.009 135.385 219.748 135.123C219.434 134.808 219.12 134.441 219.015 133.97C218.91 133.498 219.172 132.974 219.643 132.921C219.381 132.764 219.381 132.397 219.538 132.135C219.695 131.873 220.009 131.768 220.323 131.768C220.637 131.768 220.899 131.926 221.161 132.083C220.899 131.821 220.951 131.401 221.213 131.139C221.475 130.93 221.841 130.877 222.207 130.982C222.521 131.087 222.835 131.297 223.097 131.506C223.359 131.716 224.458 132.659 224.719 132.869L225.452 132.24L225.557 132.135C226.132 132.397 226.342 132.397 226.813 132.659C227.074 132.817 227.441 133.026 227.441 133.393Z" fill="#FFDF99"/>
<path d="M220.585 138.792C220.376 139.001 220.114 139.159 219.853 139.106C219.539 139.054 218.806 138.372 218.597 138.11L219.696 137.324C219.748 137.115 219.434 136.957 219.382 136.748C219.225 136.381 219.434 135.961 219.8 135.804C220.167 135.647 220.585 135.804 220.847 136.066C221.109 136.328 221.266 136.748 221.266 137.115C221.266 137.744 221.004 138.372 220.585 138.792Z" fill="#FFDF99"/>
<path d="M223.307 136.643C223.359 136.59 222.574 135.699 221.528 134.703C220.481 133.655 219.644 132.869 219.591 132.921C219.539 132.974 220.324 133.865 221.371 134.861C222.365 135.909 223.255 136.695 223.307 136.643Z" fill="#FFBE33"/>
<path d="M224.458 135.228C224.51 135.175 223.882 134.337 222.888 133.393C221.894 132.502 221.004 131.926 220.952 131.978C220.899 132.03 221.737 132.712 222.679 133.603C223.673 134.494 224.406 135.28 224.458 135.228Z" fill="#FFBE33"/>
<path d="M225.61 133.865C225.662 133.812 225.086 133.131 224.249 132.397C223.411 131.663 222.731 131.139 222.679 131.192C222.626 131.244 223.255 131.873 224.092 132.607C224.929 133.288 225.557 133.917 225.61 133.865Z" fill="#FFBE33"/>
<path d="M220.899 138.268C220.899 138.268 221.109 138.215 221.213 137.901C221.318 137.639 221.37 137.167 221.161 136.8C221.004 136.381 220.795 136.066 220.585 135.857C220.324 135.647 220.114 135.699 220.114 135.752C220.114 135.804 220.271 135.804 220.428 135.961C220.585 136.171 220.742 136.486 220.899 136.852C221.056 137.219 221.056 137.586 221.004 137.796C220.952 138.11 220.847 138.215 220.899 138.268Z" fill="#FFBE33"/>
<path d="M30.877 89.7848C31.1386 89.7323 38.3083 93.2965 37.8373 93.2965C37.3663 93.2965 31.505 98.1185 31.505 98.1185L30.877 89.7848Z" fill="#FFBE33"/>
<path d="M32.1854 197.967L33.0227 206.615C33.0227 206.615 23.6027 210.127 23.498 211.857L41.2914 211.909V210.599L40.5588 206.143L39.4598 197.495L32.1854 197.967Z" fill="#1D60A6"/>
<path d="M38.3602 205.252C38.7266 205.357 38.9359 205.724 38.8836 206.091C38.7789 206.458 38.4126 206.72 38.0462 206.615C37.6799 206.51 37.3659 206.039 37.5229 205.724C37.6276 205.357 38.1509 205.095 38.4649 205.305" fill="#D9D9D9"/>
<path d="M41.291 211.909V210.599L24.2303 210.913C24.2303 210.913 23.4453 211.28 23.4976 211.856L41.291 211.909Z" fill="#263238"/>
<path d="M32.7084 206.51C32.7084 206.615 33.1794 206.615 33.5981 206.93C34.0691 207.192 34.2784 207.611 34.3307 207.559C34.4354 207.559 34.2784 207.034 33.7551 206.667C33.2317 206.353 32.6561 206.458 32.7084 206.51Z" fill="#263238"/>
<path d="M30.7725 207.349C30.7725 207.454 31.1388 207.611 31.4528 207.978C31.7668 208.345 31.8191 208.764 31.9238 208.764C32.0285 208.764 32.0808 208.24 31.6621 207.821C31.2958 207.297 30.7725 207.244 30.7725 207.349Z" fill="#263238"/>
<path d="M29.7252 209.603C29.8299 209.603 29.9345 209.183 29.7252 208.712C29.5159 208.24 29.0972 208.03 29.0449 208.083C28.9925 208.135 29.2542 208.397 29.4635 208.816C29.6205 209.236 29.6205 209.603 29.7252 209.603Z" fill="#263238"/>
<path d="M32.0806 204.466C32.1329 204.571 32.5516 204.414 33.0226 204.466C33.5459 204.466 33.9123 204.676 33.9646 204.571C34.0169 204.519 33.6506 204.152 33.0226 204.152C32.4469 204.099 32.0283 204.361 32.0806 204.466Z" fill="#263238"/>
<path d="M54.0085 198.229L54.7935 206.72C54.7935 206.72 45.5304 210.127 45.4258 211.857L62.9052 212.014V210.756L62.2248 206.405L61.1782 197.914L54.0085 198.229Z" fill="#1D60A6"/>
<path d="M60.0784 205.41C60.4447 205.514 60.654 205.881 60.6017 206.248C60.497 206.615 60.1307 206.825 59.7644 206.772C59.398 206.667 59.1364 206.248 59.241 205.881C59.3457 205.567 59.8167 205.305 60.1307 205.462" fill="#D9D9D9"/>
<path d="M62.9047 211.961V210.703L46.158 210.913C46.158 210.913 45.373 211.28 45.4254 211.804L62.9047 211.961Z" fill="#263238"/>
<path d="M54.531 206.615C54.531 206.72 54.9496 206.72 55.4206 207.034C55.8393 207.296 56.101 207.663 56.1533 207.663C56.258 207.663 56.101 207.139 55.5776 206.772C55.002 206.458 54.4786 206.563 54.531 206.615Z" fill="#263238"/>
<path d="M52.6475 207.401C52.6475 207.506 53.0138 207.611 53.2755 208.03C53.5895 208.397 53.6418 208.816 53.7465 208.764C53.8511 208.764 53.9035 208.24 53.5371 207.821C53.1185 207.349 52.6475 207.296 52.6475 207.401Z" fill="#263238"/>
<path d="M51.5485 209.655C51.6531 209.655 51.7578 209.236 51.5485 208.764C51.3391 208.292 50.9205 208.083 50.8681 208.188C50.8158 208.24 51.0775 208.502 51.2345 208.921C51.4438 209.288 51.4438 209.655 51.5485 209.655Z" fill="#263238"/>
<path d="M53.9038 204.571C53.9562 204.676 54.3225 204.519 54.8458 204.571C55.3168 204.571 55.7355 204.781 55.7878 204.676C55.8402 204.623 55.4738 204.309 54.8982 204.256C54.2702 204.256 53.8515 204.519 53.9038 204.571Z" fill="#263238"/>
<path d="M31.7666 122.753C31.7666 122.753 27.5276 134.965 27.4229 144.085C27.2659 153.205 27.1089 167.672 29.0452 183.605C30.9292 199.592 31.8189 205.986 31.8189 205.986H41.3959C41.3959 205.986 42.3903 195.975 42.2856 187.012C42.1286 178.05 41.4483 175.219 42.2856 165.365C43.123 155.512 44.4836 149.589 45.949 146.601C45.949 146.601 49.9263 141.884 50.188 135.437C50.502 128.99 48.1993 123.382 48.1993 123.382L31.7666 122.753Z" fill="#263238"/>
<path d="M40.2969 139.892C40.4539 140.364 43.2799 160.439 45.3732 169.296C47.4666 178.154 49.7692 180.461 50.1879 187.694C50.6589 195.975 52.9092 205.986 52.9092 205.986H63.1143C63.1143 205.986 61.7013 190.681 60.2359 178.731C58.8229 166.781 56.7296 152 57.0436 147.597C57.3576 143.194 58.1426 137.691 57.0436 131.506C55.9446 125.321 53.4849 123.696 53.4849 123.696L44.7976 123.33L40.2969 139.892Z" fill="#263238"/>
<path d="M49.9263 128.466C49.9263 128.466 49.9787 128.571 50.0833 128.781C50.188 128.99 50.2927 129.305 50.4497 129.724C50.7114 130.563 50.8684 131.821 50.7637 133.393C50.7114 134.965 50.4497 136.8 49.9263 138.792C49.6647 139.788 49.2983 140.836 48.8273 141.832C48.3563 142.828 47.676 143.823 46.9957 144.767C45.5827 146.706 44.9023 148.855 44.379 150.847C43.8557 152.839 43.594 154.673 43.3847 156.193C43.1753 157.713 43.0707 158.971 43.0183 159.862C42.966 160.281 42.966 160.596 42.9137 160.858C42.9137 161.068 42.8613 161.225 42.8613 161.225C42.8613 161.225 42.8613 161.12 42.8613 160.858C42.8613 160.596 42.9137 160.281 42.9137 159.862C42.966 158.971 43.0707 157.765 43.2277 156.193C43.3847 154.673 43.6463 152.786 44.1697 150.794C44.4313 149.799 44.7453 148.75 45.1117 147.702C45.321 147.178 45.5303 146.654 45.8443 146.13C46.106 145.605 46.42 145.134 46.7863 144.61C47.4667 143.614 48.147 142.723 48.618 141.727C49.089 140.731 49.4553 139.735 49.717 138.739C50.2403 136.748 50.5543 134.913 50.6067 133.393C50.659 131.873 50.5543 130.615 50.345 129.777C50.2403 129.357 50.1357 129.043 50.031 128.833C49.9787 128.571 49.9263 128.466 49.9263 128.466Z" fill="#1D60A6"/>
<path d="M58.7182 65.3076C58.7182 65.3076 58.0902 65.098 56.5202 64.7311C54.9501 64.3642 53.1185 62.6345 49.9785 62.6345C47.8328 62.6345 45.6348 63.3683 44.1171 64.7835C42.4948 66.3559 41.9714 68.7145 41.7098 70.9159C41.5004 72.5931 41.2911 74.2704 40.5061 75.7904C39.8258 77.1007 38.7268 78.149 37.7848 79.2497C36.8428 80.4028 36.0054 81.7131 36.0054 83.1807C36.0054 84.1766 36.3718 85.2773 35.7961 86.1159C35.4298 86.64 34.8541 87.5311 34.3831 87.9504C33.9121 88.4221 33.8074 89.8897 33.9121 91.0428C33.9644 91.4621 33.1794 95.1311 38.8838 97.0704C44.6928 99.0621 58.7182 65.3076 58.7182 65.3076Z" fill="#263238"/>
<path d="M59.4504 70.6538L59.712 69.1338L50.763 65.8841C47.937 65.1503 44.4307 67.5089 43.8027 70.3393C43.1223 73.4841 42.3896 77.3627 42.3896 79.8262C42.3896 84.7531 45.9483 85.9062 45.9483 85.9062L45.2157 90.6758L55.787 92.4579L59.4504 70.6538Z" fill="#FFF9EB"/>
<path d="M45.1115 74.8993C45.0592 75.2138 45.2685 75.5283 45.5825 75.6331C45.8965 75.6855 46.2629 75.4759 46.3152 75.1614C46.3675 74.8469 46.1582 74.5324 45.8442 74.4276C45.4779 74.3752 45.1639 74.5848 45.1115 74.8993Z" fill="#263238"/>
<path d="M44.4307 72.5407C44.483 72.6455 45.0063 72.3835 45.6867 72.4883C46.367 72.5931 46.7857 73.0124 46.838 72.9076C46.8903 72.8552 46.838 72.698 46.6287 72.5407C46.4193 72.3311 46.1053 72.1738 45.6867 72.069C45.268 72.0166 44.9017 72.1214 44.6923 72.2262C44.5353 72.3835 44.4307 72.5407 44.4307 72.5407Z" fill="#263238"/>
<path d="M51.1301 75.6856C51.0778 76 51.2871 76.3145 51.6011 76.4194C51.9151 76.4718 52.2814 76.2621 52.3338 75.9476C52.3861 75.6331 52.1768 75.3187 51.8628 75.2138C51.5488 75.1614 51.2348 75.3711 51.1301 75.6856Z" fill="#263238"/>
<path d="M50.9206 73.6938C50.9729 73.7986 51.4962 73.5366 52.1766 73.6414C52.8569 73.7462 53.2756 74.1655 53.3279 74.0607C53.3802 74.0083 53.3279 73.851 53.1186 73.6938C52.9092 73.4841 52.5952 73.3269 52.1766 73.2221C51.7579 73.1697 51.3916 73.2745 51.1822 73.3793C50.9729 73.5366 50.8682 73.6414 50.9206 73.6938Z" fill="#263238"/>
<path d="M47.7284 78.2014C47.7284 78.149 47.3621 78.0442 46.6818 77.8345C46.5248 77.7821 46.3678 77.7297 46.3678 77.6248C46.3678 77.52 46.4724 77.3104 46.5771 77.1531C46.7864 76.7862 47.0481 76.3669 47.2574 75.9476C48.2518 74.2179 48.9844 72.8028 48.8798 72.7504C48.8274 72.698 47.9378 74.0607 46.9958 75.7904C46.7341 76.2097 46.5248 76.629 46.3154 76.9959C46.2108 77.1531 46.0538 77.3628 46.1061 77.6248C46.1061 77.7821 46.2631 77.8869 46.3678 77.9393C46.4724 77.9917 46.5771 77.9917 46.6294 78.0442C47.3098 78.2014 47.7284 78.2538 47.7284 78.2014Z" fill="#263238"/>
<path d="M45.8963 85.9586C45.8963 85.9586 49.2456 86.6924 52.7519 85.2772C52.7519 85.2772 50.6063 88.3696 45.7393 87.1641L45.8963 85.9586Z" fill="#FFBE33"/>
<path d="M51.2871 71.44C51.3394 71.6496 52.0198 71.5972 52.7524 71.7545C53.5375 71.9117 54.1131 72.1738 54.2701 72.069C54.3224 72.0165 54.2178 71.8069 54.0084 71.5972C53.7991 71.3876 53.3804 71.1779 52.9094 71.0731C52.4384 70.9683 52.0198 71.0207 51.7058 71.0731C51.4441 71.2303 51.2871 71.3352 51.2871 71.44Z" fill="#263238"/>
<path d="M44.7978 70.9159C44.9025 71.0732 45.3735 71.0208 45.8968 71.0732C46.4725 71.1256 46.8911 71.3352 46.9958 71.178C47.0481 71.1256 46.9958 70.9683 46.8388 70.7587C46.6818 70.6015 46.3678 70.3918 45.9491 70.3394C45.5828 70.287 45.2165 70.3918 45.0071 70.4966C44.8501 70.7063 44.7455 70.8635 44.7978 70.9159Z" fill="#263238"/>
<path d="M48.0945 79.8786C48.3562 79.5641 48.7749 79.4069 49.1935 79.5117C49.4552 79.5641 49.7692 79.7214 49.9262 79.931C50.0832 80.1931 50.0832 80.5076 49.9262 80.7172C49.7169 80.9793 49.3505 80.9793 49.0365 80.8745C48.7225 80.7696 48.4609 80.56 48.1992 80.3503C48.1469 80.2979 48.0422 80.2455 48.0422 80.1407C47.9899 80.0883 47.9899 79.9834 48.0945 79.8786Z" fill="#FFBE33"/>
<path d="M49.7693 78.8303C49.6646 78.8303 49.6123 79.5117 48.9843 79.9834C48.3563 80.4552 47.6236 80.3503 47.5713 80.4552C47.5713 80.5076 47.7283 80.6124 48.0423 80.6124C48.3563 80.6124 48.8273 80.56 49.1936 80.2455C49.56 79.931 49.7693 79.5641 49.7693 79.2496C49.874 79.04 49.8216 78.8303 49.7693 78.8303Z" fill="#263238"/>
<path d="M57.9857 66.1986C57.7241 65.7269 55.3167 64.4166 54.7934 64.2593C54.7934 64.2593 52.8047 62.7917 49.4554 63.0538C42.5997 63.5255 43.3847 70.0772 43.3847 70.0772L47.5714 70.2869C48.3564 70.6538 50.8684 70.3393 51.6534 70.0248C52.4384 69.7104 53.1187 68.9766 53.3804 68.1379C53.171 68.9241 54.7934 71.9117 55.2644 72.5931C56.2587 74.0607 56.7297 73.7462 57.6717 75.2662C58.0381 72.9076 58.7707 70.1821 58.1427 67.771C57.9857 67.2469 58.2474 66.6704 57.9857 66.1986Z" fill="#263238"/>
<path d="M0 50.1075L31.7141 42.822L33.8598 52.1517L23.1314 54.6151L36.0054 110.698L25.7481 113.057L12.874 56.9737L2.14567 59.4372L0 50.1075Z" fill="#1D60A6"/>
<path d="M23.602 85.5392C23.602 85.5392 23.6543 85.2248 23.7066 84.7006H23.759L23.7066 84.5434C23.9683 82.7613 24.4393 79.0924 24.544 77.782C24.5963 77.3103 24.7533 76.4717 24.9103 76.0524C25.329 74.9517 24.387 74.8468 23.7066 75.4758C23.4973 75.633 23.131 76.4193 23.0263 76.7861C22.7123 77.782 22.2413 78.3586 22.2413 78.3586C22.2413 78.3586 16.2229 74.4799 15.6996 75.1089C15.1763 75.7379 15.8043 77.2055 15.8043 77.2055C15.8043 77.2055 15.0193 78.3061 15.2809 79.302C15.5426 80.3503 16.2753 80.9268 16.2753 80.9268C16.2753 80.9268 15.8566 82.2896 16.2229 82.8662C16.4846 83.2855 19.049 86.1158 19.834 86.8496L23.602 85.5392Z" fill="#FFF9EB"/>
<path d="M23.916 85.1724C23.916 85.3296 28.7307 97.542 28.7307 97.542C28.7307 97.542 35.377 93.5586 38.0984 91.7765C40.8197 89.9944 44.7447 88.0551 47.3091 88.422C49.8734 88.7889 52.5424 91.5668 52.5424 91.5668L45.0587 98.5379L36.9994 103.727C36.9994 103.727 28.5737 108.706 25.4337 108.759C22.2936 108.811 21.3516 105.771 20.619 104.146C19.9386 102.521 17.793 86.902 17.793 86.902L23.916 85.1724Z" fill="#FFBE33"/>
<path d="M59.5551 90.4137L43.541 89.8372C43.541 89.8372 34.749 95.0261 34.3826 104.199C34.0163 113.738 31.5566 122.963 31.5566 122.963L47.7277 124.954C49.4024 125.164 51.1294 125.164 52.804 124.902L54.4787 124.64L52.8564 118.56C54.6357 112.532 56.2057 109.754 58.0897 104.146C60.8634 95.4454 59.5551 90.4137 59.5551 90.4137Z" fill="#FFBE33"/>
<path d="M52.7516 119.137C52.7516 119.137 52.3329 119.294 51.6526 119.451C50.9723 119.608 49.9779 119.766 48.9313 119.766C47.8323 119.818 46.8903 119.713 46.1576 119.661C45.4773 119.556 45.0586 119.451 45.0586 119.451C45.0586 119.399 45.4773 119.451 46.2099 119.556C46.8903 119.608 47.8846 119.661 48.9313 119.608C49.9779 119.556 50.9723 119.451 51.6526 119.346C52.3329 119.189 52.7516 119.084 52.7516 119.137Z" fill="#263238"/>
<path d="M44.1687 100.058C44.1687 100.11 43.6454 100.425 42.7557 100.949C41.866 101.473 40.61 102.154 39.2494 102.888C37.8364 103.622 36.5804 104.251 35.6384 104.67C34.6964 105.09 34.1207 105.352 34.0684 105.299C34.0684 105.247 34.5917 104.985 35.5337 104.513C36.528 103.989 37.7317 103.36 39.0924 102.679C40.453 101.945 41.6567 101.316 42.6511 100.792C43.5931 100.32 44.1687 100.058 44.1687 100.058Z" fill="#100E21"/>
<path d="M52.3855 101.473C51.7052 100.268 53.6415 95.6028 52.7519 92.72C51.8622 89.8373 51.7575 89.1559 52.8042 86.1159C53.8509 83.0759 55.8395 82.5518 56.2059 78.8304C56.5722 75.1614 56.5722 74.8469 57.4095 72.069C58.2469 69.2911 55.2115 64.4166 55.2115 64.4166C58.2469 64.2069 61.8055 66.4607 62.7475 69.3959C63.3232 71.2304 63.2185 74.5325 63.5849 76.4194C64.1605 79.4594 66.9866 80.7173 66.5156 83.8097C66.2016 85.8538 64.7885 87.7407 64.9979 89.8373C65.1026 90.7283 64.7362 92.6152 64.7362 93.4538C64.7362 98.5904 62.2242 99.1669 62.1719 100.058C62.1719 100.058 62.2765 101.473 63.6895 101.473C65.1026 101.473 56.9909 109.388 52.3855 101.473Z" fill="#263238"/>
<path d="M55.2114 82.8138L47.3613 88.4745C51.4957 89.1035 53.1703 93.349 53.1703 93.349C53.1703 93.349 58.5084 80.6124 55.2114 82.8138Z" fill="#263238"/>
</g>
<defs>
<clipPath id="clip0_181_8026">
<rect width="231" height="228" fill="white"/>
</clipPath>
</defs>
</svg>
